%TF.GenerationSoftware,KiCad,Pcbnew,7.0.5*%
%TF.CreationDate,2023-12-17T19:06:12-06:00*%
%TF.ProjectId,ibm5161-backplane,69626d35-3136-4312-9d62-61636b706c61,2233*%
%TF.SameCoordinates,Original*%
%TF.FileFunction,Legend,Top*%
%TF.FilePolarity,Positive*%
%FSLAX46Y46*%
G04 Gerber Fmt 4.6, Leading zero omitted, Abs format (unit mm)*
G04 Created by KiCad (PCBNEW 7.0.5) date 2023-12-17 19:06:12*
%MOMM*%
%LPD*%
G01*
G04 APERTURE LIST*
%ADD10C,0.150000*%
%ADD11C,0.300000*%
%ADD12C,0.250000*%
%ADD13C,0.120000*%
%ADD14C,0.200000*%
%ADD15C,0.100000*%
%ADD16C,0.350000*%
G04 APERTURE END LIST*
D10*
X221440000Y-32210000D02*
X223980000Y-32210000D01*
X228806000Y-32210000D02*
X231346000Y-32210000D01*
X221440000Y-42370000D02*
X223980000Y-42370000D01*
X221440000Y-88090000D02*
X223980000Y-88090000D01*
X229060000Y-70310000D02*
X231600000Y-70310000D01*
X221694000Y-70310000D02*
X224234000Y-70310000D01*
X229060000Y-88090000D02*
X231600000Y-88090000D01*
D11*
X119881596Y-19480057D02*
X119881596Y-21622914D01*
X119881596Y-21622914D02*
X119738739Y-22051485D01*
X119738739Y-22051485D02*
X119453025Y-22337200D01*
X119453025Y-22337200D02*
X119024453Y-22480057D01*
X119024453Y-22480057D02*
X118738739Y-22480057D01*
X122738739Y-22480057D02*
X121310167Y-22480057D01*
X121310167Y-22480057D02*
X121310167Y-19480057D01*
X125453024Y-22194342D02*
X125310167Y-22337200D01*
X125310167Y-22337200D02*
X124881595Y-22480057D01*
X124881595Y-22480057D02*
X124595881Y-22480057D01*
X124595881Y-22480057D02*
X124167310Y-22337200D01*
X124167310Y-22337200D02*
X123881595Y-22051485D01*
X123881595Y-22051485D02*
X123738738Y-21765771D01*
X123738738Y-21765771D02*
X123595881Y-21194342D01*
X123595881Y-21194342D02*
X123595881Y-20765771D01*
X123595881Y-20765771D02*
X123738738Y-20194342D01*
X123738738Y-20194342D02*
X123881595Y-19908628D01*
X123881595Y-19908628D02*
X124167310Y-19622914D01*
X124167310Y-19622914D02*
X124595881Y-19480057D01*
X124595881Y-19480057D02*
X124881595Y-19480057D01*
X124881595Y-19480057D02*
X125310167Y-19622914D01*
X125310167Y-19622914D02*
X125453024Y-19765771D01*
X127595881Y-19480057D02*
X127595881Y-21622914D01*
X127595881Y-21622914D02*
X127453024Y-22051485D01*
X127453024Y-22051485D02*
X127167310Y-22337200D01*
X127167310Y-22337200D02*
X126738738Y-22480057D01*
X126738738Y-22480057D02*
X126453024Y-22480057D01*
X130453024Y-22480057D02*
X129024452Y-22480057D01*
X129024452Y-22480057D02*
X129024452Y-19480057D01*
X133167309Y-22194342D02*
X133024452Y-22337200D01*
X133024452Y-22337200D02*
X132595880Y-22480057D01*
X132595880Y-22480057D02*
X132310166Y-22480057D01*
X132310166Y-22480057D02*
X131881595Y-22337200D01*
X131881595Y-22337200D02*
X131595880Y-22051485D01*
X131595880Y-22051485D02*
X131453023Y-21765771D01*
X131453023Y-21765771D02*
X131310166Y-21194342D01*
X131310166Y-21194342D02*
X131310166Y-20765771D01*
X131310166Y-20765771D02*
X131453023Y-20194342D01*
X131453023Y-20194342D02*
X131595880Y-19908628D01*
X131595880Y-19908628D02*
X131881595Y-19622914D01*
X131881595Y-19622914D02*
X132310166Y-19480057D01*
X132310166Y-19480057D02*
X132595880Y-19480057D01*
X132595880Y-19480057D02*
X133024452Y-19622914D01*
X133024452Y-19622914D02*
X133167309Y-19765771D01*
X135310166Y-19480057D02*
X135310166Y-21622914D01*
X135310166Y-21622914D02*
X135167309Y-22051485D01*
X135167309Y-22051485D02*
X134881595Y-22337200D01*
X134881595Y-22337200D02*
X134453023Y-22480057D01*
X134453023Y-22480057D02*
X134167309Y-22480057D01*
X138167309Y-22480057D02*
X136738737Y-22480057D01*
X136738737Y-22480057D02*
X136738737Y-19480057D01*
X140881594Y-22194342D02*
X140738737Y-22337200D01*
X140738737Y-22337200D02*
X140310165Y-22480057D01*
X140310165Y-22480057D02*
X140024451Y-22480057D01*
X140024451Y-22480057D02*
X139595880Y-22337200D01*
X139595880Y-22337200D02*
X139310165Y-22051485D01*
X139310165Y-22051485D02*
X139167308Y-21765771D01*
X139167308Y-21765771D02*
X139024451Y-21194342D01*
X139024451Y-21194342D02*
X139024451Y-20765771D01*
X139024451Y-20765771D02*
X139167308Y-20194342D01*
X139167308Y-20194342D02*
X139310165Y-19908628D01*
X139310165Y-19908628D02*
X139595880Y-19622914D01*
X139595880Y-19622914D02*
X140024451Y-19480057D01*
X140024451Y-19480057D02*
X140310165Y-19480057D01*
X140310165Y-19480057D02*
X140738737Y-19622914D01*
X140738737Y-19622914D02*
X140881594Y-19765771D01*
X143024451Y-19480057D02*
X143024451Y-21622914D01*
X143024451Y-21622914D02*
X142881594Y-22051485D01*
X142881594Y-22051485D02*
X142595880Y-22337200D01*
X142595880Y-22337200D02*
X142167308Y-22480057D01*
X142167308Y-22480057D02*
X141881594Y-22480057D01*
X145881594Y-22480057D02*
X144453022Y-22480057D01*
X144453022Y-22480057D02*
X144453022Y-19480057D01*
X148595879Y-22194342D02*
X148453022Y-22337200D01*
X148453022Y-22337200D02*
X148024450Y-22480057D01*
X148024450Y-22480057D02*
X147738736Y-22480057D01*
X147738736Y-22480057D02*
X147310165Y-22337200D01*
X147310165Y-22337200D02*
X147024450Y-22051485D01*
X147024450Y-22051485D02*
X146881593Y-21765771D01*
X146881593Y-21765771D02*
X146738736Y-21194342D01*
X146738736Y-21194342D02*
X146738736Y-20765771D01*
X146738736Y-20765771D02*
X146881593Y-20194342D01*
X146881593Y-20194342D02*
X147024450Y-19908628D01*
X147024450Y-19908628D02*
X147310165Y-19622914D01*
X147310165Y-19622914D02*
X147738736Y-19480057D01*
X147738736Y-19480057D02*
X148024450Y-19480057D01*
X148024450Y-19480057D02*
X148453022Y-19622914D01*
X148453022Y-19622914D02*
X148595879Y-19765771D01*
D12*
X150717095Y-121425714D02*
X150793285Y-121168571D01*
X150793285Y-121168571D02*
X150869476Y-121082857D01*
X150869476Y-121082857D02*
X151021857Y-120997143D01*
X151021857Y-120997143D02*
X151250428Y-120997143D01*
X151250428Y-120997143D02*
X151402809Y-121082857D01*
X151402809Y-121082857D02*
X151479000Y-121168571D01*
X151479000Y-121168571D02*
X151555190Y-121340000D01*
X151555190Y-121340000D02*
X151555190Y-122025714D01*
X151555190Y-122025714D02*
X149955190Y-122025714D01*
X149955190Y-122025714D02*
X149955190Y-121425714D01*
X149955190Y-121425714D02*
X150031380Y-121254286D01*
X150031380Y-121254286D02*
X150107571Y-121168571D01*
X150107571Y-121168571D02*
X150259952Y-121082857D01*
X150259952Y-121082857D02*
X150412333Y-121082857D01*
X150412333Y-121082857D02*
X150564714Y-121168571D01*
X150564714Y-121168571D02*
X150640904Y-121254286D01*
X150640904Y-121254286D02*
X150717095Y-121425714D01*
X150717095Y-121425714D02*
X150717095Y-122025714D01*
X149955190Y-120397143D02*
X149955190Y-119282857D01*
X149955190Y-119282857D02*
X150564714Y-119882857D01*
X150564714Y-119882857D02*
X150564714Y-119625714D01*
X150564714Y-119625714D02*
X150640904Y-119454286D01*
X150640904Y-119454286D02*
X150717095Y-119368571D01*
X150717095Y-119368571D02*
X150869476Y-119282857D01*
X150869476Y-119282857D02*
X151250428Y-119282857D01*
X151250428Y-119282857D02*
X151402809Y-119368571D01*
X151402809Y-119368571D02*
X151479000Y-119454286D01*
X151479000Y-119454286D02*
X151555190Y-119625714D01*
X151555190Y-119625714D02*
X151555190Y-120140000D01*
X151555190Y-120140000D02*
X151479000Y-120311428D01*
X151479000Y-120311428D02*
X151402809Y-120397143D01*
X151555190Y-117568571D02*
X151555190Y-118597142D01*
X151555190Y-118082857D02*
X149955190Y-118082857D01*
X149955190Y-118082857D02*
X150183761Y-118254285D01*
X150183761Y-118254285D02*
X150336142Y-118425714D01*
X150336142Y-118425714D02*
X150412333Y-118597142D01*
X60928047Y-121474856D02*
X60928047Y-120617714D01*
X61385190Y-121646285D02*
X59785190Y-121046285D01*
X59785190Y-121046285D02*
X61385190Y-120446285D01*
X59785190Y-120017714D02*
X59785190Y-118903428D01*
X59785190Y-118903428D02*
X60394714Y-119503428D01*
X60394714Y-119503428D02*
X60394714Y-119246285D01*
X60394714Y-119246285D02*
X60470904Y-119074857D01*
X60470904Y-119074857D02*
X60547095Y-118989142D01*
X60547095Y-118989142D02*
X60699476Y-118903428D01*
X60699476Y-118903428D02*
X61080428Y-118903428D01*
X61080428Y-118903428D02*
X61232809Y-118989142D01*
X61232809Y-118989142D02*
X61309000Y-119074857D01*
X61309000Y-119074857D02*
X61385190Y-119246285D01*
X61385190Y-119246285D02*
X61385190Y-119760571D01*
X61385190Y-119760571D02*
X61309000Y-119931999D01*
X61309000Y-119931999D02*
X61232809Y-120017714D01*
X61385190Y-117189142D02*
X61385190Y-118217713D01*
X61385190Y-117703428D02*
X59785190Y-117703428D01*
X59785190Y-117703428D02*
X60013761Y-117874856D01*
X60013761Y-117874856D02*
X60166142Y-118046285D01*
X60166142Y-118046285D02*
X60242333Y-118217713D01*
X183102047Y-45782856D02*
X183102047Y-44925714D01*
X183559190Y-45954285D02*
X181959190Y-45354285D01*
X181959190Y-45354285D02*
X183559190Y-44754285D01*
X181959190Y-43811428D02*
X181959190Y-43639999D01*
X181959190Y-43639999D02*
X182035380Y-43468571D01*
X182035380Y-43468571D02*
X182111571Y-43382857D01*
X182111571Y-43382857D02*
X182263952Y-43297142D01*
X182263952Y-43297142D02*
X182568714Y-43211428D01*
X182568714Y-43211428D02*
X182949666Y-43211428D01*
X182949666Y-43211428D02*
X183254428Y-43297142D01*
X183254428Y-43297142D02*
X183406809Y-43382857D01*
X183406809Y-43382857D02*
X183483000Y-43468571D01*
X183483000Y-43468571D02*
X183559190Y-43639999D01*
X183559190Y-43639999D02*
X183559190Y-43811428D01*
X183559190Y-43811428D02*
X183483000Y-43982857D01*
X183483000Y-43982857D02*
X183406809Y-44068571D01*
X183406809Y-44068571D02*
X183254428Y-44154285D01*
X183254428Y-44154285D02*
X182949666Y-44239999D01*
X182949666Y-44239999D02*
X182568714Y-44239999D01*
X182568714Y-44239999D02*
X182263952Y-44154285D01*
X182263952Y-44154285D02*
X182111571Y-44068571D01*
X182111571Y-44068571D02*
X182035380Y-43982857D01*
X182035380Y-43982857D02*
X181959190Y-43811428D01*
X183559190Y-41497142D02*
X183559190Y-42525713D01*
X183559190Y-42011428D02*
X181959190Y-42011428D01*
X181959190Y-42011428D02*
X182187761Y-42182856D01*
X182187761Y-42182856D02*
X182340142Y-42354285D01*
X182340142Y-42354285D02*
X182416333Y-42525713D01*
X170783095Y-120663714D02*
X170859285Y-120406571D01*
X170859285Y-120406571D02*
X170935476Y-120320857D01*
X170935476Y-120320857D02*
X171087857Y-120235143D01*
X171087857Y-120235143D02*
X171316428Y-120235143D01*
X171316428Y-120235143D02*
X171468809Y-120320857D01*
X171468809Y-120320857D02*
X171545000Y-120406571D01*
X171545000Y-120406571D02*
X171621190Y-120578000D01*
X171621190Y-120578000D02*
X171621190Y-121263714D01*
X171621190Y-121263714D02*
X170021190Y-121263714D01*
X170021190Y-121263714D02*
X170021190Y-120663714D01*
X170021190Y-120663714D02*
X170097380Y-120492286D01*
X170097380Y-120492286D02*
X170173571Y-120406571D01*
X170173571Y-120406571D02*
X170325952Y-120320857D01*
X170325952Y-120320857D02*
X170478333Y-120320857D01*
X170478333Y-120320857D02*
X170630714Y-120406571D01*
X170630714Y-120406571D02*
X170706904Y-120492286D01*
X170706904Y-120492286D02*
X170783095Y-120663714D01*
X170783095Y-120663714D02*
X170783095Y-121263714D01*
X170021190Y-119635143D02*
X170021190Y-118520857D01*
X170021190Y-118520857D02*
X170630714Y-119120857D01*
X170630714Y-119120857D02*
X170630714Y-118863714D01*
X170630714Y-118863714D02*
X170706904Y-118692286D01*
X170706904Y-118692286D02*
X170783095Y-118606571D01*
X170783095Y-118606571D02*
X170935476Y-118520857D01*
X170935476Y-118520857D02*
X171316428Y-118520857D01*
X171316428Y-118520857D02*
X171468809Y-118606571D01*
X171468809Y-118606571D02*
X171545000Y-118692286D01*
X171545000Y-118692286D02*
X171621190Y-118863714D01*
X171621190Y-118863714D02*
X171621190Y-119378000D01*
X171621190Y-119378000D02*
X171545000Y-119549428D01*
X171545000Y-119549428D02*
X171468809Y-119635143D01*
X171621190Y-116806571D02*
X171621190Y-117835142D01*
X171621190Y-117320857D02*
X170021190Y-117320857D01*
X170021190Y-117320857D02*
X170249761Y-117492285D01*
X170249761Y-117492285D02*
X170402142Y-117663714D01*
X170402142Y-117663714D02*
X170478333Y-117835142D01*
X130143095Y-45225714D02*
X130219285Y-44968571D01*
X130219285Y-44968571D02*
X130295476Y-44882857D01*
X130295476Y-44882857D02*
X130447857Y-44797143D01*
X130447857Y-44797143D02*
X130676428Y-44797143D01*
X130676428Y-44797143D02*
X130828809Y-44882857D01*
X130828809Y-44882857D02*
X130905000Y-44968571D01*
X130905000Y-44968571D02*
X130981190Y-45140000D01*
X130981190Y-45140000D02*
X130981190Y-45825714D01*
X130981190Y-45825714D02*
X129381190Y-45825714D01*
X129381190Y-45825714D02*
X129381190Y-45225714D01*
X129381190Y-45225714D02*
X129457380Y-45054286D01*
X129457380Y-45054286D02*
X129533571Y-44968571D01*
X129533571Y-44968571D02*
X129685952Y-44882857D01*
X129685952Y-44882857D02*
X129838333Y-44882857D01*
X129838333Y-44882857D02*
X129990714Y-44968571D01*
X129990714Y-44968571D02*
X130066904Y-45054286D01*
X130066904Y-45054286D02*
X130143095Y-45225714D01*
X130143095Y-45225714D02*
X130143095Y-45825714D01*
X129381190Y-43682857D02*
X129381190Y-43511428D01*
X129381190Y-43511428D02*
X129457380Y-43340000D01*
X129457380Y-43340000D02*
X129533571Y-43254286D01*
X129533571Y-43254286D02*
X129685952Y-43168571D01*
X129685952Y-43168571D02*
X129990714Y-43082857D01*
X129990714Y-43082857D02*
X130371666Y-43082857D01*
X130371666Y-43082857D02*
X130676428Y-43168571D01*
X130676428Y-43168571D02*
X130828809Y-43254286D01*
X130828809Y-43254286D02*
X130905000Y-43340000D01*
X130905000Y-43340000D02*
X130981190Y-43511428D01*
X130981190Y-43511428D02*
X130981190Y-43682857D01*
X130981190Y-43682857D02*
X130905000Y-43854286D01*
X130905000Y-43854286D02*
X130828809Y-43940000D01*
X130828809Y-43940000D02*
X130676428Y-44025714D01*
X130676428Y-44025714D02*
X130371666Y-44111428D01*
X130371666Y-44111428D02*
X129990714Y-44111428D01*
X129990714Y-44111428D02*
X129685952Y-44025714D01*
X129685952Y-44025714D02*
X129533571Y-43940000D01*
X129533571Y-43940000D02*
X129457380Y-43854286D01*
X129457380Y-43854286D02*
X129381190Y-43682857D01*
X130981190Y-41368571D02*
X130981190Y-42397142D01*
X130981190Y-41882857D02*
X129381190Y-41882857D01*
X129381190Y-41882857D02*
X129609761Y-42054285D01*
X129609761Y-42054285D02*
X129762142Y-42225714D01*
X129762142Y-42225714D02*
X129838333Y-42397142D01*
X48863095Y-45479714D02*
X48939285Y-45222571D01*
X48939285Y-45222571D02*
X49015476Y-45136857D01*
X49015476Y-45136857D02*
X49167857Y-45051143D01*
X49167857Y-45051143D02*
X49396428Y-45051143D01*
X49396428Y-45051143D02*
X49548809Y-45136857D01*
X49548809Y-45136857D02*
X49625000Y-45222571D01*
X49625000Y-45222571D02*
X49701190Y-45394000D01*
X49701190Y-45394000D02*
X49701190Y-46079714D01*
X49701190Y-46079714D02*
X48101190Y-46079714D01*
X48101190Y-46079714D02*
X48101190Y-45479714D01*
X48101190Y-45479714D02*
X48177380Y-45308286D01*
X48177380Y-45308286D02*
X48253571Y-45222571D01*
X48253571Y-45222571D02*
X48405952Y-45136857D01*
X48405952Y-45136857D02*
X48558333Y-45136857D01*
X48558333Y-45136857D02*
X48710714Y-45222571D01*
X48710714Y-45222571D02*
X48786904Y-45308286D01*
X48786904Y-45308286D02*
X48863095Y-45479714D01*
X48863095Y-45479714D02*
X48863095Y-46079714D01*
X48101190Y-43936857D02*
X48101190Y-43765428D01*
X48101190Y-43765428D02*
X48177380Y-43594000D01*
X48177380Y-43594000D02*
X48253571Y-43508286D01*
X48253571Y-43508286D02*
X48405952Y-43422571D01*
X48405952Y-43422571D02*
X48710714Y-43336857D01*
X48710714Y-43336857D02*
X49091666Y-43336857D01*
X49091666Y-43336857D02*
X49396428Y-43422571D01*
X49396428Y-43422571D02*
X49548809Y-43508286D01*
X49548809Y-43508286D02*
X49625000Y-43594000D01*
X49625000Y-43594000D02*
X49701190Y-43765428D01*
X49701190Y-43765428D02*
X49701190Y-43936857D01*
X49701190Y-43936857D02*
X49625000Y-44108286D01*
X49625000Y-44108286D02*
X49548809Y-44194000D01*
X49548809Y-44194000D02*
X49396428Y-44279714D01*
X49396428Y-44279714D02*
X49091666Y-44365428D01*
X49091666Y-44365428D02*
X48710714Y-44365428D01*
X48710714Y-44365428D02*
X48405952Y-44279714D01*
X48405952Y-44279714D02*
X48253571Y-44194000D01*
X48253571Y-44194000D02*
X48177380Y-44108286D01*
X48177380Y-44108286D02*
X48101190Y-43936857D01*
X49701190Y-41622571D02*
X49701190Y-42651142D01*
X49701190Y-42136857D02*
X48101190Y-42136857D01*
X48101190Y-42136857D02*
X48329761Y-42308285D01*
X48329761Y-42308285D02*
X48482142Y-42479714D01*
X48482142Y-42479714D02*
X48558333Y-42651142D01*
X40354047Y-45782856D02*
X40354047Y-44925714D01*
X40811190Y-45954285D02*
X39211190Y-45354285D01*
X39211190Y-45354285D02*
X40811190Y-44754285D01*
X39211190Y-43811428D02*
X39211190Y-43639999D01*
X39211190Y-43639999D02*
X39287380Y-43468571D01*
X39287380Y-43468571D02*
X39363571Y-43382857D01*
X39363571Y-43382857D02*
X39515952Y-43297142D01*
X39515952Y-43297142D02*
X39820714Y-43211428D01*
X39820714Y-43211428D02*
X40201666Y-43211428D01*
X40201666Y-43211428D02*
X40506428Y-43297142D01*
X40506428Y-43297142D02*
X40658809Y-43382857D01*
X40658809Y-43382857D02*
X40735000Y-43468571D01*
X40735000Y-43468571D02*
X40811190Y-43639999D01*
X40811190Y-43639999D02*
X40811190Y-43811428D01*
X40811190Y-43811428D02*
X40735000Y-43982857D01*
X40735000Y-43982857D02*
X40658809Y-44068571D01*
X40658809Y-44068571D02*
X40506428Y-44154285D01*
X40506428Y-44154285D02*
X40201666Y-44239999D01*
X40201666Y-44239999D02*
X39820714Y-44239999D01*
X39820714Y-44239999D02*
X39515952Y-44154285D01*
X39515952Y-44154285D02*
X39363571Y-44068571D01*
X39363571Y-44068571D02*
X39287380Y-43982857D01*
X39287380Y-43982857D02*
X39211190Y-43811428D01*
X40811190Y-41497142D02*
X40811190Y-42525713D01*
X40811190Y-42011428D02*
X39211190Y-42011428D01*
X39211190Y-42011428D02*
X39439761Y-42182856D01*
X39439761Y-42182856D02*
X39592142Y-42354285D01*
X39592142Y-42354285D02*
X39668333Y-42525713D01*
D10*
X225586779Y-43382866D02*
X226348684Y-43382866D01*
X225967731Y-43763819D02*
X225967731Y-43001914D01*
D12*
X89503095Y-121171714D02*
X89579285Y-120914571D01*
X89579285Y-120914571D02*
X89655476Y-120828857D01*
X89655476Y-120828857D02*
X89807857Y-120743143D01*
X89807857Y-120743143D02*
X90036428Y-120743143D01*
X90036428Y-120743143D02*
X90188809Y-120828857D01*
X90188809Y-120828857D02*
X90265000Y-120914571D01*
X90265000Y-120914571D02*
X90341190Y-121086000D01*
X90341190Y-121086000D02*
X90341190Y-121771714D01*
X90341190Y-121771714D02*
X88741190Y-121771714D01*
X88741190Y-121771714D02*
X88741190Y-121171714D01*
X88741190Y-121171714D02*
X88817380Y-121000286D01*
X88817380Y-121000286D02*
X88893571Y-120914571D01*
X88893571Y-120914571D02*
X89045952Y-120828857D01*
X89045952Y-120828857D02*
X89198333Y-120828857D01*
X89198333Y-120828857D02*
X89350714Y-120914571D01*
X89350714Y-120914571D02*
X89426904Y-121000286D01*
X89426904Y-121000286D02*
X89503095Y-121171714D01*
X89503095Y-121171714D02*
X89503095Y-121771714D01*
X88741190Y-120143143D02*
X88741190Y-119028857D01*
X88741190Y-119028857D02*
X89350714Y-119628857D01*
X89350714Y-119628857D02*
X89350714Y-119371714D01*
X89350714Y-119371714D02*
X89426904Y-119200286D01*
X89426904Y-119200286D02*
X89503095Y-119114571D01*
X89503095Y-119114571D02*
X89655476Y-119028857D01*
X89655476Y-119028857D02*
X90036428Y-119028857D01*
X90036428Y-119028857D02*
X90188809Y-119114571D01*
X90188809Y-119114571D02*
X90265000Y-119200286D01*
X90265000Y-119200286D02*
X90341190Y-119371714D01*
X90341190Y-119371714D02*
X90341190Y-119886000D01*
X90341190Y-119886000D02*
X90265000Y-120057428D01*
X90265000Y-120057428D02*
X90188809Y-120143143D01*
X90341190Y-117314571D02*
X90341190Y-118343142D01*
X90341190Y-117828857D02*
X88741190Y-117828857D01*
X88741190Y-117828857D02*
X88969761Y-118000285D01*
X88969761Y-118000285D02*
X89122142Y-118171714D01*
X89122142Y-118171714D02*
X89198333Y-118343142D01*
X130397095Y-121171714D02*
X130473285Y-120914571D01*
X130473285Y-120914571D02*
X130549476Y-120828857D01*
X130549476Y-120828857D02*
X130701857Y-120743143D01*
X130701857Y-120743143D02*
X130930428Y-120743143D01*
X130930428Y-120743143D02*
X131082809Y-120828857D01*
X131082809Y-120828857D02*
X131159000Y-120914571D01*
X131159000Y-120914571D02*
X131235190Y-121086000D01*
X131235190Y-121086000D02*
X131235190Y-121771714D01*
X131235190Y-121771714D02*
X129635190Y-121771714D01*
X129635190Y-121771714D02*
X129635190Y-121171714D01*
X129635190Y-121171714D02*
X129711380Y-121000286D01*
X129711380Y-121000286D02*
X129787571Y-120914571D01*
X129787571Y-120914571D02*
X129939952Y-120828857D01*
X129939952Y-120828857D02*
X130092333Y-120828857D01*
X130092333Y-120828857D02*
X130244714Y-120914571D01*
X130244714Y-120914571D02*
X130320904Y-121000286D01*
X130320904Y-121000286D02*
X130397095Y-121171714D01*
X130397095Y-121171714D02*
X130397095Y-121771714D01*
X129635190Y-120143143D02*
X129635190Y-119028857D01*
X129635190Y-119028857D02*
X130244714Y-119628857D01*
X130244714Y-119628857D02*
X130244714Y-119371714D01*
X130244714Y-119371714D02*
X130320904Y-119200286D01*
X130320904Y-119200286D02*
X130397095Y-119114571D01*
X130397095Y-119114571D02*
X130549476Y-119028857D01*
X130549476Y-119028857D02*
X130930428Y-119028857D01*
X130930428Y-119028857D02*
X131082809Y-119114571D01*
X131082809Y-119114571D02*
X131159000Y-119200286D01*
X131159000Y-119200286D02*
X131235190Y-119371714D01*
X131235190Y-119371714D02*
X131235190Y-119886000D01*
X131235190Y-119886000D02*
X131159000Y-120057428D01*
X131159000Y-120057428D02*
X131082809Y-120143143D01*
X131235190Y-117314571D02*
X131235190Y-118343142D01*
X131235190Y-117828857D02*
X129635190Y-117828857D01*
X129635190Y-117828857D02*
X129863761Y-118000285D01*
X129863761Y-118000285D02*
X130016142Y-118171714D01*
X130016142Y-118171714D02*
X130092333Y-118343142D01*
X60928047Y-46036856D02*
X60928047Y-45179714D01*
X61385190Y-46208285D02*
X59785190Y-45608285D01*
X59785190Y-45608285D02*
X61385190Y-45008285D01*
X59785190Y-44065428D02*
X59785190Y-43893999D01*
X59785190Y-43893999D02*
X59861380Y-43722571D01*
X59861380Y-43722571D02*
X59937571Y-43636857D01*
X59937571Y-43636857D02*
X60089952Y-43551142D01*
X60089952Y-43551142D02*
X60394714Y-43465428D01*
X60394714Y-43465428D02*
X60775666Y-43465428D01*
X60775666Y-43465428D02*
X61080428Y-43551142D01*
X61080428Y-43551142D02*
X61232809Y-43636857D01*
X61232809Y-43636857D02*
X61309000Y-43722571D01*
X61309000Y-43722571D02*
X61385190Y-43893999D01*
X61385190Y-43893999D02*
X61385190Y-44065428D01*
X61385190Y-44065428D02*
X61309000Y-44236857D01*
X61309000Y-44236857D02*
X61232809Y-44322571D01*
X61232809Y-44322571D02*
X61080428Y-44408285D01*
X61080428Y-44408285D02*
X60775666Y-44493999D01*
X60775666Y-44493999D02*
X60394714Y-44493999D01*
X60394714Y-44493999D02*
X60089952Y-44408285D01*
X60089952Y-44408285D02*
X59937571Y-44322571D01*
X59937571Y-44322571D02*
X59861380Y-44236857D01*
X59861380Y-44236857D02*
X59785190Y-44065428D01*
X61385190Y-41751142D02*
X61385190Y-42779713D01*
X61385190Y-42265428D02*
X59785190Y-42265428D01*
X59785190Y-42265428D02*
X60013761Y-42436856D01*
X60013761Y-42436856D02*
X60166142Y-42608285D01*
X60166142Y-42608285D02*
X60242333Y-42779713D01*
X69437095Y-45225714D02*
X69513285Y-44968571D01*
X69513285Y-44968571D02*
X69589476Y-44882857D01*
X69589476Y-44882857D02*
X69741857Y-44797143D01*
X69741857Y-44797143D02*
X69970428Y-44797143D01*
X69970428Y-44797143D02*
X70122809Y-44882857D01*
X70122809Y-44882857D02*
X70199000Y-44968571D01*
X70199000Y-44968571D02*
X70275190Y-45140000D01*
X70275190Y-45140000D02*
X70275190Y-45825714D01*
X70275190Y-45825714D02*
X68675190Y-45825714D01*
X68675190Y-45825714D02*
X68675190Y-45225714D01*
X68675190Y-45225714D02*
X68751380Y-45054286D01*
X68751380Y-45054286D02*
X68827571Y-44968571D01*
X68827571Y-44968571D02*
X68979952Y-44882857D01*
X68979952Y-44882857D02*
X69132333Y-44882857D01*
X69132333Y-44882857D02*
X69284714Y-44968571D01*
X69284714Y-44968571D02*
X69360904Y-45054286D01*
X69360904Y-45054286D02*
X69437095Y-45225714D01*
X69437095Y-45225714D02*
X69437095Y-45825714D01*
X68675190Y-43682857D02*
X68675190Y-43511428D01*
X68675190Y-43511428D02*
X68751380Y-43340000D01*
X68751380Y-43340000D02*
X68827571Y-43254286D01*
X68827571Y-43254286D02*
X68979952Y-43168571D01*
X68979952Y-43168571D02*
X69284714Y-43082857D01*
X69284714Y-43082857D02*
X69665666Y-43082857D01*
X69665666Y-43082857D02*
X69970428Y-43168571D01*
X69970428Y-43168571D02*
X70122809Y-43254286D01*
X70122809Y-43254286D02*
X70199000Y-43340000D01*
X70199000Y-43340000D02*
X70275190Y-43511428D01*
X70275190Y-43511428D02*
X70275190Y-43682857D01*
X70275190Y-43682857D02*
X70199000Y-43854286D01*
X70199000Y-43854286D02*
X70122809Y-43940000D01*
X70122809Y-43940000D02*
X69970428Y-44025714D01*
X69970428Y-44025714D02*
X69665666Y-44111428D01*
X69665666Y-44111428D02*
X69284714Y-44111428D01*
X69284714Y-44111428D02*
X68979952Y-44025714D01*
X68979952Y-44025714D02*
X68827571Y-43940000D01*
X68827571Y-43940000D02*
X68751380Y-43854286D01*
X68751380Y-43854286D02*
X68675190Y-43682857D01*
X70275190Y-41368571D02*
X70275190Y-42397142D01*
X70275190Y-41882857D02*
X68675190Y-41882857D01*
X68675190Y-41882857D02*
X68903761Y-42054285D01*
X68903761Y-42054285D02*
X69056142Y-42225714D01*
X69056142Y-42225714D02*
X69132333Y-42397142D01*
X89757095Y-45479714D02*
X89833285Y-45222571D01*
X89833285Y-45222571D02*
X89909476Y-45136857D01*
X89909476Y-45136857D02*
X90061857Y-45051143D01*
X90061857Y-45051143D02*
X90290428Y-45051143D01*
X90290428Y-45051143D02*
X90442809Y-45136857D01*
X90442809Y-45136857D02*
X90519000Y-45222571D01*
X90519000Y-45222571D02*
X90595190Y-45394000D01*
X90595190Y-45394000D02*
X90595190Y-46079714D01*
X90595190Y-46079714D02*
X88995190Y-46079714D01*
X88995190Y-46079714D02*
X88995190Y-45479714D01*
X88995190Y-45479714D02*
X89071380Y-45308286D01*
X89071380Y-45308286D02*
X89147571Y-45222571D01*
X89147571Y-45222571D02*
X89299952Y-45136857D01*
X89299952Y-45136857D02*
X89452333Y-45136857D01*
X89452333Y-45136857D02*
X89604714Y-45222571D01*
X89604714Y-45222571D02*
X89680904Y-45308286D01*
X89680904Y-45308286D02*
X89757095Y-45479714D01*
X89757095Y-45479714D02*
X89757095Y-46079714D01*
X88995190Y-43936857D02*
X88995190Y-43765428D01*
X88995190Y-43765428D02*
X89071380Y-43594000D01*
X89071380Y-43594000D02*
X89147571Y-43508286D01*
X89147571Y-43508286D02*
X89299952Y-43422571D01*
X89299952Y-43422571D02*
X89604714Y-43336857D01*
X89604714Y-43336857D02*
X89985666Y-43336857D01*
X89985666Y-43336857D02*
X90290428Y-43422571D01*
X90290428Y-43422571D02*
X90442809Y-43508286D01*
X90442809Y-43508286D02*
X90519000Y-43594000D01*
X90519000Y-43594000D02*
X90595190Y-43765428D01*
X90595190Y-43765428D02*
X90595190Y-43936857D01*
X90595190Y-43936857D02*
X90519000Y-44108286D01*
X90519000Y-44108286D02*
X90442809Y-44194000D01*
X90442809Y-44194000D02*
X90290428Y-44279714D01*
X90290428Y-44279714D02*
X89985666Y-44365428D01*
X89985666Y-44365428D02*
X89604714Y-44365428D01*
X89604714Y-44365428D02*
X89299952Y-44279714D01*
X89299952Y-44279714D02*
X89147571Y-44194000D01*
X89147571Y-44194000D02*
X89071380Y-44108286D01*
X89071380Y-44108286D02*
X88995190Y-43936857D01*
X90595190Y-41622571D02*
X90595190Y-42651142D01*
X90595190Y-42136857D02*
X88995190Y-42136857D01*
X88995190Y-42136857D02*
X89223761Y-42308285D01*
X89223761Y-42308285D02*
X89376142Y-42479714D01*
X89376142Y-42479714D02*
X89452333Y-42651142D01*
X81502047Y-121474856D02*
X81502047Y-120617714D01*
X81959190Y-121646285D02*
X80359190Y-121046285D01*
X80359190Y-121046285D02*
X81959190Y-120446285D01*
X80359190Y-120017714D02*
X80359190Y-118903428D01*
X80359190Y-118903428D02*
X80968714Y-119503428D01*
X80968714Y-119503428D02*
X80968714Y-119246285D01*
X80968714Y-119246285D02*
X81044904Y-119074857D01*
X81044904Y-119074857D02*
X81121095Y-118989142D01*
X81121095Y-118989142D02*
X81273476Y-118903428D01*
X81273476Y-118903428D02*
X81654428Y-118903428D01*
X81654428Y-118903428D02*
X81806809Y-118989142D01*
X81806809Y-118989142D02*
X81883000Y-119074857D01*
X81883000Y-119074857D02*
X81959190Y-119246285D01*
X81959190Y-119246285D02*
X81959190Y-119760571D01*
X81959190Y-119760571D02*
X81883000Y-119931999D01*
X81883000Y-119931999D02*
X81806809Y-120017714D01*
X81959190Y-117189142D02*
X81959190Y-118217713D01*
X81959190Y-117703428D02*
X80359190Y-117703428D01*
X80359190Y-117703428D02*
X80587761Y-117874856D01*
X80587761Y-117874856D02*
X80740142Y-118046285D01*
X80740142Y-118046285D02*
X80816333Y-118217713D01*
X40608047Y-121982856D02*
X40608047Y-121125714D01*
X41065190Y-122154285D02*
X39465190Y-121554285D01*
X39465190Y-121554285D02*
X41065190Y-120954285D01*
X39465190Y-120525714D02*
X39465190Y-119411428D01*
X39465190Y-119411428D02*
X40074714Y-120011428D01*
X40074714Y-120011428D02*
X40074714Y-119754285D01*
X40074714Y-119754285D02*
X40150904Y-119582857D01*
X40150904Y-119582857D02*
X40227095Y-119497142D01*
X40227095Y-119497142D02*
X40379476Y-119411428D01*
X40379476Y-119411428D02*
X40760428Y-119411428D01*
X40760428Y-119411428D02*
X40912809Y-119497142D01*
X40912809Y-119497142D02*
X40989000Y-119582857D01*
X40989000Y-119582857D02*
X41065190Y-119754285D01*
X41065190Y-119754285D02*
X41065190Y-120268571D01*
X41065190Y-120268571D02*
X40989000Y-120439999D01*
X40989000Y-120439999D02*
X40912809Y-120525714D01*
X41065190Y-117697142D02*
X41065190Y-118725713D01*
X41065190Y-118211428D02*
X39465190Y-118211428D01*
X39465190Y-118211428D02*
X39693761Y-118382856D01*
X39693761Y-118382856D02*
X39846142Y-118554285D01*
X39846142Y-118554285D02*
X39922333Y-118725713D01*
X122142047Y-121728856D02*
X122142047Y-120871714D01*
X122599190Y-121900285D02*
X120999190Y-121300285D01*
X120999190Y-121300285D02*
X122599190Y-120700285D01*
X120999190Y-120271714D02*
X120999190Y-119157428D01*
X120999190Y-119157428D02*
X121608714Y-119757428D01*
X121608714Y-119757428D02*
X121608714Y-119500285D01*
X121608714Y-119500285D02*
X121684904Y-119328857D01*
X121684904Y-119328857D02*
X121761095Y-119243142D01*
X121761095Y-119243142D02*
X121913476Y-119157428D01*
X121913476Y-119157428D02*
X122294428Y-119157428D01*
X122294428Y-119157428D02*
X122446809Y-119243142D01*
X122446809Y-119243142D02*
X122523000Y-119328857D01*
X122523000Y-119328857D02*
X122599190Y-119500285D01*
X122599190Y-119500285D02*
X122599190Y-120014571D01*
X122599190Y-120014571D02*
X122523000Y-120185999D01*
X122523000Y-120185999D02*
X122446809Y-120271714D01*
X122599190Y-117443142D02*
X122599190Y-118471713D01*
X122599190Y-117957428D02*
X120999190Y-117957428D01*
X120999190Y-117957428D02*
X121227761Y-118128856D01*
X121227761Y-118128856D02*
X121380142Y-118300285D01*
X121380142Y-118300285D02*
X121456333Y-118471713D01*
D10*
X219236779Y-68782866D02*
X219998684Y-68782866D01*
X219617731Y-69163819D02*
X219617731Y-68401914D01*
D12*
X101822047Y-46036856D02*
X101822047Y-45179714D01*
X102279190Y-46208285D02*
X100679190Y-45608285D01*
X100679190Y-45608285D02*
X102279190Y-45008285D01*
X100679190Y-44065428D02*
X100679190Y-43893999D01*
X100679190Y-43893999D02*
X100755380Y-43722571D01*
X100755380Y-43722571D02*
X100831571Y-43636857D01*
X100831571Y-43636857D02*
X100983952Y-43551142D01*
X100983952Y-43551142D02*
X101288714Y-43465428D01*
X101288714Y-43465428D02*
X101669666Y-43465428D01*
X101669666Y-43465428D02*
X101974428Y-43551142D01*
X101974428Y-43551142D02*
X102126809Y-43636857D01*
X102126809Y-43636857D02*
X102203000Y-43722571D01*
X102203000Y-43722571D02*
X102279190Y-43893999D01*
X102279190Y-43893999D02*
X102279190Y-44065428D01*
X102279190Y-44065428D02*
X102203000Y-44236857D01*
X102203000Y-44236857D02*
X102126809Y-44322571D01*
X102126809Y-44322571D02*
X101974428Y-44408285D01*
X101974428Y-44408285D02*
X101669666Y-44493999D01*
X101669666Y-44493999D02*
X101288714Y-44493999D01*
X101288714Y-44493999D02*
X100983952Y-44408285D01*
X100983952Y-44408285D02*
X100831571Y-44322571D01*
X100831571Y-44322571D02*
X100755380Y-44236857D01*
X100755380Y-44236857D02*
X100679190Y-44065428D01*
X102279190Y-41751142D02*
X102279190Y-42779713D01*
X102279190Y-42265428D02*
X100679190Y-42265428D01*
X100679190Y-42265428D02*
X100907761Y-42436856D01*
X100907761Y-42436856D02*
X101060142Y-42608285D01*
X101060142Y-42608285D02*
X101136333Y-42779713D01*
X48863095Y-120917714D02*
X48939285Y-120660571D01*
X48939285Y-120660571D02*
X49015476Y-120574857D01*
X49015476Y-120574857D02*
X49167857Y-120489143D01*
X49167857Y-120489143D02*
X49396428Y-120489143D01*
X49396428Y-120489143D02*
X49548809Y-120574857D01*
X49548809Y-120574857D02*
X49625000Y-120660571D01*
X49625000Y-120660571D02*
X49701190Y-120832000D01*
X49701190Y-120832000D02*
X49701190Y-121517714D01*
X49701190Y-121517714D02*
X48101190Y-121517714D01*
X48101190Y-121517714D02*
X48101190Y-120917714D01*
X48101190Y-120917714D02*
X48177380Y-120746286D01*
X48177380Y-120746286D02*
X48253571Y-120660571D01*
X48253571Y-120660571D02*
X48405952Y-120574857D01*
X48405952Y-120574857D02*
X48558333Y-120574857D01*
X48558333Y-120574857D02*
X48710714Y-120660571D01*
X48710714Y-120660571D02*
X48786904Y-120746286D01*
X48786904Y-120746286D02*
X48863095Y-120917714D01*
X48863095Y-120917714D02*
X48863095Y-121517714D01*
X48101190Y-119889143D02*
X48101190Y-118774857D01*
X48101190Y-118774857D02*
X48710714Y-119374857D01*
X48710714Y-119374857D02*
X48710714Y-119117714D01*
X48710714Y-119117714D02*
X48786904Y-118946286D01*
X48786904Y-118946286D02*
X48863095Y-118860571D01*
X48863095Y-118860571D02*
X49015476Y-118774857D01*
X49015476Y-118774857D02*
X49396428Y-118774857D01*
X49396428Y-118774857D02*
X49548809Y-118860571D01*
X49548809Y-118860571D02*
X49625000Y-118946286D01*
X49625000Y-118946286D02*
X49701190Y-119117714D01*
X49701190Y-119117714D02*
X49701190Y-119632000D01*
X49701190Y-119632000D02*
X49625000Y-119803428D01*
X49625000Y-119803428D02*
X49548809Y-119889143D01*
X49701190Y-117060571D02*
X49701190Y-118089142D01*
X49701190Y-117574857D02*
X48101190Y-117574857D01*
X48101190Y-117574857D02*
X48329761Y-117746285D01*
X48329761Y-117746285D02*
X48482142Y-117917714D01*
X48482142Y-117917714D02*
X48558333Y-118089142D01*
D10*
X233206779Y-68782866D02*
X233968684Y-68782866D01*
X233587731Y-69163819D02*
X233587731Y-68401914D01*
D12*
X171037095Y-45225714D02*
X171113285Y-44968571D01*
X171113285Y-44968571D02*
X171189476Y-44882857D01*
X171189476Y-44882857D02*
X171341857Y-44797143D01*
X171341857Y-44797143D02*
X171570428Y-44797143D01*
X171570428Y-44797143D02*
X171722809Y-44882857D01*
X171722809Y-44882857D02*
X171799000Y-44968571D01*
X171799000Y-44968571D02*
X171875190Y-45140000D01*
X171875190Y-45140000D02*
X171875190Y-45825714D01*
X171875190Y-45825714D02*
X170275190Y-45825714D01*
X170275190Y-45825714D02*
X170275190Y-45225714D01*
X170275190Y-45225714D02*
X170351380Y-45054286D01*
X170351380Y-45054286D02*
X170427571Y-44968571D01*
X170427571Y-44968571D02*
X170579952Y-44882857D01*
X170579952Y-44882857D02*
X170732333Y-44882857D01*
X170732333Y-44882857D02*
X170884714Y-44968571D01*
X170884714Y-44968571D02*
X170960904Y-45054286D01*
X170960904Y-45054286D02*
X171037095Y-45225714D01*
X171037095Y-45225714D02*
X171037095Y-45825714D01*
X170275190Y-43682857D02*
X170275190Y-43511428D01*
X170275190Y-43511428D02*
X170351380Y-43340000D01*
X170351380Y-43340000D02*
X170427571Y-43254286D01*
X170427571Y-43254286D02*
X170579952Y-43168571D01*
X170579952Y-43168571D02*
X170884714Y-43082857D01*
X170884714Y-43082857D02*
X171265666Y-43082857D01*
X171265666Y-43082857D02*
X171570428Y-43168571D01*
X171570428Y-43168571D02*
X171722809Y-43254286D01*
X171722809Y-43254286D02*
X171799000Y-43340000D01*
X171799000Y-43340000D02*
X171875190Y-43511428D01*
X171875190Y-43511428D02*
X171875190Y-43682857D01*
X171875190Y-43682857D02*
X171799000Y-43854286D01*
X171799000Y-43854286D02*
X171722809Y-43940000D01*
X171722809Y-43940000D02*
X171570428Y-44025714D01*
X171570428Y-44025714D02*
X171265666Y-44111428D01*
X171265666Y-44111428D02*
X170884714Y-44111428D01*
X170884714Y-44111428D02*
X170579952Y-44025714D01*
X170579952Y-44025714D02*
X170427571Y-43940000D01*
X170427571Y-43940000D02*
X170351380Y-43854286D01*
X170351380Y-43854286D02*
X170275190Y-43682857D01*
X171875190Y-41368571D02*
X171875190Y-42397142D01*
X171875190Y-41882857D02*
X170275190Y-41882857D01*
X170275190Y-41882857D02*
X170503761Y-42054285D01*
X170503761Y-42054285D02*
X170656142Y-42225714D01*
X170656142Y-42225714D02*
X170732333Y-42397142D01*
D10*
X219236779Y-89102866D02*
X219998684Y-89102866D01*
X219617731Y-89483819D02*
X219617731Y-88721914D01*
D12*
X81502047Y-45782856D02*
X81502047Y-44925714D01*
X81959190Y-45954285D02*
X80359190Y-45354285D01*
X80359190Y-45354285D02*
X81959190Y-44754285D01*
X80359190Y-43811428D02*
X80359190Y-43639999D01*
X80359190Y-43639999D02*
X80435380Y-43468571D01*
X80435380Y-43468571D02*
X80511571Y-43382857D01*
X80511571Y-43382857D02*
X80663952Y-43297142D01*
X80663952Y-43297142D02*
X80968714Y-43211428D01*
X80968714Y-43211428D02*
X81349666Y-43211428D01*
X81349666Y-43211428D02*
X81654428Y-43297142D01*
X81654428Y-43297142D02*
X81806809Y-43382857D01*
X81806809Y-43382857D02*
X81883000Y-43468571D01*
X81883000Y-43468571D02*
X81959190Y-43639999D01*
X81959190Y-43639999D02*
X81959190Y-43811428D01*
X81959190Y-43811428D02*
X81883000Y-43982857D01*
X81883000Y-43982857D02*
X81806809Y-44068571D01*
X81806809Y-44068571D02*
X81654428Y-44154285D01*
X81654428Y-44154285D02*
X81349666Y-44239999D01*
X81349666Y-44239999D02*
X80968714Y-44239999D01*
X80968714Y-44239999D02*
X80663952Y-44154285D01*
X80663952Y-44154285D02*
X80511571Y-44068571D01*
X80511571Y-44068571D02*
X80435380Y-43982857D01*
X80435380Y-43982857D02*
X80359190Y-43811428D01*
X81959190Y-41497142D02*
X81959190Y-42525713D01*
X81959190Y-42011428D02*
X80359190Y-42011428D01*
X80359190Y-42011428D02*
X80587761Y-42182856D01*
X80587761Y-42182856D02*
X80740142Y-42354285D01*
X80740142Y-42354285D02*
X80816333Y-42525713D01*
X110077095Y-121171714D02*
X110153285Y-120914571D01*
X110153285Y-120914571D02*
X110229476Y-120828857D01*
X110229476Y-120828857D02*
X110381857Y-120743143D01*
X110381857Y-120743143D02*
X110610428Y-120743143D01*
X110610428Y-120743143D02*
X110762809Y-120828857D01*
X110762809Y-120828857D02*
X110839000Y-120914571D01*
X110839000Y-120914571D02*
X110915190Y-121086000D01*
X110915190Y-121086000D02*
X110915190Y-121771714D01*
X110915190Y-121771714D02*
X109315190Y-121771714D01*
X109315190Y-121771714D02*
X109315190Y-121171714D01*
X109315190Y-121171714D02*
X109391380Y-121000286D01*
X109391380Y-121000286D02*
X109467571Y-120914571D01*
X109467571Y-120914571D02*
X109619952Y-120828857D01*
X109619952Y-120828857D02*
X109772333Y-120828857D01*
X109772333Y-120828857D02*
X109924714Y-120914571D01*
X109924714Y-120914571D02*
X110000904Y-121000286D01*
X110000904Y-121000286D02*
X110077095Y-121171714D01*
X110077095Y-121171714D02*
X110077095Y-121771714D01*
X109315190Y-120143143D02*
X109315190Y-119028857D01*
X109315190Y-119028857D02*
X109924714Y-119628857D01*
X109924714Y-119628857D02*
X109924714Y-119371714D01*
X109924714Y-119371714D02*
X110000904Y-119200286D01*
X110000904Y-119200286D02*
X110077095Y-119114571D01*
X110077095Y-119114571D02*
X110229476Y-119028857D01*
X110229476Y-119028857D02*
X110610428Y-119028857D01*
X110610428Y-119028857D02*
X110762809Y-119114571D01*
X110762809Y-119114571D02*
X110839000Y-119200286D01*
X110839000Y-119200286D02*
X110915190Y-119371714D01*
X110915190Y-119371714D02*
X110915190Y-119886000D01*
X110915190Y-119886000D02*
X110839000Y-120057428D01*
X110839000Y-120057428D02*
X110762809Y-120143143D01*
X110915190Y-117314571D02*
X110915190Y-118343142D01*
X110915190Y-117828857D02*
X109315190Y-117828857D01*
X109315190Y-117828857D02*
X109543761Y-118000285D01*
X109543761Y-118000285D02*
X109696142Y-118171714D01*
X109696142Y-118171714D02*
X109772333Y-118343142D01*
X142208047Y-45782856D02*
X142208047Y-44925714D01*
X142665190Y-45954285D02*
X141065190Y-45354285D01*
X141065190Y-45354285D02*
X142665190Y-44754285D01*
X141065190Y-43811428D02*
X141065190Y-43639999D01*
X141065190Y-43639999D02*
X141141380Y-43468571D01*
X141141380Y-43468571D02*
X141217571Y-43382857D01*
X141217571Y-43382857D02*
X141369952Y-43297142D01*
X141369952Y-43297142D02*
X141674714Y-43211428D01*
X141674714Y-43211428D02*
X142055666Y-43211428D01*
X142055666Y-43211428D02*
X142360428Y-43297142D01*
X142360428Y-43297142D02*
X142512809Y-43382857D01*
X142512809Y-43382857D02*
X142589000Y-43468571D01*
X142589000Y-43468571D02*
X142665190Y-43639999D01*
X142665190Y-43639999D02*
X142665190Y-43811428D01*
X142665190Y-43811428D02*
X142589000Y-43982857D01*
X142589000Y-43982857D02*
X142512809Y-44068571D01*
X142512809Y-44068571D02*
X142360428Y-44154285D01*
X142360428Y-44154285D02*
X142055666Y-44239999D01*
X142055666Y-44239999D02*
X141674714Y-44239999D01*
X141674714Y-44239999D02*
X141369952Y-44154285D01*
X141369952Y-44154285D02*
X141217571Y-44068571D01*
X141217571Y-44068571D02*
X141141380Y-43982857D01*
X141141380Y-43982857D02*
X141065190Y-43811428D01*
X142665190Y-41497142D02*
X142665190Y-42525713D01*
X142665190Y-42011428D02*
X141065190Y-42011428D01*
X141065190Y-42011428D02*
X141293761Y-42182856D01*
X141293761Y-42182856D02*
X141446142Y-42354285D01*
X141446142Y-42354285D02*
X141522333Y-42525713D01*
X110077095Y-45225714D02*
X110153285Y-44968571D01*
X110153285Y-44968571D02*
X110229476Y-44882857D01*
X110229476Y-44882857D02*
X110381857Y-44797143D01*
X110381857Y-44797143D02*
X110610428Y-44797143D01*
X110610428Y-44797143D02*
X110762809Y-44882857D01*
X110762809Y-44882857D02*
X110839000Y-44968571D01*
X110839000Y-44968571D02*
X110915190Y-45140000D01*
X110915190Y-45140000D02*
X110915190Y-45825714D01*
X110915190Y-45825714D02*
X109315190Y-45825714D01*
X109315190Y-45825714D02*
X109315190Y-45225714D01*
X109315190Y-45225714D02*
X109391380Y-45054286D01*
X109391380Y-45054286D02*
X109467571Y-44968571D01*
X109467571Y-44968571D02*
X109619952Y-44882857D01*
X109619952Y-44882857D02*
X109772333Y-44882857D01*
X109772333Y-44882857D02*
X109924714Y-44968571D01*
X109924714Y-44968571D02*
X110000904Y-45054286D01*
X110000904Y-45054286D02*
X110077095Y-45225714D01*
X110077095Y-45225714D02*
X110077095Y-45825714D01*
X109315190Y-43682857D02*
X109315190Y-43511428D01*
X109315190Y-43511428D02*
X109391380Y-43340000D01*
X109391380Y-43340000D02*
X109467571Y-43254286D01*
X109467571Y-43254286D02*
X109619952Y-43168571D01*
X109619952Y-43168571D02*
X109924714Y-43082857D01*
X109924714Y-43082857D02*
X110305666Y-43082857D01*
X110305666Y-43082857D02*
X110610428Y-43168571D01*
X110610428Y-43168571D02*
X110762809Y-43254286D01*
X110762809Y-43254286D02*
X110839000Y-43340000D01*
X110839000Y-43340000D02*
X110915190Y-43511428D01*
X110915190Y-43511428D02*
X110915190Y-43682857D01*
X110915190Y-43682857D02*
X110839000Y-43854286D01*
X110839000Y-43854286D02*
X110762809Y-43940000D01*
X110762809Y-43940000D02*
X110610428Y-44025714D01*
X110610428Y-44025714D02*
X110305666Y-44111428D01*
X110305666Y-44111428D02*
X109924714Y-44111428D01*
X109924714Y-44111428D02*
X109619952Y-44025714D01*
X109619952Y-44025714D02*
X109467571Y-43940000D01*
X109467571Y-43940000D02*
X109391380Y-43854286D01*
X109391380Y-43854286D02*
X109315190Y-43682857D01*
X110915190Y-41368571D02*
X110915190Y-42397142D01*
X110915190Y-41882857D02*
X109315190Y-41882857D01*
X109315190Y-41882857D02*
X109543761Y-42054285D01*
X109543761Y-42054285D02*
X109696142Y-42225714D01*
X109696142Y-42225714D02*
X109772333Y-42397142D01*
X162782047Y-121982856D02*
X162782047Y-121125714D01*
X163239190Y-122154285D02*
X161639190Y-121554285D01*
X161639190Y-121554285D02*
X163239190Y-120954285D01*
X161639190Y-120525714D02*
X161639190Y-119411428D01*
X161639190Y-119411428D02*
X162248714Y-120011428D01*
X162248714Y-120011428D02*
X162248714Y-119754285D01*
X162248714Y-119754285D02*
X162324904Y-119582857D01*
X162324904Y-119582857D02*
X162401095Y-119497142D01*
X162401095Y-119497142D02*
X162553476Y-119411428D01*
X162553476Y-119411428D02*
X162934428Y-119411428D01*
X162934428Y-119411428D02*
X163086809Y-119497142D01*
X163086809Y-119497142D02*
X163163000Y-119582857D01*
X163163000Y-119582857D02*
X163239190Y-119754285D01*
X163239190Y-119754285D02*
X163239190Y-120268571D01*
X163239190Y-120268571D02*
X163163000Y-120439999D01*
X163163000Y-120439999D02*
X163086809Y-120525714D01*
X163239190Y-117697142D02*
X163239190Y-118725713D01*
X163239190Y-118211428D02*
X161639190Y-118211428D01*
X161639190Y-118211428D02*
X161867761Y-118382856D01*
X161867761Y-118382856D02*
X162020142Y-118554285D01*
X162020142Y-118554285D02*
X162096333Y-118725713D01*
X69437095Y-120917714D02*
X69513285Y-120660571D01*
X69513285Y-120660571D02*
X69589476Y-120574857D01*
X69589476Y-120574857D02*
X69741857Y-120489143D01*
X69741857Y-120489143D02*
X69970428Y-120489143D01*
X69970428Y-120489143D02*
X70122809Y-120574857D01*
X70122809Y-120574857D02*
X70199000Y-120660571D01*
X70199000Y-120660571D02*
X70275190Y-120832000D01*
X70275190Y-120832000D02*
X70275190Y-121517714D01*
X70275190Y-121517714D02*
X68675190Y-121517714D01*
X68675190Y-121517714D02*
X68675190Y-120917714D01*
X68675190Y-120917714D02*
X68751380Y-120746286D01*
X68751380Y-120746286D02*
X68827571Y-120660571D01*
X68827571Y-120660571D02*
X68979952Y-120574857D01*
X68979952Y-120574857D02*
X69132333Y-120574857D01*
X69132333Y-120574857D02*
X69284714Y-120660571D01*
X69284714Y-120660571D02*
X69360904Y-120746286D01*
X69360904Y-120746286D02*
X69437095Y-120917714D01*
X69437095Y-120917714D02*
X69437095Y-121517714D01*
X68675190Y-119889143D02*
X68675190Y-118774857D01*
X68675190Y-118774857D02*
X69284714Y-119374857D01*
X69284714Y-119374857D02*
X69284714Y-119117714D01*
X69284714Y-119117714D02*
X69360904Y-118946286D01*
X69360904Y-118946286D02*
X69437095Y-118860571D01*
X69437095Y-118860571D02*
X69589476Y-118774857D01*
X69589476Y-118774857D02*
X69970428Y-118774857D01*
X69970428Y-118774857D02*
X70122809Y-118860571D01*
X70122809Y-118860571D02*
X70199000Y-118946286D01*
X70199000Y-118946286D02*
X70275190Y-119117714D01*
X70275190Y-119117714D02*
X70275190Y-119632000D01*
X70275190Y-119632000D02*
X70199000Y-119803428D01*
X70199000Y-119803428D02*
X70122809Y-119889143D01*
X70275190Y-117060571D02*
X70275190Y-118089142D01*
X70275190Y-117574857D02*
X68675190Y-117574857D01*
X68675190Y-117574857D02*
X68903761Y-117746285D01*
X68903761Y-117746285D02*
X69056142Y-117917714D01*
X69056142Y-117917714D02*
X69132333Y-118089142D01*
X101568047Y-121728856D02*
X101568047Y-120871714D01*
X102025190Y-121900285D02*
X100425190Y-121300285D01*
X100425190Y-121300285D02*
X102025190Y-120700285D01*
X100425190Y-120271714D02*
X100425190Y-119157428D01*
X100425190Y-119157428D02*
X101034714Y-119757428D01*
X101034714Y-119757428D02*
X101034714Y-119500285D01*
X101034714Y-119500285D02*
X101110904Y-119328857D01*
X101110904Y-119328857D02*
X101187095Y-119243142D01*
X101187095Y-119243142D02*
X101339476Y-119157428D01*
X101339476Y-119157428D02*
X101720428Y-119157428D01*
X101720428Y-119157428D02*
X101872809Y-119243142D01*
X101872809Y-119243142D02*
X101949000Y-119328857D01*
X101949000Y-119328857D02*
X102025190Y-119500285D01*
X102025190Y-119500285D02*
X102025190Y-120014571D01*
X102025190Y-120014571D02*
X101949000Y-120185999D01*
X101949000Y-120185999D02*
X101872809Y-120271714D01*
X102025190Y-117443142D02*
X102025190Y-118471713D01*
X102025190Y-117957428D02*
X100425190Y-117957428D01*
X100425190Y-117957428D02*
X100653761Y-118128856D01*
X100653761Y-118128856D02*
X100806142Y-118300285D01*
X100806142Y-118300285D02*
X100882333Y-118471713D01*
D11*
X75231482Y-22734057D02*
X73517196Y-22734057D01*
X74374339Y-22734057D02*
X74374339Y-19734057D01*
X74374339Y-19734057D02*
X74088625Y-20162628D01*
X74088625Y-20162628D02*
X73802910Y-20448342D01*
X73802910Y-20448342D02*
X73517196Y-20591200D01*
X78088625Y-22734057D02*
X76374339Y-22734057D01*
X77231482Y-22734057D02*
X77231482Y-19734057D01*
X77231482Y-19734057D02*
X76945768Y-20162628D01*
X76945768Y-20162628D02*
X76660053Y-20448342D01*
X76660053Y-20448342D02*
X76374339Y-20591200D01*
X79088625Y-19734057D02*
X80945768Y-19734057D01*
X80945768Y-19734057D02*
X79945768Y-20876914D01*
X79945768Y-20876914D02*
X80374339Y-20876914D01*
X80374339Y-20876914D02*
X80660054Y-21019771D01*
X80660054Y-21019771D02*
X80802911Y-21162628D01*
X80802911Y-21162628D02*
X80945768Y-21448342D01*
X80945768Y-21448342D02*
X80945768Y-22162628D01*
X80945768Y-22162628D02*
X80802911Y-22448342D01*
X80802911Y-22448342D02*
X80660054Y-22591200D01*
X80660054Y-22591200D02*
X80374339Y-22734057D01*
X80374339Y-22734057D02*
X79517196Y-22734057D01*
X79517196Y-22734057D02*
X79231482Y-22591200D01*
X79231482Y-22591200D02*
X79088625Y-22448342D01*
X82802911Y-19734057D02*
X83088625Y-19734057D01*
X83088625Y-19734057D02*
X83374339Y-19876914D01*
X83374339Y-19876914D02*
X83517197Y-20019771D01*
X83517197Y-20019771D02*
X83660054Y-20305485D01*
X83660054Y-20305485D02*
X83802911Y-20876914D01*
X83802911Y-20876914D02*
X83802911Y-21591200D01*
X83802911Y-21591200D02*
X83660054Y-22162628D01*
X83660054Y-22162628D02*
X83517197Y-22448342D01*
X83517197Y-22448342D02*
X83374339Y-22591200D01*
X83374339Y-22591200D02*
X83088625Y-22734057D01*
X83088625Y-22734057D02*
X82802911Y-22734057D01*
X82802911Y-22734057D02*
X82517197Y-22591200D01*
X82517197Y-22591200D02*
X82374339Y-22448342D01*
X82374339Y-22448342D02*
X82231482Y-22162628D01*
X82231482Y-22162628D02*
X82088625Y-21591200D01*
X82088625Y-21591200D02*
X82088625Y-20876914D01*
X82088625Y-20876914D02*
X82231482Y-20305485D01*
X82231482Y-20305485D02*
X82374339Y-20019771D01*
X82374339Y-20019771D02*
X82517197Y-19876914D01*
X82517197Y-19876914D02*
X82802911Y-19734057D01*
X86374340Y-19734057D02*
X85802911Y-19734057D01*
X85802911Y-19734057D02*
X85517197Y-19876914D01*
X85517197Y-19876914D02*
X85374340Y-20019771D01*
X85374340Y-20019771D02*
X85088625Y-20448342D01*
X85088625Y-20448342D02*
X84945768Y-21019771D01*
X84945768Y-21019771D02*
X84945768Y-22162628D01*
X84945768Y-22162628D02*
X85088625Y-22448342D01*
X85088625Y-22448342D02*
X85231482Y-22591200D01*
X85231482Y-22591200D02*
X85517197Y-22734057D01*
X85517197Y-22734057D02*
X86088625Y-22734057D01*
X86088625Y-22734057D02*
X86374340Y-22591200D01*
X86374340Y-22591200D02*
X86517197Y-22448342D01*
X86517197Y-22448342D02*
X86660054Y-22162628D01*
X86660054Y-22162628D02*
X86660054Y-21448342D01*
X86660054Y-21448342D02*
X86517197Y-21162628D01*
X86517197Y-21162628D02*
X86374340Y-21019771D01*
X86374340Y-21019771D02*
X86088625Y-20876914D01*
X86088625Y-20876914D02*
X85517197Y-20876914D01*
X85517197Y-20876914D02*
X85231482Y-21019771D01*
X85231482Y-21019771D02*
X85088625Y-21162628D01*
X85088625Y-21162628D02*
X84945768Y-21448342D01*
X88517197Y-19734057D02*
X88802911Y-19734057D01*
X88802911Y-19734057D02*
X89088625Y-19876914D01*
X89088625Y-19876914D02*
X89231483Y-20019771D01*
X89231483Y-20019771D02*
X89374340Y-20305485D01*
X89374340Y-20305485D02*
X89517197Y-20876914D01*
X89517197Y-20876914D02*
X89517197Y-21591200D01*
X89517197Y-21591200D02*
X89374340Y-22162628D01*
X89374340Y-22162628D02*
X89231483Y-22448342D01*
X89231483Y-22448342D02*
X89088625Y-22591200D01*
X89088625Y-22591200D02*
X88802911Y-22734057D01*
X88802911Y-22734057D02*
X88517197Y-22734057D01*
X88517197Y-22734057D02*
X88231483Y-22591200D01*
X88231483Y-22591200D02*
X88088625Y-22448342D01*
X88088625Y-22448342D02*
X87945768Y-22162628D01*
X87945768Y-22162628D02*
X87802911Y-21591200D01*
X87802911Y-21591200D02*
X87802911Y-20876914D01*
X87802911Y-20876914D02*
X87945768Y-20305485D01*
X87945768Y-20305485D02*
X88088625Y-20019771D01*
X88088625Y-20019771D02*
X88231483Y-19876914D01*
X88231483Y-19876914D02*
X88517197Y-19734057D01*
X91374340Y-19734057D02*
X91660054Y-19734057D01*
X91660054Y-19734057D02*
X91945768Y-19876914D01*
X91945768Y-19876914D02*
X92088626Y-20019771D01*
X92088626Y-20019771D02*
X92231483Y-20305485D01*
X92231483Y-20305485D02*
X92374340Y-20876914D01*
X92374340Y-20876914D02*
X92374340Y-21591200D01*
X92374340Y-21591200D02*
X92231483Y-22162628D01*
X92231483Y-22162628D02*
X92088626Y-22448342D01*
X92088626Y-22448342D02*
X91945768Y-22591200D01*
X91945768Y-22591200D02*
X91660054Y-22734057D01*
X91660054Y-22734057D02*
X91374340Y-22734057D01*
X91374340Y-22734057D02*
X91088626Y-22591200D01*
X91088626Y-22591200D02*
X90945768Y-22448342D01*
X90945768Y-22448342D02*
X90802911Y-22162628D01*
X90802911Y-22162628D02*
X90660054Y-21591200D01*
X90660054Y-21591200D02*
X90660054Y-20876914D01*
X90660054Y-20876914D02*
X90802911Y-20305485D01*
X90802911Y-20305485D02*
X90945768Y-20019771D01*
X90945768Y-20019771D02*
X91088626Y-19876914D01*
X91088626Y-19876914D02*
X91374340Y-19734057D01*
X94517197Y-23876914D02*
X94374340Y-23734057D01*
X94374340Y-23734057D02*
X94088626Y-23305485D01*
X94088626Y-23305485D02*
X93945769Y-23019771D01*
X93945769Y-23019771D02*
X93802911Y-22591200D01*
X93802911Y-22591200D02*
X93660054Y-21876914D01*
X93660054Y-21876914D02*
X93660054Y-21305485D01*
X93660054Y-21305485D02*
X93802911Y-20591200D01*
X93802911Y-20591200D02*
X93945769Y-20162628D01*
X93945769Y-20162628D02*
X94088626Y-19876914D01*
X94088626Y-19876914D02*
X94374340Y-19448342D01*
X94374340Y-19448342D02*
X94517197Y-19305485D01*
X95231483Y-19734057D02*
X96945769Y-19734057D01*
X96088626Y-22734057D02*
X96088626Y-19734057D01*
X99660054Y-22734057D02*
X98660054Y-21305485D01*
X97945768Y-22734057D02*
X97945768Y-19734057D01*
X97945768Y-19734057D02*
X99088625Y-19734057D01*
X99088625Y-19734057D02*
X99374340Y-19876914D01*
X99374340Y-19876914D02*
X99517197Y-20019771D01*
X99517197Y-20019771D02*
X99660054Y-20305485D01*
X99660054Y-20305485D02*
X99660054Y-20734057D01*
X99660054Y-20734057D02*
X99517197Y-21019771D01*
X99517197Y-21019771D02*
X99374340Y-21162628D01*
X99374340Y-21162628D02*
X99088625Y-21305485D01*
X99088625Y-21305485D02*
X97945768Y-21305485D01*
X100802911Y-22591200D02*
X101231483Y-22734057D01*
X101231483Y-22734057D02*
X101945768Y-22734057D01*
X101945768Y-22734057D02*
X102231483Y-22591200D01*
X102231483Y-22591200D02*
X102374340Y-22448342D01*
X102374340Y-22448342D02*
X102517197Y-22162628D01*
X102517197Y-22162628D02*
X102517197Y-21876914D01*
X102517197Y-21876914D02*
X102374340Y-21591200D01*
X102374340Y-21591200D02*
X102231483Y-21448342D01*
X102231483Y-21448342D02*
X101945768Y-21305485D01*
X101945768Y-21305485D02*
X101374340Y-21162628D01*
X101374340Y-21162628D02*
X101088625Y-21019771D01*
X101088625Y-21019771D02*
X100945768Y-20876914D01*
X100945768Y-20876914D02*
X100802911Y-20591200D01*
X100802911Y-20591200D02*
X100802911Y-20305485D01*
X100802911Y-20305485D02*
X100945768Y-20019771D01*
X100945768Y-20019771D02*
X101088625Y-19876914D01*
X101088625Y-19876914D02*
X101374340Y-19734057D01*
X101374340Y-19734057D02*
X102088625Y-19734057D01*
X102088625Y-19734057D02*
X102517197Y-19876914D01*
X103517197Y-23876914D02*
X103660054Y-23734057D01*
X103660054Y-23734057D02*
X103945768Y-23305485D01*
X103945768Y-23305485D02*
X104088626Y-23019771D01*
X104088626Y-23019771D02*
X104231483Y-22591200D01*
X104231483Y-22591200D02*
X104374340Y-21876914D01*
X104374340Y-21876914D02*
X104374340Y-21305485D01*
X104374340Y-21305485D02*
X104231483Y-20591200D01*
X104231483Y-20591200D02*
X104088626Y-20162628D01*
X104088626Y-20162628D02*
X103945768Y-19876914D01*
X103945768Y-19876914D02*
X103660054Y-19448342D01*
X103660054Y-19448342D02*
X103517197Y-19305485D01*
D12*
X150971095Y-45225714D02*
X151047285Y-44968571D01*
X151047285Y-44968571D02*
X151123476Y-44882857D01*
X151123476Y-44882857D02*
X151275857Y-44797143D01*
X151275857Y-44797143D02*
X151504428Y-44797143D01*
X151504428Y-44797143D02*
X151656809Y-44882857D01*
X151656809Y-44882857D02*
X151733000Y-44968571D01*
X151733000Y-44968571D02*
X151809190Y-45140000D01*
X151809190Y-45140000D02*
X151809190Y-45825714D01*
X151809190Y-45825714D02*
X150209190Y-45825714D01*
X150209190Y-45825714D02*
X150209190Y-45225714D01*
X150209190Y-45225714D02*
X150285380Y-45054286D01*
X150285380Y-45054286D02*
X150361571Y-44968571D01*
X150361571Y-44968571D02*
X150513952Y-44882857D01*
X150513952Y-44882857D02*
X150666333Y-44882857D01*
X150666333Y-44882857D02*
X150818714Y-44968571D01*
X150818714Y-44968571D02*
X150894904Y-45054286D01*
X150894904Y-45054286D02*
X150971095Y-45225714D01*
X150971095Y-45225714D02*
X150971095Y-45825714D01*
X150209190Y-43682857D02*
X150209190Y-43511428D01*
X150209190Y-43511428D02*
X150285380Y-43340000D01*
X150285380Y-43340000D02*
X150361571Y-43254286D01*
X150361571Y-43254286D02*
X150513952Y-43168571D01*
X150513952Y-43168571D02*
X150818714Y-43082857D01*
X150818714Y-43082857D02*
X151199666Y-43082857D01*
X151199666Y-43082857D02*
X151504428Y-43168571D01*
X151504428Y-43168571D02*
X151656809Y-43254286D01*
X151656809Y-43254286D02*
X151733000Y-43340000D01*
X151733000Y-43340000D02*
X151809190Y-43511428D01*
X151809190Y-43511428D02*
X151809190Y-43682857D01*
X151809190Y-43682857D02*
X151733000Y-43854286D01*
X151733000Y-43854286D02*
X151656809Y-43940000D01*
X151656809Y-43940000D02*
X151504428Y-44025714D01*
X151504428Y-44025714D02*
X151199666Y-44111428D01*
X151199666Y-44111428D02*
X150818714Y-44111428D01*
X150818714Y-44111428D02*
X150513952Y-44025714D01*
X150513952Y-44025714D02*
X150361571Y-43940000D01*
X150361571Y-43940000D02*
X150285380Y-43854286D01*
X150285380Y-43854286D02*
X150209190Y-43682857D01*
X151809190Y-41368571D02*
X151809190Y-42397142D01*
X151809190Y-41882857D02*
X150209190Y-41882857D01*
X150209190Y-41882857D02*
X150437761Y-42054285D01*
X150437761Y-42054285D02*
X150590142Y-42225714D01*
X150590142Y-42225714D02*
X150666333Y-42397142D01*
X163036047Y-45782856D02*
X163036047Y-44925714D01*
X163493190Y-45954285D02*
X161893190Y-45354285D01*
X161893190Y-45354285D02*
X163493190Y-44754285D01*
X161893190Y-43811428D02*
X161893190Y-43639999D01*
X161893190Y-43639999D02*
X161969380Y-43468571D01*
X161969380Y-43468571D02*
X162045571Y-43382857D01*
X162045571Y-43382857D02*
X162197952Y-43297142D01*
X162197952Y-43297142D02*
X162502714Y-43211428D01*
X162502714Y-43211428D02*
X162883666Y-43211428D01*
X162883666Y-43211428D02*
X163188428Y-43297142D01*
X163188428Y-43297142D02*
X163340809Y-43382857D01*
X163340809Y-43382857D02*
X163417000Y-43468571D01*
X163417000Y-43468571D02*
X163493190Y-43639999D01*
X163493190Y-43639999D02*
X163493190Y-43811428D01*
X163493190Y-43811428D02*
X163417000Y-43982857D01*
X163417000Y-43982857D02*
X163340809Y-44068571D01*
X163340809Y-44068571D02*
X163188428Y-44154285D01*
X163188428Y-44154285D02*
X162883666Y-44239999D01*
X162883666Y-44239999D02*
X162502714Y-44239999D01*
X162502714Y-44239999D02*
X162197952Y-44154285D01*
X162197952Y-44154285D02*
X162045571Y-44068571D01*
X162045571Y-44068571D02*
X161969380Y-43982857D01*
X161969380Y-43982857D02*
X161893190Y-43811428D01*
X163493190Y-41497142D02*
X163493190Y-42525713D01*
X163493190Y-42011428D02*
X161893190Y-42011428D01*
X161893190Y-42011428D02*
X162121761Y-42182856D01*
X162121761Y-42182856D02*
X162274142Y-42354285D01*
X162274142Y-42354285D02*
X162350333Y-42525713D01*
X142462047Y-121728856D02*
X142462047Y-120871714D01*
X142919190Y-121900285D02*
X141319190Y-121300285D01*
X141319190Y-121300285D02*
X142919190Y-120700285D01*
X141319190Y-120271714D02*
X141319190Y-119157428D01*
X141319190Y-119157428D02*
X141928714Y-119757428D01*
X141928714Y-119757428D02*
X141928714Y-119500285D01*
X141928714Y-119500285D02*
X142004904Y-119328857D01*
X142004904Y-119328857D02*
X142081095Y-119243142D01*
X142081095Y-119243142D02*
X142233476Y-119157428D01*
X142233476Y-119157428D02*
X142614428Y-119157428D01*
X142614428Y-119157428D02*
X142766809Y-119243142D01*
X142766809Y-119243142D02*
X142843000Y-119328857D01*
X142843000Y-119328857D02*
X142919190Y-119500285D01*
X142919190Y-119500285D02*
X142919190Y-120014571D01*
X142919190Y-120014571D02*
X142843000Y-120185999D01*
X142843000Y-120185999D02*
X142766809Y-120271714D01*
X142919190Y-117443142D02*
X142919190Y-118471713D01*
X142919190Y-117957428D02*
X141319190Y-117957428D01*
X141319190Y-117957428D02*
X141547761Y-118128856D01*
X141547761Y-118128856D02*
X141700142Y-118300285D01*
X141700142Y-118300285D02*
X141776333Y-118471713D01*
X122142047Y-45782856D02*
X122142047Y-44925714D01*
X122599190Y-45954285D02*
X120999190Y-45354285D01*
X120999190Y-45354285D02*
X122599190Y-44754285D01*
X120999190Y-43811428D02*
X120999190Y-43639999D01*
X120999190Y-43639999D02*
X121075380Y-43468571D01*
X121075380Y-43468571D02*
X121151571Y-43382857D01*
X121151571Y-43382857D02*
X121303952Y-43297142D01*
X121303952Y-43297142D02*
X121608714Y-43211428D01*
X121608714Y-43211428D02*
X121989666Y-43211428D01*
X121989666Y-43211428D02*
X122294428Y-43297142D01*
X122294428Y-43297142D02*
X122446809Y-43382857D01*
X122446809Y-43382857D02*
X122523000Y-43468571D01*
X122523000Y-43468571D02*
X122599190Y-43639999D01*
X122599190Y-43639999D02*
X122599190Y-43811428D01*
X122599190Y-43811428D02*
X122523000Y-43982857D01*
X122523000Y-43982857D02*
X122446809Y-44068571D01*
X122446809Y-44068571D02*
X122294428Y-44154285D01*
X122294428Y-44154285D02*
X121989666Y-44239999D01*
X121989666Y-44239999D02*
X121608714Y-44239999D01*
X121608714Y-44239999D02*
X121303952Y-44154285D01*
X121303952Y-44154285D02*
X121151571Y-44068571D01*
X121151571Y-44068571D02*
X121075380Y-43982857D01*
X121075380Y-43982857D02*
X120999190Y-43811428D01*
X122599190Y-41497142D02*
X122599190Y-42525713D01*
X122599190Y-42011428D02*
X120999190Y-42011428D01*
X120999190Y-42011428D02*
X121227761Y-42182856D01*
X121227761Y-42182856D02*
X121380142Y-42354285D01*
X121380142Y-42354285D02*
X121456333Y-42525713D01*
X182848047Y-121220856D02*
X182848047Y-120363714D01*
X183305190Y-121392285D02*
X181705190Y-120792285D01*
X181705190Y-120792285D02*
X183305190Y-120192285D01*
X181705190Y-119763714D02*
X181705190Y-118649428D01*
X181705190Y-118649428D02*
X182314714Y-119249428D01*
X182314714Y-119249428D02*
X182314714Y-118992285D01*
X182314714Y-118992285D02*
X182390904Y-118820857D01*
X182390904Y-118820857D02*
X182467095Y-118735142D01*
X182467095Y-118735142D02*
X182619476Y-118649428D01*
X182619476Y-118649428D02*
X183000428Y-118649428D01*
X183000428Y-118649428D02*
X183152809Y-118735142D01*
X183152809Y-118735142D02*
X183229000Y-118820857D01*
X183229000Y-118820857D02*
X183305190Y-118992285D01*
X183305190Y-118992285D02*
X183305190Y-119506571D01*
X183305190Y-119506571D02*
X183229000Y-119677999D01*
X183229000Y-119677999D02*
X183152809Y-119763714D01*
X183305190Y-116935142D02*
X183305190Y-117963713D01*
X183305190Y-117449428D02*
X181705190Y-117449428D01*
X181705190Y-117449428D02*
X181933761Y-117620856D01*
X181933761Y-117620856D02*
X182086142Y-117792285D01*
X182086142Y-117792285D02*
X182162333Y-117963713D01*
D10*
X219490779Y-33222866D02*
X220252684Y-33222866D01*
X219871731Y-33603819D02*
X219871731Y-32841914D01*
X233460779Y-89864866D02*
X234222684Y-89864866D01*
X233841731Y-90245819D02*
X233841731Y-89483914D01*
D12*
%TO.C,C9*%
X145955999Y-51326809D02*
X145870285Y-51403000D01*
X145870285Y-51403000D02*
X145613142Y-51479190D01*
X145613142Y-51479190D02*
X145441714Y-51479190D01*
X145441714Y-51479190D02*
X145184571Y-51403000D01*
X145184571Y-51403000D02*
X145013142Y-51250619D01*
X145013142Y-51250619D02*
X144927428Y-51098238D01*
X144927428Y-51098238D02*
X144841714Y-50793476D01*
X144841714Y-50793476D02*
X144841714Y-50564904D01*
X144841714Y-50564904D02*
X144927428Y-50260142D01*
X144927428Y-50260142D02*
X145013142Y-50107761D01*
X145013142Y-50107761D02*
X145184571Y-49955380D01*
X145184571Y-49955380D02*
X145441714Y-49879190D01*
X145441714Y-49879190D02*
X145613142Y-49879190D01*
X145613142Y-49879190D02*
X145870285Y-49955380D01*
X145870285Y-49955380D02*
X145955999Y-50031571D01*
X146813142Y-51479190D02*
X147155999Y-51479190D01*
X147155999Y-51479190D02*
X147327428Y-51403000D01*
X147327428Y-51403000D02*
X147413142Y-51326809D01*
X147413142Y-51326809D02*
X147584571Y-51098238D01*
X147584571Y-51098238D02*
X147670285Y-50793476D01*
X147670285Y-50793476D02*
X147670285Y-50183952D01*
X147670285Y-50183952D02*
X147584571Y-50031571D01*
X147584571Y-50031571D02*
X147498857Y-49955380D01*
X147498857Y-49955380D02*
X147327428Y-49879190D01*
X147327428Y-49879190D02*
X146984571Y-49879190D01*
X146984571Y-49879190D02*
X146813142Y-49955380D01*
X146813142Y-49955380D02*
X146727428Y-50031571D01*
X146727428Y-50031571D02*
X146641714Y-50183952D01*
X146641714Y-50183952D02*
X146641714Y-50564904D01*
X146641714Y-50564904D02*
X146727428Y-50717285D01*
X146727428Y-50717285D02*
X146813142Y-50793476D01*
X146813142Y-50793476D02*
X146984571Y-50869666D01*
X146984571Y-50869666D02*
X147327428Y-50869666D01*
X147327428Y-50869666D02*
X147498857Y-50793476D01*
X147498857Y-50793476D02*
X147584571Y-50717285D01*
X147584571Y-50717285D02*
X147670285Y-50564904D01*
%TO.C,J7*%
X156070000Y-40437190D02*
X156070000Y-41580047D01*
X156070000Y-41580047D02*
X155984285Y-41808619D01*
X155984285Y-41808619D02*
X155812857Y-41961000D01*
X155812857Y-41961000D02*
X155555714Y-42037190D01*
X155555714Y-42037190D02*
X155384285Y-42037190D01*
X156755714Y-40437190D02*
X157955714Y-40437190D01*
X157955714Y-40437190D02*
X157184286Y-42037190D01*
%TO.C,J5*%
X115430000Y-40437190D02*
X115430000Y-41580047D01*
X115430000Y-41580047D02*
X115344285Y-41808619D01*
X115344285Y-41808619D02*
X115172857Y-41961000D01*
X115172857Y-41961000D02*
X114915714Y-42037190D01*
X114915714Y-42037190D02*
X114744285Y-42037190D01*
X117144286Y-40437190D02*
X116287143Y-40437190D01*
X116287143Y-40437190D02*
X116201429Y-41199095D01*
X116201429Y-41199095D02*
X116287143Y-41122904D01*
X116287143Y-41122904D02*
X116458572Y-41046714D01*
X116458572Y-41046714D02*
X116887143Y-41046714D01*
X116887143Y-41046714D02*
X117058572Y-41122904D01*
X117058572Y-41122904D02*
X117144286Y-41199095D01*
X117144286Y-41199095D02*
X117230000Y-41351476D01*
X117230000Y-41351476D02*
X117230000Y-41732428D01*
X117230000Y-41732428D02*
X117144286Y-41884809D01*
X117144286Y-41884809D02*
X117058572Y-41961000D01*
X117058572Y-41961000D02*
X116887143Y-42037190D01*
X116887143Y-42037190D02*
X116458572Y-42037190D01*
X116458572Y-42037190D02*
X116287143Y-41961000D01*
X116287143Y-41961000D02*
X116201429Y-41884809D01*
%TO.C,C12*%
X145098856Y-24604809D02*
X145013142Y-24681000D01*
X145013142Y-24681000D02*
X144755999Y-24757190D01*
X144755999Y-24757190D02*
X144584571Y-24757190D01*
X144584571Y-24757190D02*
X144327428Y-24681000D01*
X144327428Y-24681000D02*
X144155999Y-24528619D01*
X144155999Y-24528619D02*
X144070285Y-24376238D01*
X144070285Y-24376238D02*
X143984571Y-24071476D01*
X143984571Y-24071476D02*
X143984571Y-23842904D01*
X143984571Y-23842904D02*
X144070285Y-23538142D01*
X144070285Y-23538142D02*
X144155999Y-23385761D01*
X144155999Y-23385761D02*
X144327428Y-23233380D01*
X144327428Y-23233380D02*
X144584571Y-23157190D01*
X144584571Y-23157190D02*
X144755999Y-23157190D01*
X144755999Y-23157190D02*
X145013142Y-23233380D01*
X145013142Y-23233380D02*
X145098856Y-23309571D01*
X146813142Y-24757190D02*
X145784571Y-24757190D01*
X146298856Y-24757190D02*
X146298856Y-23157190D01*
X146298856Y-23157190D02*
X146127428Y-23385761D01*
X146127428Y-23385761D02*
X145955999Y-23538142D01*
X145955999Y-23538142D02*
X145784571Y-23614333D01*
X147498857Y-23309571D02*
X147584571Y-23233380D01*
X147584571Y-23233380D02*
X147756000Y-23157190D01*
X147756000Y-23157190D02*
X148184571Y-23157190D01*
X148184571Y-23157190D02*
X148356000Y-23233380D01*
X148356000Y-23233380D02*
X148441714Y-23309571D01*
X148441714Y-23309571D02*
X148527428Y-23461952D01*
X148527428Y-23461952D02*
X148527428Y-23614333D01*
X148527428Y-23614333D02*
X148441714Y-23842904D01*
X148441714Y-23842904D02*
X147413142Y-24757190D01*
X147413142Y-24757190D02*
X148527428Y-24757190D01*
%TO.C,C13*%
X188278856Y-86632809D02*
X188193142Y-86709000D01*
X188193142Y-86709000D02*
X187935999Y-86785190D01*
X187935999Y-86785190D02*
X187764571Y-86785190D01*
X187764571Y-86785190D02*
X187507428Y-86709000D01*
X187507428Y-86709000D02*
X187335999Y-86556619D01*
X187335999Y-86556619D02*
X187250285Y-86404238D01*
X187250285Y-86404238D02*
X187164571Y-86099476D01*
X187164571Y-86099476D02*
X187164571Y-85870904D01*
X187164571Y-85870904D02*
X187250285Y-85566142D01*
X187250285Y-85566142D02*
X187335999Y-85413761D01*
X187335999Y-85413761D02*
X187507428Y-85261380D01*
X187507428Y-85261380D02*
X187764571Y-85185190D01*
X187764571Y-85185190D02*
X187935999Y-85185190D01*
X187935999Y-85185190D02*
X188193142Y-85261380D01*
X188193142Y-85261380D02*
X188278856Y-85337571D01*
X189993142Y-86785190D02*
X188964571Y-86785190D01*
X189478856Y-86785190D02*
X189478856Y-85185190D01*
X189478856Y-85185190D02*
X189307428Y-85413761D01*
X189307428Y-85413761D02*
X189135999Y-85566142D01*
X189135999Y-85566142D02*
X188964571Y-85642333D01*
X190593142Y-85185190D02*
X191707428Y-85185190D01*
X191707428Y-85185190D02*
X191107428Y-85794714D01*
X191107428Y-85794714D02*
X191364571Y-85794714D01*
X191364571Y-85794714D02*
X191536000Y-85870904D01*
X191536000Y-85870904D02*
X191621714Y-85947095D01*
X191621714Y-85947095D02*
X191707428Y-86099476D01*
X191707428Y-86099476D02*
X191707428Y-86480428D01*
X191707428Y-86480428D02*
X191621714Y-86632809D01*
X191621714Y-86632809D02*
X191536000Y-86709000D01*
X191536000Y-86709000D02*
X191364571Y-86785190D01*
X191364571Y-86785190D02*
X190850285Y-86785190D01*
X190850285Y-86785190D02*
X190678857Y-86709000D01*
X190678857Y-86709000D02*
X190593142Y-86632809D01*
%TO.C,C5*%
X222409999Y-65804809D02*
X222324285Y-65881000D01*
X222324285Y-65881000D02*
X222067142Y-65957190D01*
X222067142Y-65957190D02*
X221895714Y-65957190D01*
X221895714Y-65957190D02*
X221638571Y-65881000D01*
X221638571Y-65881000D02*
X221467142Y-65728619D01*
X221467142Y-65728619D02*
X221381428Y-65576238D01*
X221381428Y-65576238D02*
X221295714Y-65271476D01*
X221295714Y-65271476D02*
X221295714Y-65042904D01*
X221295714Y-65042904D02*
X221381428Y-64738142D01*
X221381428Y-64738142D02*
X221467142Y-64585761D01*
X221467142Y-64585761D02*
X221638571Y-64433380D01*
X221638571Y-64433380D02*
X221895714Y-64357190D01*
X221895714Y-64357190D02*
X222067142Y-64357190D01*
X222067142Y-64357190D02*
X222324285Y-64433380D01*
X222324285Y-64433380D02*
X222409999Y-64509571D01*
X224038571Y-64357190D02*
X223181428Y-64357190D01*
X223181428Y-64357190D02*
X223095714Y-65119095D01*
X223095714Y-65119095D02*
X223181428Y-65042904D01*
X223181428Y-65042904D02*
X223352857Y-64966714D01*
X223352857Y-64966714D02*
X223781428Y-64966714D01*
X223781428Y-64966714D02*
X223952857Y-65042904D01*
X223952857Y-65042904D02*
X224038571Y-65119095D01*
X224038571Y-65119095D02*
X224124285Y-65271476D01*
X224124285Y-65271476D02*
X224124285Y-65652428D01*
X224124285Y-65652428D02*
X224038571Y-65804809D01*
X224038571Y-65804809D02*
X223952857Y-65881000D01*
X223952857Y-65881000D02*
X223781428Y-65957190D01*
X223781428Y-65957190D02*
X223352857Y-65957190D01*
X223352857Y-65957190D02*
X223181428Y-65881000D01*
X223181428Y-65881000D02*
X223095714Y-65804809D01*
%TO.C,C7*%
X222409999Y-93744809D02*
X222324285Y-93821000D01*
X222324285Y-93821000D02*
X222067142Y-93897190D01*
X222067142Y-93897190D02*
X221895714Y-93897190D01*
X221895714Y-93897190D02*
X221638571Y-93821000D01*
X221638571Y-93821000D02*
X221467142Y-93668619D01*
X221467142Y-93668619D02*
X221381428Y-93516238D01*
X221381428Y-93516238D02*
X221295714Y-93211476D01*
X221295714Y-93211476D02*
X221295714Y-92982904D01*
X221295714Y-92982904D02*
X221381428Y-92678142D01*
X221381428Y-92678142D02*
X221467142Y-92525761D01*
X221467142Y-92525761D02*
X221638571Y-92373380D01*
X221638571Y-92373380D02*
X221895714Y-92297190D01*
X221895714Y-92297190D02*
X222067142Y-92297190D01*
X222067142Y-92297190D02*
X222324285Y-92373380D01*
X222324285Y-92373380D02*
X222409999Y-92449571D01*
X223009999Y-92297190D02*
X224209999Y-92297190D01*
X224209999Y-92297190D02*
X223438571Y-93897190D01*
%TO.C,S1*%
X243901000Y-112399999D02*
X243977190Y-112142857D01*
X243977190Y-112142857D02*
X243977190Y-111714285D01*
X243977190Y-111714285D02*
X243901000Y-111542857D01*
X243901000Y-111542857D02*
X243824809Y-111457142D01*
X243824809Y-111457142D02*
X243672428Y-111371428D01*
X243672428Y-111371428D02*
X243520047Y-111371428D01*
X243520047Y-111371428D02*
X243367666Y-111457142D01*
X243367666Y-111457142D02*
X243291476Y-111542857D01*
X243291476Y-111542857D02*
X243215285Y-111714285D01*
X243215285Y-111714285D02*
X243139095Y-112057142D01*
X243139095Y-112057142D02*
X243062904Y-112228571D01*
X243062904Y-112228571D02*
X242986714Y-112314285D01*
X242986714Y-112314285D02*
X242834333Y-112399999D01*
X242834333Y-112399999D02*
X242681952Y-112399999D01*
X242681952Y-112399999D02*
X242529571Y-112314285D01*
X242529571Y-112314285D02*
X242453380Y-112228571D01*
X242453380Y-112228571D02*
X242377190Y-112057142D01*
X242377190Y-112057142D02*
X242377190Y-111628571D01*
X242377190Y-111628571D02*
X242453380Y-111371428D01*
X243977190Y-110599999D02*
X242377190Y-110599999D01*
X242377190Y-110599999D02*
X242377190Y-109914285D01*
X242377190Y-109914285D02*
X242453380Y-109742856D01*
X242453380Y-109742856D02*
X242529571Y-109657142D01*
X242529571Y-109657142D02*
X242681952Y-109571428D01*
X242681952Y-109571428D02*
X242910523Y-109571428D01*
X242910523Y-109571428D02*
X243062904Y-109657142D01*
X243062904Y-109657142D02*
X243139095Y-109742856D01*
X243139095Y-109742856D02*
X243215285Y-109914285D01*
X243215285Y-109914285D02*
X243215285Y-110599999D01*
X243520047Y-108885713D02*
X243520047Y-108028571D01*
X243977190Y-109057142D02*
X242377190Y-108457142D01*
X242377190Y-108457142D02*
X243977190Y-107857142D01*
X243977190Y-106228571D02*
X243215285Y-106828571D01*
X243977190Y-107257142D02*
X242377190Y-107257142D01*
X242377190Y-107257142D02*
X242377190Y-106571428D01*
X242377190Y-106571428D02*
X242453380Y-106399999D01*
X242453380Y-106399999D02*
X242529571Y-106314285D01*
X242529571Y-106314285D02*
X242681952Y-106228571D01*
X242681952Y-106228571D02*
X242910523Y-106228571D01*
X242910523Y-106228571D02*
X243062904Y-106314285D01*
X243062904Y-106314285D02*
X243139095Y-106399999D01*
X243139095Y-106399999D02*
X243215285Y-106571428D01*
X243215285Y-106571428D02*
X243215285Y-107257142D01*
X243139095Y-105457142D02*
X243139095Y-104857142D01*
X243977190Y-104599999D02*
X243977190Y-105457142D01*
X243977190Y-105457142D02*
X242377190Y-105457142D01*
X242377190Y-105457142D02*
X242377190Y-104599999D01*
%TO.C,J4*%
X95110000Y-40437190D02*
X95110000Y-41580047D01*
X95110000Y-41580047D02*
X95024285Y-41808619D01*
X95024285Y-41808619D02*
X94852857Y-41961000D01*
X94852857Y-41961000D02*
X94595714Y-42037190D01*
X94595714Y-42037190D02*
X94424285Y-42037190D01*
X96738572Y-40970523D02*
X96738572Y-42037190D01*
X96310000Y-40361000D02*
X95881429Y-41503857D01*
X95881429Y-41503857D02*
X96995714Y-41503857D01*
%TO.C,J1*%
X34150000Y-40437190D02*
X34150000Y-41580047D01*
X34150000Y-41580047D02*
X34064285Y-41808619D01*
X34064285Y-41808619D02*
X33892857Y-41961000D01*
X33892857Y-41961000D02*
X33635714Y-42037190D01*
X33635714Y-42037190D02*
X33464285Y-42037190D01*
X35950000Y-42037190D02*
X34921429Y-42037190D01*
X35435714Y-42037190D02*
X35435714Y-40437190D01*
X35435714Y-40437190D02*
X35264286Y-40665761D01*
X35264286Y-40665761D02*
X35092857Y-40818142D01*
X35092857Y-40818142D02*
X34921429Y-40894333D01*
%TO.C,C8*%
X230029999Y-93744809D02*
X229944285Y-93821000D01*
X229944285Y-93821000D02*
X229687142Y-93897190D01*
X229687142Y-93897190D02*
X229515714Y-93897190D01*
X229515714Y-93897190D02*
X229258571Y-93821000D01*
X229258571Y-93821000D02*
X229087142Y-93668619D01*
X229087142Y-93668619D02*
X229001428Y-93516238D01*
X229001428Y-93516238D02*
X228915714Y-93211476D01*
X228915714Y-93211476D02*
X228915714Y-92982904D01*
X228915714Y-92982904D02*
X229001428Y-92678142D01*
X229001428Y-92678142D02*
X229087142Y-92525761D01*
X229087142Y-92525761D02*
X229258571Y-92373380D01*
X229258571Y-92373380D02*
X229515714Y-92297190D01*
X229515714Y-92297190D02*
X229687142Y-92297190D01*
X229687142Y-92297190D02*
X229944285Y-92373380D01*
X229944285Y-92373380D02*
X230029999Y-92449571D01*
X231058571Y-92982904D02*
X230887142Y-92906714D01*
X230887142Y-92906714D02*
X230801428Y-92830523D01*
X230801428Y-92830523D02*
X230715714Y-92678142D01*
X230715714Y-92678142D02*
X230715714Y-92601952D01*
X230715714Y-92601952D02*
X230801428Y-92449571D01*
X230801428Y-92449571D02*
X230887142Y-92373380D01*
X230887142Y-92373380D02*
X231058571Y-92297190D01*
X231058571Y-92297190D02*
X231401428Y-92297190D01*
X231401428Y-92297190D02*
X231572857Y-92373380D01*
X231572857Y-92373380D02*
X231658571Y-92449571D01*
X231658571Y-92449571D02*
X231744285Y-92601952D01*
X231744285Y-92601952D02*
X231744285Y-92678142D01*
X231744285Y-92678142D02*
X231658571Y-92830523D01*
X231658571Y-92830523D02*
X231572857Y-92906714D01*
X231572857Y-92906714D02*
X231401428Y-92982904D01*
X231401428Y-92982904D02*
X231058571Y-92982904D01*
X231058571Y-92982904D02*
X230887142Y-93059095D01*
X230887142Y-93059095D02*
X230801428Y-93135285D01*
X230801428Y-93135285D02*
X230715714Y-93287666D01*
X230715714Y-93287666D02*
X230715714Y-93592428D01*
X230715714Y-93592428D02*
X230801428Y-93744809D01*
X230801428Y-93744809D02*
X230887142Y-93821000D01*
X230887142Y-93821000D02*
X231058571Y-93897190D01*
X231058571Y-93897190D02*
X231401428Y-93897190D01*
X231401428Y-93897190D02*
X231572857Y-93821000D01*
X231572857Y-93821000D02*
X231658571Y-93744809D01*
X231658571Y-93744809D02*
X231744285Y-93592428D01*
X231744285Y-93592428D02*
X231744285Y-93287666D01*
X231744285Y-93287666D02*
X231658571Y-93135285D01*
X231658571Y-93135285D02*
X231572857Y-93059095D01*
X231572857Y-93059095D02*
X231401428Y-92982904D01*
%TO.C,J3*%
X74790000Y-40437190D02*
X74790000Y-41580047D01*
X74790000Y-41580047D02*
X74704285Y-41808619D01*
X74704285Y-41808619D02*
X74532857Y-41961000D01*
X74532857Y-41961000D02*
X74275714Y-42037190D01*
X74275714Y-42037190D02*
X74104285Y-42037190D01*
X75475714Y-40437190D02*
X76590000Y-40437190D01*
X76590000Y-40437190D02*
X75990000Y-41046714D01*
X75990000Y-41046714D02*
X76247143Y-41046714D01*
X76247143Y-41046714D02*
X76418572Y-41122904D01*
X76418572Y-41122904D02*
X76504286Y-41199095D01*
X76504286Y-41199095D02*
X76590000Y-41351476D01*
X76590000Y-41351476D02*
X76590000Y-41732428D01*
X76590000Y-41732428D02*
X76504286Y-41884809D01*
X76504286Y-41884809D02*
X76418572Y-41961000D01*
X76418572Y-41961000D02*
X76247143Y-42037190D01*
X76247143Y-42037190D02*
X75732857Y-42037190D01*
X75732857Y-42037190D02*
X75561429Y-41961000D01*
X75561429Y-41961000D02*
X75475714Y-41884809D01*
%TO.C,S4*%
X213373000Y-150499999D02*
X213449190Y-150242857D01*
X213449190Y-150242857D02*
X213449190Y-149814285D01*
X213449190Y-149814285D02*
X213373000Y-149642857D01*
X213373000Y-149642857D02*
X213296809Y-149557142D01*
X213296809Y-149557142D02*
X213144428Y-149471428D01*
X213144428Y-149471428D02*
X212992047Y-149471428D01*
X212992047Y-149471428D02*
X212839666Y-149557142D01*
X212839666Y-149557142D02*
X212763476Y-149642857D01*
X212763476Y-149642857D02*
X212687285Y-149814285D01*
X212687285Y-149814285D02*
X212611095Y-150157142D01*
X212611095Y-150157142D02*
X212534904Y-150328571D01*
X212534904Y-150328571D02*
X212458714Y-150414285D01*
X212458714Y-150414285D02*
X212306333Y-150499999D01*
X212306333Y-150499999D02*
X212153952Y-150499999D01*
X212153952Y-150499999D02*
X212001571Y-150414285D01*
X212001571Y-150414285D02*
X211925380Y-150328571D01*
X211925380Y-150328571D02*
X211849190Y-150157142D01*
X211849190Y-150157142D02*
X211849190Y-149728571D01*
X211849190Y-149728571D02*
X211925380Y-149471428D01*
X213449190Y-148699999D02*
X211849190Y-148699999D01*
X211849190Y-148699999D02*
X211849190Y-148014285D01*
X211849190Y-148014285D02*
X211925380Y-147842856D01*
X211925380Y-147842856D02*
X212001571Y-147757142D01*
X212001571Y-147757142D02*
X212153952Y-147671428D01*
X212153952Y-147671428D02*
X212382523Y-147671428D01*
X212382523Y-147671428D02*
X212534904Y-147757142D01*
X212534904Y-147757142D02*
X212611095Y-147842856D01*
X212611095Y-147842856D02*
X212687285Y-148014285D01*
X212687285Y-148014285D02*
X212687285Y-148699999D01*
X212992047Y-146985713D02*
X212992047Y-146128571D01*
X213449190Y-147157142D02*
X211849190Y-146557142D01*
X211849190Y-146557142D02*
X213449190Y-145957142D01*
X213449190Y-144328571D02*
X212687285Y-144928571D01*
X213449190Y-145357142D02*
X211849190Y-145357142D01*
X211849190Y-145357142D02*
X211849190Y-144671428D01*
X211849190Y-144671428D02*
X211925380Y-144499999D01*
X211925380Y-144499999D02*
X212001571Y-144414285D01*
X212001571Y-144414285D02*
X212153952Y-144328571D01*
X212153952Y-144328571D02*
X212382523Y-144328571D01*
X212382523Y-144328571D02*
X212534904Y-144414285D01*
X212534904Y-144414285D02*
X212611095Y-144499999D01*
X212611095Y-144499999D02*
X212687285Y-144671428D01*
X212687285Y-144671428D02*
X212687285Y-145357142D01*
X212611095Y-143557142D02*
X212611095Y-142957142D01*
X213449190Y-142699999D02*
X213449190Y-143557142D01*
X213449190Y-143557142D02*
X211849190Y-143557142D01*
X211849190Y-143557142D02*
X211849190Y-142699999D01*
%TO.C,J8*%
X176390000Y-40437190D02*
X176390000Y-41580047D01*
X176390000Y-41580047D02*
X176304285Y-41808619D01*
X176304285Y-41808619D02*
X176132857Y-41961000D01*
X176132857Y-41961000D02*
X175875714Y-42037190D01*
X175875714Y-42037190D02*
X175704285Y-42037190D01*
X177504286Y-41122904D02*
X177332857Y-41046714D01*
X177332857Y-41046714D02*
X177247143Y-40970523D01*
X177247143Y-40970523D02*
X177161429Y-40818142D01*
X177161429Y-40818142D02*
X177161429Y-40741952D01*
X177161429Y-40741952D02*
X177247143Y-40589571D01*
X177247143Y-40589571D02*
X177332857Y-40513380D01*
X177332857Y-40513380D02*
X177504286Y-40437190D01*
X177504286Y-40437190D02*
X177847143Y-40437190D01*
X177847143Y-40437190D02*
X178018572Y-40513380D01*
X178018572Y-40513380D02*
X178104286Y-40589571D01*
X178104286Y-40589571D02*
X178190000Y-40741952D01*
X178190000Y-40741952D02*
X178190000Y-40818142D01*
X178190000Y-40818142D02*
X178104286Y-40970523D01*
X178104286Y-40970523D02*
X178018572Y-41046714D01*
X178018572Y-41046714D02*
X177847143Y-41122904D01*
X177847143Y-41122904D02*
X177504286Y-41122904D01*
X177504286Y-41122904D02*
X177332857Y-41199095D01*
X177332857Y-41199095D02*
X177247143Y-41275285D01*
X177247143Y-41275285D02*
X177161429Y-41427666D01*
X177161429Y-41427666D02*
X177161429Y-41732428D01*
X177161429Y-41732428D02*
X177247143Y-41884809D01*
X177247143Y-41884809D02*
X177332857Y-41961000D01*
X177332857Y-41961000D02*
X177504286Y-42037190D01*
X177504286Y-42037190D02*
X177847143Y-42037190D01*
X177847143Y-42037190D02*
X178018572Y-41961000D01*
X178018572Y-41961000D02*
X178104286Y-41884809D01*
X178104286Y-41884809D02*
X178190000Y-41732428D01*
X178190000Y-41732428D02*
X178190000Y-41427666D01*
X178190000Y-41427666D02*
X178104286Y-41275285D01*
X178104286Y-41275285D02*
X178018572Y-41199095D01*
X178018572Y-41199095D02*
X177847143Y-41122904D01*
%TO.C,S3*%
X228613000Y-150499999D02*
X228689190Y-150242857D01*
X228689190Y-150242857D02*
X228689190Y-149814285D01*
X228689190Y-149814285D02*
X228613000Y-149642857D01*
X228613000Y-149642857D02*
X228536809Y-149557142D01*
X228536809Y-149557142D02*
X228384428Y-149471428D01*
X228384428Y-149471428D02*
X228232047Y-149471428D01*
X228232047Y-149471428D02*
X228079666Y-149557142D01*
X228079666Y-149557142D02*
X228003476Y-149642857D01*
X228003476Y-149642857D02*
X227927285Y-149814285D01*
X227927285Y-149814285D02*
X227851095Y-150157142D01*
X227851095Y-150157142D02*
X227774904Y-150328571D01*
X227774904Y-150328571D02*
X227698714Y-150414285D01*
X227698714Y-150414285D02*
X227546333Y-150499999D01*
X227546333Y-150499999D02*
X227393952Y-150499999D01*
X227393952Y-150499999D02*
X227241571Y-150414285D01*
X227241571Y-150414285D02*
X227165380Y-150328571D01*
X227165380Y-150328571D02*
X227089190Y-150157142D01*
X227089190Y-150157142D02*
X227089190Y-149728571D01*
X227089190Y-149728571D02*
X227165380Y-149471428D01*
X228689190Y-148699999D02*
X227089190Y-148699999D01*
X227089190Y-148699999D02*
X227089190Y-148014285D01*
X227089190Y-148014285D02*
X227165380Y-147842856D01*
X227165380Y-147842856D02*
X227241571Y-147757142D01*
X227241571Y-147757142D02*
X227393952Y-147671428D01*
X227393952Y-147671428D02*
X227622523Y-147671428D01*
X227622523Y-147671428D02*
X227774904Y-147757142D01*
X227774904Y-147757142D02*
X227851095Y-147842856D01*
X227851095Y-147842856D02*
X227927285Y-148014285D01*
X227927285Y-148014285D02*
X227927285Y-148699999D01*
X228232047Y-146985713D02*
X228232047Y-146128571D01*
X228689190Y-147157142D02*
X227089190Y-146557142D01*
X227089190Y-146557142D02*
X228689190Y-145957142D01*
X228689190Y-144328571D02*
X227927285Y-144928571D01*
X228689190Y-145357142D02*
X227089190Y-145357142D01*
X227089190Y-145357142D02*
X227089190Y-144671428D01*
X227089190Y-144671428D02*
X227165380Y-144499999D01*
X227165380Y-144499999D02*
X227241571Y-144414285D01*
X227241571Y-144414285D02*
X227393952Y-144328571D01*
X227393952Y-144328571D02*
X227622523Y-144328571D01*
X227622523Y-144328571D02*
X227774904Y-144414285D01*
X227774904Y-144414285D02*
X227851095Y-144499999D01*
X227851095Y-144499999D02*
X227927285Y-144671428D01*
X227927285Y-144671428D02*
X227927285Y-145357142D01*
X227851095Y-143557142D02*
X227851095Y-142957142D01*
X228689190Y-142699999D02*
X228689190Y-143557142D01*
X228689190Y-143557142D02*
X227089190Y-143557142D01*
X227089190Y-143557142D02*
X227089190Y-142699999D01*
%TO.C,C15*%
X145450856Y-133354809D02*
X145365142Y-133431000D01*
X145365142Y-133431000D02*
X145107999Y-133507190D01*
X145107999Y-133507190D02*
X144936571Y-133507190D01*
X144936571Y-133507190D02*
X144679428Y-133431000D01*
X144679428Y-133431000D02*
X144507999Y-133278619D01*
X144507999Y-133278619D02*
X144422285Y-133126238D01*
X144422285Y-133126238D02*
X144336571Y-132821476D01*
X144336571Y-132821476D02*
X144336571Y-132592904D01*
X144336571Y-132592904D02*
X144422285Y-132288142D01*
X144422285Y-132288142D02*
X144507999Y-132135761D01*
X144507999Y-132135761D02*
X144679428Y-131983380D01*
X144679428Y-131983380D02*
X144936571Y-131907190D01*
X144936571Y-131907190D02*
X145107999Y-131907190D01*
X145107999Y-131907190D02*
X145365142Y-131983380D01*
X145365142Y-131983380D02*
X145450856Y-132059571D01*
X147165142Y-133507190D02*
X146136571Y-133507190D01*
X146650856Y-133507190D02*
X146650856Y-131907190D01*
X146650856Y-131907190D02*
X146479428Y-132135761D01*
X146479428Y-132135761D02*
X146307999Y-132288142D01*
X146307999Y-132288142D02*
X146136571Y-132364333D01*
X148793714Y-131907190D02*
X147936571Y-131907190D01*
X147936571Y-131907190D02*
X147850857Y-132669095D01*
X147850857Y-132669095D02*
X147936571Y-132592904D01*
X147936571Y-132592904D02*
X148108000Y-132516714D01*
X148108000Y-132516714D02*
X148536571Y-132516714D01*
X148536571Y-132516714D02*
X148708000Y-132592904D01*
X148708000Y-132592904D02*
X148793714Y-132669095D01*
X148793714Y-132669095D02*
X148879428Y-132821476D01*
X148879428Y-132821476D02*
X148879428Y-133202428D01*
X148879428Y-133202428D02*
X148793714Y-133354809D01*
X148793714Y-133354809D02*
X148708000Y-133431000D01*
X148708000Y-133431000D02*
X148536571Y-133507190D01*
X148536571Y-133507190D02*
X148108000Y-133507190D01*
X148108000Y-133507190D02*
X147936571Y-133431000D01*
X147936571Y-133431000D02*
X147850857Y-133354809D01*
%TO.C,J6*%
X135750000Y-40437190D02*
X135750000Y-41580047D01*
X135750000Y-41580047D02*
X135664285Y-41808619D01*
X135664285Y-41808619D02*
X135492857Y-41961000D01*
X135492857Y-41961000D02*
X135235714Y-42037190D01*
X135235714Y-42037190D02*
X135064285Y-42037190D01*
X137378572Y-40437190D02*
X137035714Y-40437190D01*
X137035714Y-40437190D02*
X136864286Y-40513380D01*
X136864286Y-40513380D02*
X136778572Y-40589571D01*
X136778572Y-40589571D02*
X136607143Y-40818142D01*
X136607143Y-40818142D02*
X136521429Y-41122904D01*
X136521429Y-41122904D02*
X136521429Y-41732428D01*
X136521429Y-41732428D02*
X136607143Y-41884809D01*
X136607143Y-41884809D02*
X136692857Y-41961000D01*
X136692857Y-41961000D02*
X136864286Y-42037190D01*
X136864286Y-42037190D02*
X137207143Y-42037190D01*
X137207143Y-42037190D02*
X137378572Y-41961000D01*
X137378572Y-41961000D02*
X137464286Y-41884809D01*
X137464286Y-41884809D02*
X137550000Y-41732428D01*
X137550000Y-41732428D02*
X137550000Y-41351476D01*
X137550000Y-41351476D02*
X137464286Y-41199095D01*
X137464286Y-41199095D02*
X137378572Y-41122904D01*
X137378572Y-41122904D02*
X137207143Y-41046714D01*
X137207143Y-41046714D02*
X136864286Y-41046714D01*
X136864286Y-41046714D02*
X136692857Y-41122904D01*
X136692857Y-41122904D02*
X136607143Y-41199095D01*
X136607143Y-41199095D02*
X136521429Y-41351476D01*
%TO.C,C1*%
X205759999Y-126044809D02*
X205674285Y-126121000D01*
X205674285Y-126121000D02*
X205417142Y-126197190D01*
X205417142Y-126197190D02*
X205245714Y-126197190D01*
X205245714Y-126197190D02*
X204988571Y-126121000D01*
X204988571Y-126121000D02*
X204817142Y-125968619D01*
X204817142Y-125968619D02*
X204731428Y-125816238D01*
X204731428Y-125816238D02*
X204645714Y-125511476D01*
X204645714Y-125511476D02*
X204645714Y-125282904D01*
X204645714Y-125282904D02*
X204731428Y-124978142D01*
X204731428Y-124978142D02*
X204817142Y-124825761D01*
X204817142Y-124825761D02*
X204988571Y-124673380D01*
X204988571Y-124673380D02*
X205245714Y-124597190D01*
X205245714Y-124597190D02*
X205417142Y-124597190D01*
X205417142Y-124597190D02*
X205674285Y-124673380D01*
X205674285Y-124673380D02*
X205759999Y-124749571D01*
X207474285Y-126197190D02*
X206445714Y-126197190D01*
X206959999Y-126197190D02*
X206959999Y-124597190D01*
X206959999Y-124597190D02*
X206788571Y-124825761D01*
X206788571Y-124825761D02*
X206617142Y-124978142D01*
X206617142Y-124978142D02*
X206445714Y-125054333D01*
%TO.C,C11*%
X64580856Y-50818809D02*
X64495142Y-50895000D01*
X64495142Y-50895000D02*
X64237999Y-50971190D01*
X64237999Y-50971190D02*
X64066571Y-50971190D01*
X64066571Y-50971190D02*
X63809428Y-50895000D01*
X63809428Y-50895000D02*
X63637999Y-50742619D01*
X63637999Y-50742619D02*
X63552285Y-50590238D01*
X63552285Y-50590238D02*
X63466571Y-50285476D01*
X63466571Y-50285476D02*
X63466571Y-50056904D01*
X63466571Y-50056904D02*
X63552285Y-49752142D01*
X63552285Y-49752142D02*
X63637999Y-49599761D01*
X63637999Y-49599761D02*
X63809428Y-49447380D01*
X63809428Y-49447380D02*
X64066571Y-49371190D01*
X64066571Y-49371190D02*
X64237999Y-49371190D01*
X64237999Y-49371190D02*
X64495142Y-49447380D01*
X64495142Y-49447380D02*
X64580856Y-49523571D01*
X66295142Y-50971190D02*
X65266571Y-50971190D01*
X65780856Y-50971190D02*
X65780856Y-49371190D01*
X65780856Y-49371190D02*
X65609428Y-49599761D01*
X65609428Y-49599761D02*
X65437999Y-49752142D01*
X65437999Y-49752142D02*
X65266571Y-49828333D01*
X68009428Y-50971190D02*
X66980857Y-50971190D01*
X67495142Y-50971190D02*
X67495142Y-49371190D01*
X67495142Y-49371190D02*
X67323714Y-49599761D01*
X67323714Y-49599761D02*
X67152285Y-49752142D01*
X67152285Y-49752142D02*
X66980857Y-49828333D01*
%TO.C,C6*%
X230131599Y-65855609D02*
X230045885Y-65931800D01*
X230045885Y-65931800D02*
X229788742Y-66007990D01*
X229788742Y-66007990D02*
X229617314Y-66007990D01*
X229617314Y-66007990D02*
X229360171Y-65931800D01*
X229360171Y-65931800D02*
X229188742Y-65779419D01*
X229188742Y-65779419D02*
X229103028Y-65627038D01*
X229103028Y-65627038D02*
X229017314Y-65322276D01*
X229017314Y-65322276D02*
X229017314Y-65093704D01*
X229017314Y-65093704D02*
X229103028Y-64788942D01*
X229103028Y-64788942D02*
X229188742Y-64636561D01*
X229188742Y-64636561D02*
X229360171Y-64484180D01*
X229360171Y-64484180D02*
X229617314Y-64407990D01*
X229617314Y-64407990D02*
X229788742Y-64407990D01*
X229788742Y-64407990D02*
X230045885Y-64484180D01*
X230045885Y-64484180D02*
X230131599Y-64560371D01*
X231674457Y-64407990D02*
X231331599Y-64407990D01*
X231331599Y-64407990D02*
X231160171Y-64484180D01*
X231160171Y-64484180D02*
X231074457Y-64560371D01*
X231074457Y-64560371D02*
X230903028Y-64788942D01*
X230903028Y-64788942D02*
X230817314Y-65093704D01*
X230817314Y-65093704D02*
X230817314Y-65703228D01*
X230817314Y-65703228D02*
X230903028Y-65855609D01*
X230903028Y-65855609D02*
X230988742Y-65931800D01*
X230988742Y-65931800D02*
X231160171Y-66007990D01*
X231160171Y-66007990D02*
X231503028Y-66007990D01*
X231503028Y-66007990D02*
X231674457Y-65931800D01*
X231674457Y-65931800D02*
X231760171Y-65855609D01*
X231760171Y-65855609D02*
X231845885Y-65703228D01*
X231845885Y-65703228D02*
X231845885Y-65322276D01*
X231845885Y-65322276D02*
X231760171Y-65169895D01*
X231760171Y-65169895D02*
X231674457Y-65093704D01*
X231674457Y-65093704D02*
X231503028Y-65017514D01*
X231503028Y-65017514D02*
X231160171Y-65017514D01*
X231160171Y-65017514D02*
X230988742Y-65093704D01*
X230988742Y-65093704D02*
X230903028Y-65169895D01*
X230903028Y-65169895D02*
X230817314Y-65322276D01*
%TO.C,C3*%
X230283999Y-25164809D02*
X230198285Y-25241000D01*
X230198285Y-25241000D02*
X229941142Y-25317190D01*
X229941142Y-25317190D02*
X229769714Y-25317190D01*
X229769714Y-25317190D02*
X229512571Y-25241000D01*
X229512571Y-25241000D02*
X229341142Y-25088619D01*
X229341142Y-25088619D02*
X229255428Y-24936238D01*
X229255428Y-24936238D02*
X229169714Y-24631476D01*
X229169714Y-24631476D02*
X229169714Y-24402904D01*
X229169714Y-24402904D02*
X229255428Y-24098142D01*
X229255428Y-24098142D02*
X229341142Y-23945761D01*
X229341142Y-23945761D02*
X229512571Y-23793380D01*
X229512571Y-23793380D02*
X229769714Y-23717190D01*
X229769714Y-23717190D02*
X229941142Y-23717190D01*
X229941142Y-23717190D02*
X230198285Y-23793380D01*
X230198285Y-23793380D02*
X230283999Y-23869571D01*
X230883999Y-23717190D02*
X231998285Y-23717190D01*
X231998285Y-23717190D02*
X231398285Y-24326714D01*
X231398285Y-24326714D02*
X231655428Y-24326714D01*
X231655428Y-24326714D02*
X231826857Y-24402904D01*
X231826857Y-24402904D02*
X231912571Y-24479095D01*
X231912571Y-24479095D02*
X231998285Y-24631476D01*
X231998285Y-24631476D02*
X231998285Y-25012428D01*
X231998285Y-25012428D02*
X231912571Y-25164809D01*
X231912571Y-25164809D02*
X231826857Y-25241000D01*
X231826857Y-25241000D02*
X231655428Y-25317190D01*
X231655428Y-25317190D02*
X231141142Y-25317190D01*
X231141142Y-25317190D02*
X230969714Y-25241000D01*
X230969714Y-25241000D02*
X230883999Y-25164809D01*
%TO.C,J2*%
X54470000Y-40437190D02*
X54470000Y-41580047D01*
X54470000Y-41580047D02*
X54384285Y-41808619D01*
X54384285Y-41808619D02*
X54212857Y-41961000D01*
X54212857Y-41961000D02*
X53955714Y-42037190D01*
X53955714Y-42037190D02*
X53784285Y-42037190D01*
X55241429Y-40589571D02*
X55327143Y-40513380D01*
X55327143Y-40513380D02*
X55498572Y-40437190D01*
X55498572Y-40437190D02*
X55927143Y-40437190D01*
X55927143Y-40437190D02*
X56098572Y-40513380D01*
X56098572Y-40513380D02*
X56184286Y-40589571D01*
X56184286Y-40589571D02*
X56270000Y-40741952D01*
X56270000Y-40741952D02*
X56270000Y-40894333D01*
X56270000Y-40894333D02*
X56184286Y-41122904D01*
X56184286Y-41122904D02*
X55155714Y-42037190D01*
X55155714Y-42037190D02*
X56270000Y-42037190D01*
%TO.C,P1*%
X239739428Y-40853190D02*
X239739428Y-39253190D01*
X239739428Y-39253190D02*
X240425142Y-39253190D01*
X240425142Y-39253190D02*
X240596571Y-39329380D01*
X240596571Y-39329380D02*
X240682285Y-39405571D01*
X240682285Y-39405571D02*
X240767999Y-39557952D01*
X240767999Y-39557952D02*
X240767999Y-39786523D01*
X240767999Y-39786523D02*
X240682285Y-39938904D01*
X240682285Y-39938904D02*
X240596571Y-40015095D01*
X240596571Y-40015095D02*
X240425142Y-40091285D01*
X240425142Y-40091285D02*
X239739428Y-40091285D01*
X242482285Y-40853190D02*
X241453714Y-40853190D01*
X241967999Y-40853190D02*
X241967999Y-39253190D01*
X241967999Y-39253190D02*
X241796571Y-39481761D01*
X241796571Y-39481761D02*
X241625142Y-39634142D01*
X241625142Y-39634142D02*
X241453714Y-39710333D01*
%TO.C,C14*%
X46546856Y-134384809D02*
X46461142Y-134461000D01*
X46461142Y-134461000D02*
X46203999Y-134537190D01*
X46203999Y-134537190D02*
X46032571Y-134537190D01*
X46032571Y-134537190D02*
X45775428Y-134461000D01*
X45775428Y-134461000D02*
X45603999Y-134308619D01*
X45603999Y-134308619D02*
X45518285Y-134156238D01*
X45518285Y-134156238D02*
X45432571Y-133851476D01*
X45432571Y-133851476D02*
X45432571Y-133622904D01*
X45432571Y-133622904D02*
X45518285Y-133318142D01*
X45518285Y-133318142D02*
X45603999Y-133165761D01*
X45603999Y-133165761D02*
X45775428Y-133013380D01*
X45775428Y-133013380D02*
X46032571Y-132937190D01*
X46032571Y-132937190D02*
X46203999Y-132937190D01*
X46203999Y-132937190D02*
X46461142Y-133013380D01*
X46461142Y-133013380D02*
X46546856Y-133089571D01*
X48261142Y-134537190D02*
X47232571Y-134537190D01*
X47746856Y-134537190D02*
X47746856Y-132937190D01*
X47746856Y-132937190D02*
X47575428Y-133165761D01*
X47575428Y-133165761D02*
X47403999Y-133318142D01*
X47403999Y-133318142D02*
X47232571Y-133394333D01*
X49804000Y-133470523D02*
X49804000Y-134537190D01*
X49375428Y-132861000D02*
X48946857Y-134003857D01*
X48946857Y-134003857D02*
X50061142Y-134003857D01*
%TO.C,P2*%
X239739428Y-64775190D02*
X239739428Y-63175190D01*
X239739428Y-63175190D02*
X240425142Y-63175190D01*
X240425142Y-63175190D02*
X240596571Y-63251380D01*
X240596571Y-63251380D02*
X240682285Y-63327571D01*
X240682285Y-63327571D02*
X240767999Y-63479952D01*
X240767999Y-63479952D02*
X240767999Y-63708523D01*
X240767999Y-63708523D02*
X240682285Y-63860904D01*
X240682285Y-63860904D02*
X240596571Y-63937095D01*
X240596571Y-63937095D02*
X240425142Y-64013285D01*
X240425142Y-64013285D02*
X239739428Y-64013285D01*
X241453714Y-63327571D02*
X241539428Y-63251380D01*
X241539428Y-63251380D02*
X241710857Y-63175190D01*
X241710857Y-63175190D02*
X242139428Y-63175190D01*
X242139428Y-63175190D02*
X242310857Y-63251380D01*
X242310857Y-63251380D02*
X242396571Y-63327571D01*
X242396571Y-63327571D02*
X242482285Y-63479952D01*
X242482285Y-63479952D02*
X242482285Y-63632333D01*
X242482285Y-63632333D02*
X242396571Y-63860904D01*
X242396571Y-63860904D02*
X241367999Y-64775190D01*
X241367999Y-64775190D02*
X242482285Y-64775190D01*
%TO.C,U1*%
X187388571Y-96027190D02*
X187388571Y-97322428D01*
X187388571Y-97322428D02*
X187474285Y-97474809D01*
X187474285Y-97474809D02*
X187560000Y-97551000D01*
X187560000Y-97551000D02*
X187731428Y-97627190D01*
X187731428Y-97627190D02*
X188074285Y-97627190D01*
X188074285Y-97627190D02*
X188245714Y-97551000D01*
X188245714Y-97551000D02*
X188331428Y-97474809D01*
X188331428Y-97474809D02*
X188417142Y-97322428D01*
X188417142Y-97322428D02*
X188417142Y-96027190D01*
X190217142Y-97627190D02*
X189188571Y-97627190D01*
X189702856Y-97627190D02*
X189702856Y-96027190D01*
X189702856Y-96027190D02*
X189531428Y-96255761D01*
X189531428Y-96255761D02*
X189359999Y-96408142D01*
X189359999Y-96408142D02*
X189188571Y-96484333D01*
%TO.C,C10*%
X63062856Y-24604809D02*
X62977142Y-24681000D01*
X62977142Y-24681000D02*
X62719999Y-24757190D01*
X62719999Y-24757190D02*
X62548571Y-24757190D01*
X62548571Y-24757190D02*
X62291428Y-24681000D01*
X62291428Y-24681000D02*
X62119999Y-24528619D01*
X62119999Y-24528619D02*
X62034285Y-24376238D01*
X62034285Y-24376238D02*
X61948571Y-24071476D01*
X61948571Y-24071476D02*
X61948571Y-23842904D01*
X61948571Y-23842904D02*
X62034285Y-23538142D01*
X62034285Y-23538142D02*
X62119999Y-23385761D01*
X62119999Y-23385761D02*
X62291428Y-23233380D01*
X62291428Y-23233380D02*
X62548571Y-23157190D01*
X62548571Y-23157190D02*
X62719999Y-23157190D01*
X62719999Y-23157190D02*
X62977142Y-23233380D01*
X62977142Y-23233380D02*
X63062856Y-23309571D01*
X64777142Y-24757190D02*
X63748571Y-24757190D01*
X64262856Y-24757190D02*
X64262856Y-23157190D01*
X64262856Y-23157190D02*
X64091428Y-23385761D01*
X64091428Y-23385761D02*
X63919999Y-23538142D01*
X63919999Y-23538142D02*
X63748571Y-23614333D01*
X65891428Y-23157190D02*
X66062857Y-23157190D01*
X66062857Y-23157190D02*
X66234285Y-23233380D01*
X66234285Y-23233380D02*
X66320000Y-23309571D01*
X66320000Y-23309571D02*
X66405714Y-23461952D01*
X66405714Y-23461952D02*
X66491428Y-23766714D01*
X66491428Y-23766714D02*
X66491428Y-24147666D01*
X66491428Y-24147666D02*
X66405714Y-24452428D01*
X66405714Y-24452428D02*
X66320000Y-24604809D01*
X66320000Y-24604809D02*
X66234285Y-24681000D01*
X66234285Y-24681000D02*
X66062857Y-24757190D01*
X66062857Y-24757190D02*
X65891428Y-24757190D01*
X65891428Y-24757190D02*
X65720000Y-24681000D01*
X65720000Y-24681000D02*
X65634285Y-24604809D01*
X65634285Y-24604809D02*
X65548571Y-24452428D01*
X65548571Y-24452428D02*
X65462857Y-24147666D01*
X65462857Y-24147666D02*
X65462857Y-23766714D01*
X65462857Y-23766714D02*
X65548571Y-23461952D01*
X65548571Y-23461952D02*
X65634285Y-23309571D01*
X65634285Y-23309571D02*
X65720000Y-23233380D01*
X65720000Y-23233380D02*
X65891428Y-23157190D01*
%TO.C,R1*%
X195243190Y-94994000D02*
X194481285Y-95594000D01*
X195243190Y-96022571D02*
X193643190Y-96022571D01*
X193643190Y-96022571D02*
X193643190Y-95336857D01*
X193643190Y-95336857D02*
X193719380Y-95165428D01*
X193719380Y-95165428D02*
X193795571Y-95079714D01*
X193795571Y-95079714D02*
X193947952Y-94994000D01*
X193947952Y-94994000D02*
X194176523Y-94994000D01*
X194176523Y-94994000D02*
X194328904Y-95079714D01*
X194328904Y-95079714D02*
X194405095Y-95165428D01*
X194405095Y-95165428D02*
X194481285Y-95336857D01*
X194481285Y-95336857D02*
X194481285Y-96022571D01*
X195243190Y-93279714D02*
X195243190Y-94308285D01*
X195243190Y-93794000D02*
X193643190Y-93794000D01*
X193643190Y-93794000D02*
X193871761Y-93965428D01*
X193871761Y-93965428D02*
X194024142Y-94136857D01*
X194024142Y-94136857D02*
X194100333Y-94308285D01*
%TO.C,C2*%
X222409999Y-25164809D02*
X222324285Y-25241000D01*
X222324285Y-25241000D02*
X222067142Y-25317190D01*
X222067142Y-25317190D02*
X221895714Y-25317190D01*
X221895714Y-25317190D02*
X221638571Y-25241000D01*
X221638571Y-25241000D02*
X221467142Y-25088619D01*
X221467142Y-25088619D02*
X221381428Y-24936238D01*
X221381428Y-24936238D02*
X221295714Y-24631476D01*
X221295714Y-24631476D02*
X221295714Y-24402904D01*
X221295714Y-24402904D02*
X221381428Y-24098142D01*
X221381428Y-24098142D02*
X221467142Y-23945761D01*
X221467142Y-23945761D02*
X221638571Y-23793380D01*
X221638571Y-23793380D02*
X221895714Y-23717190D01*
X221895714Y-23717190D02*
X222067142Y-23717190D01*
X222067142Y-23717190D02*
X222324285Y-23793380D01*
X222324285Y-23793380D02*
X222409999Y-23869571D01*
X223095714Y-23869571D02*
X223181428Y-23793380D01*
X223181428Y-23793380D02*
X223352857Y-23717190D01*
X223352857Y-23717190D02*
X223781428Y-23717190D01*
X223781428Y-23717190D02*
X223952857Y-23793380D01*
X223952857Y-23793380D02*
X224038571Y-23869571D01*
X224038571Y-23869571D02*
X224124285Y-24021952D01*
X224124285Y-24021952D02*
X224124285Y-24174333D01*
X224124285Y-24174333D02*
X224038571Y-24402904D01*
X224038571Y-24402904D02*
X223009999Y-25317190D01*
X223009999Y-25317190D02*
X224124285Y-25317190D01*
%TO.C,C4*%
X222384599Y-47567609D02*
X222298885Y-47643800D01*
X222298885Y-47643800D02*
X222041742Y-47719990D01*
X222041742Y-47719990D02*
X221870314Y-47719990D01*
X221870314Y-47719990D02*
X221613171Y-47643800D01*
X221613171Y-47643800D02*
X221441742Y-47491419D01*
X221441742Y-47491419D02*
X221356028Y-47339038D01*
X221356028Y-47339038D02*
X221270314Y-47034276D01*
X221270314Y-47034276D02*
X221270314Y-46805704D01*
X221270314Y-46805704D02*
X221356028Y-46500942D01*
X221356028Y-46500942D02*
X221441742Y-46348561D01*
X221441742Y-46348561D02*
X221613171Y-46196180D01*
X221613171Y-46196180D02*
X221870314Y-46119990D01*
X221870314Y-46119990D02*
X222041742Y-46119990D01*
X222041742Y-46119990D02*
X222298885Y-46196180D01*
X222298885Y-46196180D02*
X222384599Y-46272371D01*
X223927457Y-46653323D02*
X223927457Y-47719990D01*
X223498885Y-46043800D02*
X223070314Y-47186657D01*
X223070314Y-47186657D02*
X224184599Y-47186657D01*
%TO.C,S2*%
X243853000Y-150499999D02*
X243929190Y-150242857D01*
X243929190Y-150242857D02*
X243929190Y-149814285D01*
X243929190Y-149814285D02*
X243853000Y-149642857D01*
X243853000Y-149642857D02*
X243776809Y-149557142D01*
X243776809Y-149557142D02*
X243624428Y-149471428D01*
X243624428Y-149471428D02*
X243472047Y-149471428D01*
X243472047Y-149471428D02*
X243319666Y-149557142D01*
X243319666Y-149557142D02*
X243243476Y-149642857D01*
X243243476Y-149642857D02*
X243167285Y-149814285D01*
X243167285Y-149814285D02*
X243091095Y-150157142D01*
X243091095Y-150157142D02*
X243014904Y-150328571D01*
X243014904Y-150328571D02*
X242938714Y-150414285D01*
X242938714Y-150414285D02*
X242786333Y-150499999D01*
X242786333Y-150499999D02*
X242633952Y-150499999D01*
X242633952Y-150499999D02*
X242481571Y-150414285D01*
X242481571Y-150414285D02*
X242405380Y-150328571D01*
X242405380Y-150328571D02*
X242329190Y-150157142D01*
X242329190Y-150157142D02*
X242329190Y-149728571D01*
X242329190Y-149728571D02*
X242405380Y-149471428D01*
X243929190Y-148699999D02*
X242329190Y-148699999D01*
X242329190Y-148699999D02*
X242329190Y-148014285D01*
X242329190Y-148014285D02*
X242405380Y-147842856D01*
X242405380Y-147842856D02*
X242481571Y-147757142D01*
X242481571Y-147757142D02*
X242633952Y-147671428D01*
X242633952Y-147671428D02*
X242862523Y-147671428D01*
X242862523Y-147671428D02*
X243014904Y-147757142D01*
X243014904Y-147757142D02*
X243091095Y-147842856D01*
X243091095Y-147842856D02*
X243167285Y-148014285D01*
X243167285Y-148014285D02*
X243167285Y-148699999D01*
X243472047Y-146985713D02*
X243472047Y-146128571D01*
X243929190Y-147157142D02*
X242329190Y-146557142D01*
X242329190Y-146557142D02*
X243929190Y-145957142D01*
X243929190Y-144328571D02*
X243167285Y-144928571D01*
X243929190Y-145357142D02*
X242329190Y-145357142D01*
X242329190Y-145357142D02*
X242329190Y-144671428D01*
X242329190Y-144671428D02*
X242405380Y-144499999D01*
X242405380Y-144499999D02*
X242481571Y-144414285D01*
X242481571Y-144414285D02*
X242633952Y-144328571D01*
X242633952Y-144328571D02*
X242862523Y-144328571D01*
X242862523Y-144328571D02*
X243014904Y-144414285D01*
X243014904Y-144414285D02*
X243091095Y-144499999D01*
X243091095Y-144499999D02*
X243167285Y-144671428D01*
X243167285Y-144671428D02*
X243167285Y-145357142D01*
X243091095Y-143557142D02*
X243091095Y-142957142D01*
X243929190Y-142699999D02*
X243929190Y-143557142D01*
X243929190Y-143557142D02*
X242329190Y-143557142D01*
X242329190Y-143557142D02*
X242329190Y-142699999D01*
%TO.C,X1*%
X209060856Y-94583190D02*
X210260856Y-96183190D01*
X210260856Y-94583190D02*
X209060856Y-96183190D01*
X211889428Y-96183190D02*
X210860857Y-96183190D01*
X211375142Y-96183190D02*
X211375142Y-94583190D01*
X211375142Y-94583190D02*
X211203714Y-94811761D01*
X211203714Y-94811761D02*
X211032285Y-94964142D01*
X211032285Y-94964142D02*
X210860857Y-95040333D01*
%TO.C,R2*%
X206165190Y-95502000D02*
X205403285Y-96102000D01*
X206165190Y-96530571D02*
X204565190Y-96530571D01*
X204565190Y-96530571D02*
X204565190Y-95844857D01*
X204565190Y-95844857D02*
X204641380Y-95673428D01*
X204641380Y-95673428D02*
X204717571Y-95587714D01*
X204717571Y-95587714D02*
X204869952Y-95502000D01*
X204869952Y-95502000D02*
X205098523Y-95502000D01*
X205098523Y-95502000D02*
X205250904Y-95587714D01*
X205250904Y-95587714D02*
X205327095Y-95673428D01*
X205327095Y-95673428D02*
X205403285Y-95844857D01*
X205403285Y-95844857D02*
X205403285Y-96530571D01*
X204717571Y-94816285D02*
X204641380Y-94730571D01*
X204641380Y-94730571D02*
X204565190Y-94559143D01*
X204565190Y-94559143D02*
X204565190Y-94130571D01*
X204565190Y-94130571D02*
X204641380Y-93959143D01*
X204641380Y-93959143D02*
X204717571Y-93873428D01*
X204717571Y-93873428D02*
X204869952Y-93787714D01*
X204869952Y-93787714D02*
X205022333Y-93787714D01*
X205022333Y-93787714D02*
X205250904Y-93873428D01*
X205250904Y-93873428D02*
X206165190Y-94902000D01*
X206165190Y-94902000D02*
X206165190Y-93787714D01*
D13*
%TO.C,C9*%
X147880000Y-39480000D02*
X145140000Y-39480000D01*
X147880000Y-39480000D02*
X147880000Y-47720000D01*
X145140000Y-39480000D02*
X145140000Y-47720000D01*
X147880000Y-47720000D02*
X145140000Y-47720000D01*
%TO.C,J7*%
X152800000Y-42310000D02*
X154130000Y-42310000D01*
X152800000Y-43640000D02*
X152800000Y-42310000D01*
X152800000Y-44910000D02*
X152800000Y-121110000D01*
X152830000Y-44910000D02*
X155430000Y-44910000D01*
X152860000Y-121110000D02*
X160540000Y-121110000D01*
X155400000Y-42310000D02*
X160540000Y-42310000D01*
X155400000Y-44910000D02*
X155400000Y-42310000D01*
X160540000Y-42310000D02*
X160540000Y-121110000D01*
%TO.C,J5*%
X112160000Y-42310000D02*
X113490000Y-42310000D01*
X112160000Y-43640000D02*
X112160000Y-42310000D01*
X112160000Y-44910000D02*
X112160000Y-121110000D01*
X112190000Y-44910000D02*
X114790000Y-44910000D01*
X112220000Y-121110000D02*
X119900000Y-121110000D01*
X114760000Y-42310000D02*
X119900000Y-42310000D01*
X114760000Y-44910000D02*
X114760000Y-42310000D01*
X119900000Y-42310000D02*
X119900000Y-121110000D01*
%TO.C,C12*%
X147880000Y-26780000D02*
X145140000Y-26780000D01*
X147880000Y-26780000D02*
X147880000Y-35020000D01*
X145140000Y-26780000D02*
X145140000Y-35020000D01*
X147880000Y-35020000D02*
X145140000Y-35020000D01*
%TO.C,C13*%
X193850000Y-90730000D02*
X193850000Y-87990000D01*
X193850000Y-90730000D02*
X185610000Y-90730000D01*
X193850000Y-87990000D02*
X185610000Y-87990000D01*
X185610000Y-90730000D02*
X185610000Y-87990000D01*
%TO.C,C5*%
X224232400Y-67500000D02*
X221492400Y-67500000D01*
X224232400Y-67500000D02*
X224232400Y-75740000D01*
X221492400Y-67500000D02*
X221492400Y-75740000D01*
X224232400Y-75740000D02*
X221492400Y-75740000D01*
%TO.C,C7*%
X224080000Y-82660000D02*
X221340000Y-82660000D01*
X224080000Y-82660000D02*
X224080000Y-90900000D01*
X221340000Y-82660000D02*
X221340000Y-90900000D01*
X224080000Y-90900000D02*
X221340000Y-90900000D01*
%TO.C,S1*%
X231588000Y-95590000D02*
X231588000Y-121230000D01*
X231588000Y-121230000D02*
X241868000Y-121230000D01*
X234078000Y-95650000D02*
X234078000Y-121170000D01*
X234078000Y-121170000D02*
X239378000Y-121170000D01*
X235728000Y-95650000D02*
X234078000Y-95650000D01*
X239378000Y-95650000D02*
X237728000Y-95650000D01*
X239378000Y-121170000D02*
X239378000Y-95650000D01*
X241868000Y-95590000D02*
X231588000Y-95590000D01*
X241868000Y-121230000D02*
X241868000Y-95590000D01*
X235728000Y-95650000D02*
G75*
G03*
X237728000Y-95650000I1000000J0D01*
G01*
%TO.C,J4*%
X91840000Y-42310000D02*
X93170000Y-42310000D01*
X91840000Y-43640000D02*
X91840000Y-42310000D01*
X91840000Y-44910000D02*
X91840000Y-121110000D01*
X91870000Y-44910000D02*
X94470000Y-44910000D01*
X91900000Y-121110000D02*
X99580000Y-121110000D01*
X94440000Y-42310000D02*
X99580000Y-42310000D01*
X94440000Y-44910000D02*
X94440000Y-42310000D01*
X99580000Y-42310000D02*
X99580000Y-121110000D01*
%TO.C,J1*%
X30880000Y-42310000D02*
X32210000Y-42310000D01*
X30880000Y-43640000D02*
X30880000Y-42310000D01*
X30880000Y-44910000D02*
X30880000Y-121110000D01*
X30910000Y-44910000D02*
X33510000Y-44910000D01*
X30940000Y-121110000D02*
X38620000Y-121110000D01*
X33480000Y-42310000D02*
X38620000Y-42310000D01*
X33480000Y-44910000D02*
X33480000Y-42310000D01*
X38620000Y-42310000D02*
X38620000Y-121110000D01*
%TO.C,C8*%
X231700000Y-82660000D02*
X228960000Y-82660000D01*
X231700000Y-82660000D02*
X231700000Y-90900000D01*
X228960000Y-82660000D02*
X228960000Y-90900000D01*
X231700000Y-90900000D02*
X228960000Y-90900000D01*
%TO.C,J3*%
X71520000Y-42310000D02*
X72850000Y-42310000D01*
X71520000Y-43640000D02*
X71520000Y-42310000D01*
X71520000Y-44910000D02*
X71520000Y-121110000D01*
X71550000Y-44910000D02*
X74150000Y-44910000D01*
X71580000Y-121110000D02*
X79260000Y-121110000D01*
X74120000Y-42310000D02*
X79260000Y-42310000D01*
X74120000Y-44910000D02*
X74120000Y-42310000D01*
X79260000Y-42310000D02*
X79260000Y-121110000D01*
%TO.C,S4*%
X201060000Y-133690000D02*
X201060000Y-159330000D01*
X201060000Y-159330000D02*
X211340000Y-159330000D01*
X203550000Y-133750000D02*
X203550000Y-159270000D01*
X203550000Y-159270000D02*
X208850000Y-159270000D01*
X205200000Y-133750000D02*
X203550000Y-133750000D01*
X208850000Y-133750000D02*
X207200000Y-133750000D01*
X208850000Y-159270000D02*
X208850000Y-133750000D01*
X211340000Y-133690000D02*
X201060000Y-133690000D01*
X211340000Y-159330000D02*
X211340000Y-133690000D01*
X205200000Y-133750000D02*
G75*
G03*
X207200000Y-133750000I1000000J0D01*
G01*
%TO.C,J8*%
X173120000Y-42310000D02*
X174450000Y-42310000D01*
X173120000Y-43640000D02*
X173120000Y-42310000D01*
X173120000Y-44910000D02*
X173120000Y-121110000D01*
X173150000Y-44910000D02*
X175750000Y-44910000D01*
X173180000Y-121110000D02*
X180860000Y-121110000D01*
X175720000Y-42310000D02*
X180860000Y-42310000D01*
X175720000Y-44910000D02*
X175720000Y-42310000D01*
X180860000Y-42310000D02*
X180860000Y-121110000D01*
%TO.C,S3*%
X216300000Y-133690000D02*
X216300000Y-159330000D01*
X216300000Y-159330000D02*
X226580000Y-159330000D01*
X218790000Y-133750000D02*
X218790000Y-159270000D01*
X218790000Y-159270000D02*
X224090000Y-159270000D01*
X220440000Y-133750000D02*
X218790000Y-133750000D01*
X224090000Y-133750000D02*
X222440000Y-133750000D01*
X224090000Y-159270000D02*
X224090000Y-133750000D01*
X226580000Y-133690000D02*
X216300000Y-133690000D01*
X226580000Y-159330000D02*
X226580000Y-133690000D01*
X220440000Y-133750000D02*
G75*
G03*
X222440000Y-133750000I1000000J0D01*
G01*
%TO.C,C15*%
X145238000Y-131018000D02*
X147978000Y-131018000D01*
X145238000Y-131018000D02*
X145238000Y-122778000D01*
X147978000Y-131018000D02*
X147978000Y-122778000D01*
X145238000Y-122778000D02*
X147978000Y-122778000D01*
%TO.C,J6*%
X132480000Y-42310000D02*
X133810000Y-42310000D01*
X132480000Y-43640000D02*
X132480000Y-42310000D01*
X132480000Y-44910000D02*
X132480000Y-121110000D01*
X132510000Y-44910000D02*
X135110000Y-44910000D01*
X132540000Y-121110000D02*
X140220000Y-121110000D01*
X135080000Y-42310000D02*
X140220000Y-42310000D01*
X135080000Y-44910000D02*
X135080000Y-42310000D01*
X140220000Y-42310000D02*
X140220000Y-121110000D01*
%TO.C,C1*%
X204365000Y-118230000D02*
X204365000Y-113830000D01*
X204765000Y-116830000D02*
X204965000Y-116830000D01*
X204765000Y-116830000D02*
X204765000Y-116630000D01*
X205265000Y-116030000D02*
X204365000Y-116030000D01*
X205565000Y-116030000D02*
X204765000Y-116830000D01*
X205565000Y-116030000D02*
X206365000Y-115230000D01*
X205865000Y-116030000D02*
X205865000Y-117230000D01*
X205865000Y-116030000D02*
X205865000Y-114830000D01*
X206565000Y-116030000D02*
X205865000Y-116030000D01*
X205265000Y-114830000D02*
X205265000Y-117230000D01*
X207470000Y-110315002D02*
G75*
G03*
X207470000Y-121744998I-2967720J-5714998D01*
G01*
X208736557Y-120477869D02*
G75*
G03*
X208739999Y-111585001I-3706557J4447869D01*
G01*
D14*
X204465000Y-116030000D02*
G75*
G03*
X204465000Y-116030000I-100000J0D01*
G01*
D13*
%TO.C,C11*%
X66600000Y-39480000D02*
X63860000Y-39480000D01*
X66600000Y-39480000D02*
X66600000Y-47720000D01*
X63860000Y-39480000D02*
X63860000Y-47720000D01*
X66600000Y-47720000D02*
X63860000Y-47720000D01*
%TO.C,C6*%
X231801600Y-67470800D02*
X229061600Y-67470800D01*
X231801600Y-67470800D02*
X231801600Y-75710800D01*
X229061600Y-67470800D02*
X229061600Y-75710800D01*
X231801600Y-75710800D02*
X229061600Y-75710800D01*
%TO.C,C3*%
X228806000Y-35178000D02*
X231854000Y-35178000D01*
X228806000Y-35178000D02*
X228806000Y-26542000D01*
X231854000Y-35178000D02*
X231854000Y-26542000D01*
X228806000Y-26542000D02*
X231854000Y-26542000D01*
%TO.C,J2*%
X51200000Y-42310000D02*
X52530000Y-42310000D01*
X51200000Y-43640000D02*
X51200000Y-42310000D01*
X51200000Y-44910000D02*
X51200000Y-121110000D01*
X51230000Y-44910000D02*
X53830000Y-44910000D01*
X51260000Y-121110000D02*
X58940000Y-121110000D01*
X53800000Y-42310000D02*
X58940000Y-42310000D01*
X53800000Y-44910000D02*
X53800000Y-42310000D01*
X58940000Y-42310000D02*
X58940000Y-121110000D01*
D15*
%TO.C,P1*%
X235888000Y-65981000D02*
X235888000Y-42211000D01*
X242338000Y-65981000D02*
X235888000Y-65981000D01*
X246148000Y-65981000D02*
X244248000Y-65981000D01*
X235888000Y-42211000D02*
X246148000Y-42211000D01*
X246148000Y-42211000D02*
X246148000Y-65981000D01*
X244248000Y-65981000D02*
G75*
G03*
X242338000Y-65981000I-955000J0D01*
G01*
D13*
%TO.C,C14*%
X46080000Y-131540000D02*
X48820000Y-131540000D01*
X46080000Y-131540000D02*
X46080000Y-123300000D01*
X48820000Y-131540000D02*
X48820000Y-123300000D01*
X46080000Y-123300000D02*
X48820000Y-123300000D01*
D15*
%TO.C,P2*%
X235888000Y-89903000D02*
X235888000Y-66133000D01*
X242338000Y-89903000D02*
X235888000Y-89903000D01*
X246148000Y-89903000D02*
X244248000Y-89903000D01*
X235888000Y-66133000D02*
X246148000Y-66133000D01*
X246148000Y-66133000D02*
X246148000Y-89903000D01*
X244248000Y-89903000D02*
G75*
G03*
X242338000Y-89903000I-955000J0D01*
G01*
D13*
%TO.C,U1*%
X188310000Y-98190000D02*
X188310000Y-121170000D01*
X188310000Y-121170000D02*
X193610000Y-121170000D01*
X189960000Y-98190000D02*
X188310000Y-98190000D01*
X193610000Y-98190000D02*
X191960000Y-98190000D01*
X193610000Y-121170000D02*
X193610000Y-98190000D01*
X189960000Y-98190000D02*
G75*
G03*
X191960000Y-98190000I1000000J0D01*
G01*
%TO.C,C10*%
X66600000Y-26780000D02*
X63860000Y-26780000D01*
X66600000Y-26780000D02*
X66600000Y-35020000D01*
X63860000Y-26780000D02*
X63860000Y-35020000D01*
X66600000Y-35020000D02*
X63860000Y-35020000D01*
D15*
%TO.C,R1*%
X196675000Y-100155000D02*
X196675000Y-91265000D01*
D13*
X197945000Y-100155000D02*
X197945000Y-101044000D01*
D15*
X199215000Y-100155000D02*
X196675000Y-100155000D01*
X196675000Y-91265000D02*
X199215000Y-91265000D01*
D13*
X197945000Y-91265000D02*
X197945000Y-90376000D01*
D15*
X199215000Y-91265000D02*
X199215000Y-100155000D01*
D13*
%TO.C,C2*%
X221340000Y-35020000D02*
X224080000Y-35020000D01*
X221340000Y-35020000D02*
X221340000Y-26780000D01*
X224080000Y-35020000D02*
X224080000Y-26780000D01*
X221340000Y-26780000D02*
X224080000Y-26780000D01*
%TO.C,C4*%
X224080000Y-36940000D02*
X221340000Y-36940000D01*
X224080000Y-36940000D02*
X224080000Y-45180000D01*
X221340000Y-36940000D02*
X221340000Y-45180000D01*
X224080000Y-45180000D02*
X221340000Y-45180000D01*
%TO.C,S2*%
X231540000Y-133690000D02*
X231540000Y-159330000D01*
X231540000Y-159330000D02*
X241820000Y-159330000D01*
X234030000Y-133750000D02*
X234030000Y-159270000D01*
X234030000Y-159270000D02*
X239330000Y-159270000D01*
X235680000Y-133750000D02*
X234030000Y-133750000D01*
X239330000Y-133750000D02*
X237680000Y-133750000D01*
X239330000Y-159270000D02*
X239330000Y-133750000D01*
X241820000Y-133690000D02*
X231540000Y-133690000D01*
X241820000Y-159330000D02*
X241820000Y-133690000D01*
X235680000Y-133750000D02*
G75*
G03*
X237680000Y-133750000I1000000J0D01*
G01*
%TO.C,X1*%
X208755000Y-105350000D02*
X208755000Y-98950000D01*
X213805000Y-105350000D02*
X213805000Y-98950000D01*
X211280000Y-103200000D02*
X211280000Y-102822000D01*
X210010000Y-102822000D02*
X212550000Y-102822000D01*
X209756000Y-102568000D02*
X212804000Y-102568000D01*
X212804000Y-102568000D02*
X212804000Y-101806000D01*
X209756000Y-101806000D02*
X209756000Y-102568000D01*
X212804000Y-101806000D02*
X209756000Y-101806000D01*
X210010000Y-101552000D02*
X212550000Y-101552000D01*
X211280000Y-101100000D02*
X211280000Y-101552000D01*
X208755000Y-105350000D02*
G75*
G03*
X213805000Y-105350000I2525000J0D01*
G01*
X213805000Y-98950000D02*
G75*
G03*
X208755000Y-98950000I-2525000J0D01*
G01*
D15*
%TO.C,R2*%
X201120000Y-100155000D02*
X201120000Y-91265000D01*
D13*
X202390000Y-100155000D02*
X202390000Y-101044000D01*
D15*
X203660000Y-100155000D02*
X201120000Y-100155000D01*
X201120000Y-91265000D02*
X203660000Y-91265000D01*
D13*
X202390000Y-91265000D02*
X202390000Y-90376000D01*
D15*
X203660000Y-91265000D02*
X203660000Y-100155000D01*
%TD*%
D16*
X217731600Y-102110800D03*
X217610000Y-60290000D03*
X34800795Y-114659102D03*
X111077000Y-24421200D03*
X34750000Y-124158000D03*
X131397000Y-24421200D03*
X213790000Y-79830000D03*
X156670000Y-124158000D03*
X213870000Y-24610000D03*
X55070000Y-124158000D03*
X95710000Y-124158000D03*
X90503000Y-24421200D03*
X172037000Y-24421200D03*
X136096000Y-124158000D03*
X176990000Y-124412000D03*
X116284000Y-124158000D03*
X192230000Y-24610000D03*
X152352000Y-24421200D03*
X75136000Y-124158000D03*
X70691000Y-24421200D03*
X34369000Y-24463000D03*
X48085000Y-34115000D03*
X68856500Y-34115000D03*
X150320000Y-34115000D03*
X207470000Y-34115000D03*
X36020000Y-34115000D03*
X128700000Y-34115000D03*
X207450000Y-76180000D03*
X109045000Y-34115000D03*
X169370000Y-34115000D03*
X88090000Y-34115000D03*
X85550000Y-37290000D03*
X106505000Y-37290000D03*
X67135000Y-37290000D03*
X39195000Y-37290000D03*
X166830000Y-37290000D03*
X204260000Y-53960000D03*
X46180000Y-37290000D03*
X204295000Y-37290000D03*
X126190000Y-37290000D03*
X148415000Y-37290000D03*
X123650000Y-40465000D03*
X142065000Y-40465000D03*
X41100000Y-40465000D03*
X164925000Y-40465000D03*
X103965000Y-40465000D03*
X83010000Y-40465000D03*
X131270000Y-49482000D03*
X110950000Y-49228000D03*
X172164000Y-49228000D03*
X90630000Y-48974000D03*
X151590000Y-49482000D03*
X49736000Y-48974000D03*
X70226297Y-49143590D03*
X146510000Y-41100000D03*
X146510000Y-46100000D03*
X146510000Y-43640000D03*
X154130000Y-43640000D03*
X154130000Y-46180000D03*
X154130000Y-48720000D03*
X154130000Y-51260000D03*
X154130000Y-53800000D03*
X154130000Y-56340000D03*
X154130000Y-58880000D03*
X154130000Y-61420000D03*
X154130000Y-63960000D03*
X154130000Y-66500000D03*
X154130000Y-69040000D03*
X154130000Y-71580000D03*
X154130000Y-74120000D03*
X154130000Y-76660000D03*
X154130000Y-79200000D03*
X154130000Y-81740000D03*
X154130000Y-84280000D03*
X154130000Y-86820000D03*
X154130000Y-89360000D03*
X154130000Y-91900000D03*
X154130000Y-94440000D03*
X154130000Y-96980000D03*
X154130000Y-99520000D03*
X154130000Y-102060000D03*
X154130000Y-104600000D03*
X154130000Y-107140000D03*
X154130000Y-109680000D03*
X154130000Y-112220000D03*
X154130000Y-114760000D03*
X154130000Y-117300000D03*
X154130000Y-119840000D03*
X159210000Y-43640000D03*
X159210000Y-46180000D03*
X159210000Y-48720000D03*
X159210000Y-51260000D03*
X159210000Y-53800000D03*
X159210000Y-56340000D03*
X159210000Y-58880000D03*
X159210000Y-61420000D03*
X159210000Y-63960000D03*
X159210000Y-66500000D03*
X159210000Y-69040000D03*
X159210000Y-71580000D03*
X159210000Y-74120000D03*
X159210000Y-76660000D03*
X159210000Y-79200000D03*
X159210000Y-81740000D03*
X159210000Y-84280000D03*
X159210000Y-86820000D03*
X159210000Y-89360000D03*
X159210000Y-91900000D03*
X159210000Y-94440000D03*
X159210000Y-96980000D03*
X159210000Y-99520000D03*
X159210000Y-102060000D03*
X159210000Y-104600000D03*
X159210000Y-107140000D03*
X159210000Y-109680000D03*
X159210000Y-112220000D03*
X159210000Y-114760000D03*
X159210000Y-117300000D03*
X159210000Y-119840000D03*
X113490000Y-43640000D03*
X113490000Y-46180000D03*
X113490000Y-48720000D03*
X113490000Y-51260000D03*
X113490000Y-53800000D03*
X113490000Y-56340000D03*
X113490000Y-58880000D03*
X113490000Y-61420000D03*
X113490000Y-63960000D03*
X113490000Y-66500000D03*
X113490000Y-69040000D03*
X113490000Y-71580000D03*
X113490000Y-74120000D03*
X113490000Y-76660000D03*
X113490000Y-79200000D03*
X113490000Y-81740000D03*
X113490000Y-84280000D03*
X113490000Y-86820000D03*
X113490000Y-89360000D03*
X113490000Y-91900000D03*
X113490000Y-94440000D03*
X113490000Y-96980000D03*
X113490000Y-99520000D03*
X113490000Y-102060000D03*
X113490000Y-104600000D03*
X113490000Y-107140000D03*
X113490000Y-109680000D03*
X113490000Y-112220000D03*
X113490000Y-114760000D03*
X113490000Y-117300000D03*
X113490000Y-119840000D03*
X118570000Y-43640000D03*
X118570000Y-46180000D03*
X118570000Y-48720000D03*
X118570000Y-51260000D03*
X118570000Y-53800000D03*
X118570000Y-56340000D03*
X118570000Y-58880000D03*
X118570000Y-61420000D03*
X118570000Y-63960000D03*
X118570000Y-66500000D03*
X118570000Y-69040000D03*
X118570000Y-71580000D03*
X118570000Y-74120000D03*
X118570000Y-76660000D03*
X118570000Y-79200000D03*
X118570000Y-81740000D03*
X118570000Y-84280000D03*
X118570000Y-86820000D03*
X118570000Y-89360000D03*
X118570000Y-91900000D03*
X118570000Y-94440000D03*
X118570000Y-96980000D03*
X118570000Y-99520000D03*
X118570000Y-102060000D03*
X118570000Y-104600000D03*
X118570000Y-107140000D03*
X118570000Y-109680000D03*
X118570000Y-112220000D03*
X118570000Y-114760000D03*
X118570000Y-117300000D03*
X118570000Y-119840000D03*
X146510000Y-28400000D03*
X146510000Y-33400000D03*
X146510000Y-30940000D03*
X192230000Y-89360000D03*
X187230000Y-89360000D03*
X189690000Y-89360000D03*
X222862400Y-69120000D03*
X222862400Y-74120000D03*
X222862400Y-71660000D03*
X222710000Y-84280000D03*
X222710000Y-89280000D03*
X222710000Y-86820000D03*
X232918000Y-96980000D03*
X232918000Y-99520000D03*
X232918000Y-102060000D03*
X232918000Y-104600000D03*
X232918000Y-107140000D03*
X232918000Y-109680000D03*
X232918000Y-112220000D03*
X232918000Y-114760000D03*
X232918000Y-117300000D03*
X232918000Y-119840000D03*
X240538000Y-119840000D03*
X240538000Y-117300000D03*
X240538000Y-114760000D03*
X240538000Y-112220000D03*
X240538000Y-109680000D03*
X240538000Y-107140000D03*
X240538000Y-104600000D03*
X240538000Y-102060000D03*
X240538000Y-99520000D03*
X240538000Y-96980000D03*
X93170000Y-43640000D03*
X93170000Y-46180000D03*
X93170000Y-48720000D03*
X93170000Y-51260000D03*
X93170000Y-53800000D03*
X93170000Y-56340000D03*
X93170000Y-58880000D03*
X93170000Y-61420000D03*
X93170000Y-63960000D03*
X93170000Y-66500000D03*
X93170000Y-69040000D03*
X93170000Y-71580000D03*
X93170000Y-74120000D03*
X93170000Y-76660000D03*
X93170000Y-79200000D03*
X93170000Y-81740000D03*
X93170000Y-84280000D03*
X93170000Y-86820000D03*
X93170000Y-89360000D03*
X93170000Y-91900000D03*
X93170000Y-94440000D03*
X93170000Y-96980000D03*
X93170000Y-99520000D03*
X93170000Y-102060000D03*
X93170000Y-104600000D03*
X93170000Y-107140000D03*
X93170000Y-109680000D03*
X93170000Y-112220000D03*
X93170000Y-114760000D03*
X93170000Y-117300000D03*
X93170000Y-119840000D03*
X98250000Y-43640000D03*
X98250000Y-46180000D03*
X98250000Y-48720000D03*
X98250000Y-51260000D03*
X98250000Y-53800000D03*
X98250000Y-56340000D03*
X98250000Y-58880000D03*
X98250000Y-61420000D03*
X98250000Y-63960000D03*
X98250000Y-66500000D03*
X98250000Y-69040000D03*
X98250000Y-71580000D03*
X98250000Y-74120000D03*
X98250000Y-76660000D03*
X98250000Y-79200000D03*
X98250000Y-81740000D03*
X98250000Y-84280000D03*
X98250000Y-86820000D03*
X98250000Y-89360000D03*
X98250000Y-91900000D03*
X98250000Y-94440000D03*
X98250000Y-96980000D03*
X98250000Y-99520000D03*
X98250000Y-102060000D03*
X98250000Y-104600000D03*
X98250000Y-107140000D03*
X98250000Y-109680000D03*
X98250000Y-112220000D03*
X98250000Y-114760000D03*
X98250000Y-117300000D03*
X98250000Y-119840000D03*
X32210000Y-43640000D03*
X32210000Y-46180000D03*
X32210000Y-48720000D03*
X32210000Y-51260000D03*
X32210000Y-53800000D03*
X32210000Y-56340000D03*
X32210000Y-58880000D03*
X32210000Y-61420000D03*
X32210000Y-63960000D03*
X32210000Y-66500000D03*
X32210000Y-69040000D03*
X32210000Y-71580000D03*
X32210000Y-74120000D03*
X32210000Y-76660000D03*
X32210000Y-79200000D03*
X32210000Y-81740000D03*
X32210000Y-84280000D03*
X32210000Y-86820000D03*
X32210000Y-89360000D03*
X32210000Y-91900000D03*
X32210000Y-94440000D03*
X32210000Y-96980000D03*
X32210000Y-99520000D03*
X32210000Y-102060000D03*
X32210000Y-104600000D03*
X32210000Y-107140000D03*
X32210000Y-109680000D03*
X32210000Y-112220000D03*
X32210000Y-114760000D03*
X32210000Y-117300000D03*
X32210000Y-119840000D03*
X37290000Y-43640000D03*
X37290000Y-46180000D03*
X37290000Y-48720000D03*
X37290000Y-51260000D03*
X37290000Y-53800000D03*
X37290000Y-56340000D03*
X37290000Y-58880000D03*
X37290000Y-61420000D03*
X37290000Y-63960000D03*
X37290000Y-66500000D03*
X37290000Y-69040000D03*
X37290000Y-71580000D03*
X37290000Y-74120000D03*
X37290000Y-76660000D03*
X37290000Y-79200000D03*
X37290000Y-81740000D03*
X37290000Y-84280000D03*
X37290000Y-86820000D03*
X37290000Y-89360000D03*
X37290000Y-91900000D03*
X37290000Y-94440000D03*
X37290000Y-96980000D03*
X37290000Y-99520000D03*
X37290000Y-102060000D03*
X37290000Y-104600000D03*
X37290000Y-107140000D03*
X37290000Y-109680000D03*
X37290000Y-112220000D03*
X37290000Y-114760000D03*
X37290000Y-117300000D03*
X37290000Y-119840000D03*
X230330000Y-84280000D03*
X230330000Y-89280000D03*
X230330000Y-86820000D03*
X240500000Y-28650000D03*
X72850000Y-43640000D03*
X72850000Y-46180000D03*
X72850000Y-48720000D03*
X72850000Y-51260000D03*
X72850000Y-53800000D03*
X72850000Y-56340000D03*
X72850000Y-58880000D03*
X72850000Y-61420000D03*
X72850000Y-63960000D03*
X72850000Y-66500000D03*
X72850000Y-69040000D03*
X72850000Y-71580000D03*
X72850000Y-74120000D03*
X72850000Y-76660000D03*
X72850000Y-79200000D03*
X72850000Y-81740000D03*
X72850000Y-84280000D03*
X72850000Y-86820000D03*
X72850000Y-89360000D03*
X72850000Y-91900000D03*
X72850000Y-94440000D03*
X72850000Y-96980000D03*
X72850000Y-99520000D03*
X72850000Y-102060000D03*
X72850000Y-104600000D03*
X72850000Y-107140000D03*
X72850000Y-109680000D03*
X72850000Y-112220000D03*
X72850000Y-114760000D03*
X72850000Y-117300000D03*
X72850000Y-119840000D03*
X77930000Y-43640000D03*
X77930000Y-46180000D03*
X77930000Y-48720000D03*
X77930000Y-51260000D03*
X77930000Y-53800000D03*
X77930000Y-56340000D03*
X77930000Y-58880000D03*
X77930000Y-61420000D03*
X77930000Y-63960000D03*
X77930000Y-66500000D03*
X77930000Y-69040000D03*
X77930000Y-71580000D03*
X77930000Y-74120000D03*
X77930000Y-76660000D03*
X77930000Y-79200000D03*
X77930000Y-81740000D03*
X77930000Y-84280000D03*
X77930000Y-86820000D03*
X77930000Y-89360000D03*
X77930000Y-91900000D03*
X77930000Y-94440000D03*
X77930000Y-96980000D03*
X77930000Y-99520000D03*
X77930000Y-102060000D03*
X77930000Y-104600000D03*
X77930000Y-107140000D03*
X77930000Y-109680000D03*
X77930000Y-112220000D03*
X77930000Y-114760000D03*
X77930000Y-117300000D03*
X77930000Y-119840000D03*
X202390000Y-135080000D03*
X202390000Y-137620000D03*
X202390000Y-140160000D03*
X202390000Y-142700000D03*
X202390000Y-145240000D03*
X202390000Y-147780000D03*
X202390000Y-150320000D03*
X202390000Y-152860000D03*
X202390000Y-155400000D03*
X202390000Y-157940000D03*
X210010000Y-157940000D03*
X210010000Y-155400000D03*
X210010000Y-152860000D03*
X210010000Y-150320000D03*
X210010000Y-147780000D03*
X210010000Y-145240000D03*
X210010000Y-142700000D03*
X210010000Y-140160000D03*
X210010000Y-137620000D03*
X210010000Y-135080000D03*
X174450000Y-43640000D03*
X174450000Y-46180000D03*
X174450000Y-48720000D03*
X174450000Y-51260000D03*
X174450000Y-53800000D03*
X174450000Y-56340000D03*
X174450000Y-58880000D03*
X174450000Y-61420000D03*
X174450000Y-63960000D03*
X174450000Y-66500000D03*
X174450000Y-69040000D03*
X174450000Y-71580000D03*
X174450000Y-74120000D03*
X174450000Y-76660000D03*
X174450000Y-79200000D03*
X174450000Y-81740000D03*
X174450000Y-84280000D03*
X174450000Y-86820000D03*
X174450000Y-89360000D03*
X174450000Y-91900000D03*
X174450000Y-94440000D03*
X174450000Y-96980000D03*
X174450000Y-99520000D03*
X174450000Y-102060000D03*
X174450000Y-104600000D03*
X174450000Y-107140000D03*
X174450000Y-109680000D03*
X174450000Y-112220000D03*
X174450000Y-114760000D03*
X174450000Y-117300000D03*
X174450000Y-119840000D03*
X179530000Y-43640000D03*
X179530000Y-46180000D03*
X179530000Y-48720000D03*
X179530000Y-51260000D03*
X179530000Y-53800000D03*
X179530000Y-56340000D03*
X179530000Y-58880000D03*
X179530000Y-61420000D03*
X179530000Y-63960000D03*
X179530000Y-66500000D03*
X179530000Y-69040000D03*
X179530000Y-71580000D03*
X179530000Y-74120000D03*
X179530000Y-76660000D03*
X179530000Y-79200000D03*
X179530000Y-81740000D03*
X179530000Y-84280000D03*
X179530000Y-86820000D03*
X179530000Y-89360000D03*
X179530000Y-91900000D03*
X179530000Y-94440000D03*
X179530000Y-96980000D03*
X179530000Y-99520000D03*
X179530000Y-102060000D03*
X179530000Y-104600000D03*
X179530000Y-107140000D03*
X179530000Y-109680000D03*
X179530000Y-112220000D03*
X179530000Y-114760000D03*
X179530000Y-117300000D03*
X179530000Y-119840000D03*
X217630000Y-135080000D03*
X217630000Y-137620000D03*
X217630000Y-140160000D03*
X217630000Y-142700000D03*
X217630000Y-145240000D03*
X217630000Y-147780000D03*
X217630000Y-150320000D03*
X217630000Y-152860000D03*
X217630000Y-155400000D03*
X217630000Y-157940000D03*
X225250000Y-157940000D03*
X225250000Y-155400000D03*
X225250000Y-152860000D03*
X225250000Y-150320000D03*
X225250000Y-147780000D03*
X225250000Y-145240000D03*
X225250000Y-142700000D03*
X225250000Y-140160000D03*
X225250000Y-137620000D03*
X225250000Y-135080000D03*
X146608000Y-129398000D03*
X146608000Y-124398000D03*
X146608000Y-126858000D03*
X133810000Y-43640000D03*
X133810000Y-46180000D03*
X133810000Y-48720000D03*
X133810000Y-51260000D03*
X133810000Y-53800000D03*
X133810000Y-56340000D03*
X133810000Y-58880000D03*
X133810000Y-61420000D03*
X133810000Y-63960000D03*
X133810000Y-66500000D03*
X133810000Y-69040000D03*
X133810000Y-71580000D03*
X133810000Y-74120000D03*
X133810000Y-76660000D03*
X133810000Y-79200000D03*
X133810000Y-81740000D03*
X133810000Y-84280000D03*
X133810000Y-86820000D03*
X133810000Y-89360000D03*
X133810000Y-91900000D03*
X133810000Y-94440000D03*
X133810000Y-96980000D03*
X133810000Y-99520000D03*
X133810000Y-102060000D03*
X133810000Y-104600000D03*
X133810000Y-107140000D03*
X133810000Y-109680000D03*
X133810000Y-112220000D03*
X133810000Y-114760000D03*
X133810000Y-117300000D03*
X133810000Y-119840000D03*
X138890000Y-43640000D03*
X138890000Y-46180000D03*
X138890000Y-48720000D03*
X138890000Y-51260000D03*
X138890000Y-53800000D03*
X138890000Y-56340000D03*
X138890000Y-58880000D03*
X138890000Y-61420000D03*
X138890000Y-63960000D03*
X138890000Y-66500000D03*
X138890000Y-69040000D03*
X138890000Y-71580000D03*
X138890000Y-74120000D03*
X138890000Y-76660000D03*
X138890000Y-79200000D03*
X138890000Y-81740000D03*
X138890000Y-84280000D03*
X138890000Y-86820000D03*
X138890000Y-89360000D03*
X138890000Y-91900000D03*
X138890000Y-94440000D03*
X138890000Y-96980000D03*
X138890000Y-99520000D03*
X138890000Y-102060000D03*
X138890000Y-104600000D03*
X138890000Y-107140000D03*
X138890000Y-109680000D03*
X138890000Y-112220000D03*
X138890000Y-114760000D03*
X138890000Y-117300000D03*
X138890000Y-119840000D03*
X208740000Y-116030000D03*
X202390000Y-119840000D03*
X202390000Y-112220000D03*
X65230000Y-41100000D03*
X65230000Y-46100000D03*
X65230000Y-43640000D03*
X230431600Y-69090800D03*
X230431600Y-74090800D03*
X230431600Y-71630800D03*
X230330000Y-33400000D03*
X230330000Y-28400000D03*
X230330000Y-30860000D03*
X52530000Y-43640000D03*
X52530000Y-46180000D03*
X52530000Y-48720000D03*
X52530000Y-51260000D03*
X52530000Y-53800000D03*
X52530000Y-56340000D03*
X52530000Y-58880000D03*
X52530000Y-61420000D03*
X52530000Y-63960000D03*
X52530000Y-66500000D03*
X52530000Y-69040000D03*
X52530000Y-71580000D03*
X52530000Y-74120000D03*
X52530000Y-76660000D03*
X52530000Y-79200000D03*
X52530000Y-81740000D03*
X52530000Y-84280000D03*
X52530000Y-86820000D03*
X52530000Y-89360000D03*
X52530000Y-91900000D03*
X52530000Y-94440000D03*
X52530000Y-96980000D03*
X52530000Y-99520000D03*
X52530000Y-102060000D03*
X52530000Y-104600000D03*
X52530000Y-107140000D03*
X52530000Y-109680000D03*
X52530000Y-112220000D03*
X52530000Y-114760000D03*
X52530000Y-117300000D03*
X52530000Y-119840000D03*
X57610000Y-43640000D03*
X57610000Y-46180000D03*
X57610000Y-48720000D03*
X57610000Y-51260000D03*
X57610000Y-53800000D03*
X57610000Y-56340000D03*
X57610000Y-58880000D03*
X57610000Y-61420000D03*
X57610000Y-63960000D03*
X57610000Y-66500000D03*
X57610000Y-69040000D03*
X57610000Y-71580000D03*
X57610000Y-74120000D03*
X57610000Y-76660000D03*
X57610000Y-79200000D03*
X57610000Y-81740000D03*
X57610000Y-84280000D03*
X57610000Y-86820000D03*
X57610000Y-89360000D03*
X57610000Y-91900000D03*
X57610000Y-94440000D03*
X57610000Y-96980000D03*
X57610000Y-99520000D03*
X57610000Y-102060000D03*
X57610000Y-104600000D03*
X57610000Y-107140000D03*
X57610000Y-109680000D03*
X57610000Y-112220000D03*
X57610000Y-114760000D03*
X57610000Y-117300000D03*
X57610000Y-119840000D03*
X240744000Y-44206000D03*
X240744000Y-48166000D03*
X240744000Y-52126000D03*
X240744000Y-56086000D03*
X240744000Y-60046000D03*
X240744000Y-64006000D03*
X47450000Y-129920000D03*
X47450000Y-124920000D03*
X47450000Y-127380000D03*
X240744000Y-68128000D03*
X240744000Y-72088000D03*
X240744000Y-76048000D03*
X240744000Y-80008000D03*
X240744000Y-83968000D03*
X240744000Y-87928000D03*
X187150000Y-99520000D03*
X187150000Y-102060000D03*
X187150000Y-104600000D03*
X187150000Y-107140000D03*
X187150000Y-109680000D03*
X187150000Y-112220000D03*
X187150000Y-114760000D03*
X187150000Y-117300000D03*
X187150000Y-119840000D03*
X194770000Y-119840000D03*
X194770000Y-117300000D03*
X194770000Y-114760000D03*
X194770000Y-112220000D03*
X194770000Y-109680000D03*
X194770000Y-107140000D03*
X194770000Y-104600000D03*
X194770000Y-102060000D03*
X194770000Y-99520000D03*
X65230000Y-28400000D03*
X65230000Y-33400000D03*
X65230000Y-30940000D03*
X197945000Y-102060000D03*
X197945000Y-89360000D03*
X222710000Y-33400000D03*
X222710000Y-28400000D03*
X222710000Y-30860000D03*
X222710000Y-38560000D03*
X222710000Y-43560000D03*
X222710000Y-41100000D03*
X232870000Y-135080000D03*
X232870000Y-137620000D03*
X232870000Y-140160000D03*
X232870000Y-142700000D03*
X232870000Y-145240000D03*
X232870000Y-147780000D03*
X232870000Y-150320000D03*
X232870000Y-152860000D03*
X232870000Y-155400000D03*
X232870000Y-157940000D03*
X240490000Y-157940000D03*
X240490000Y-155400000D03*
X240490000Y-152860000D03*
X240490000Y-150320000D03*
X240490000Y-147780000D03*
X240490000Y-145240000D03*
X240490000Y-142700000D03*
X240490000Y-140160000D03*
X240490000Y-137620000D03*
X240490000Y-135080000D03*
X211280000Y-104600000D03*
X211280000Y-99700000D03*
X202390000Y-102060000D03*
X202390000Y-89360000D03*
M02*
