M48
METRIC,TZ
T1C0.500
T2C0.750
T3C0.800
T4C1.000
T5C1.000
T6C1.250
T7C1.500
T8C1.850
T9C2.540
T10C4.000
%
G90
G05
T1
X34801Y-114659
X70691Y-24421
X90503Y-24421
X111077Y-24421
X131397Y-24421
X152352Y-24421
X172037Y-24421
X192230Y-24610
X217732Y-102111
T2
X49736Y-48974
X70226Y-49144
X90630Y-48974
X110950Y-49228
X131270Y-49482
X151590Y-49482
X172164Y-49228
T3
X47450Y-124920
X47450Y-127380
X47450Y-129920
X65230Y-28400
X65230Y-30940
X65230Y-33400
X65230Y-41100
X65230Y-43640
X65230Y-46100
X146510Y-28400
X146510Y-30940
X146510Y-33400
X146510Y-41100
X146510Y-43640
X146510Y-46100
X146608Y-124398
X146608Y-126858
X146608Y-129398
X187150Y-99520
X187150Y-102060
X187150Y-104600
X187150Y-107140
X187150Y-109680
X187150Y-112220
X187150Y-114760
X187150Y-117300
X187150Y-119840
X187230Y-89360
X189690Y-89360
X192230Y-89360
X194770Y-99520
X194770Y-102060
X194770Y-104600
X194770Y-107140
X194770Y-109680
X194770Y-112220
X194770Y-114760
X194770Y-117300
X194770Y-119840
X197945Y-89360
X197945Y-102060
X202390Y-89360
X202390Y-102060
X202390Y-135080
X202390Y-137620
X202390Y-140160
X202390Y-142700
X202390Y-145240
X202390Y-147780
X202390Y-150320
X202390Y-152860
X202390Y-155400
X202390Y-157940
X210010Y-135080
X210010Y-137620
X210010Y-140160
X210010Y-142700
X210010Y-145240
X210010Y-147780
X210010Y-150320
X210010Y-152860
X210010Y-155400
X210010Y-157940
X217630Y-135080
X217630Y-137620
X217630Y-140160
X217630Y-142700
X217630Y-145240
X217630Y-147780
X217630Y-150320
X217630Y-152860
X217630Y-155400
X217630Y-157940
X222710Y-28400
X222710Y-30860
X222710Y-33400
X222710Y-38560
X222710Y-41100
X222710Y-43560
X222710Y-84280
X222710Y-86820
X222710Y-89280
X222862Y-69120
X222862Y-71660
X222862Y-74120
X225250Y-135080
X225250Y-137620
X225250Y-140160
X225250Y-142700
X225250Y-145240
X225250Y-147780
X225250Y-150320
X225250Y-152860
X225250Y-155400
X225250Y-157940
X230330Y-28400
X230330Y-30860
X230330Y-33400
X230330Y-84280
X230330Y-86820
X230330Y-89280
X230432Y-69091
X230432Y-71631
X230432Y-74091
X232870Y-135080
X232870Y-137620
X232870Y-140160
X232870Y-142700
X232870Y-145240
X232870Y-147780
X232870Y-150320
X232870Y-152860
X232870Y-155400
X232870Y-157940
X232918Y-96980
X232918Y-99520
X232918Y-102060
X232918Y-104600
X232918Y-107140
X232918Y-109680
X232918Y-112220
X232918Y-114760
X232918Y-117300
X232918Y-119840
X240490Y-135080
X240490Y-137620
X240490Y-140160
X240490Y-142700
X240490Y-145240
X240490Y-147780
X240490Y-150320
X240490Y-152860
X240490Y-155400
X240490Y-157940
X240538Y-96980
X240538Y-99520
X240538Y-102060
X240538Y-104600
X240538Y-107140
X240538Y-109680
X240538Y-112220
X240538Y-114760
X240538Y-117300
X240538Y-119840
T4
X36020Y-34115
X39195Y-37290
X41100Y-40465
X46180Y-37290
X48085Y-34115
X55070Y-124158
X67135Y-37290
X68857Y-34115
X75136Y-124158
X83010Y-40465
X85550Y-37290
X88090Y-34115
X95710Y-124158
X103965Y-40465
X106505Y-37290
X109045Y-34115
X116284Y-124158
X123650Y-40465
X126190Y-37290
X128700Y-34115
X136096Y-124158
X142065Y-40465
X148415Y-37290
X150320Y-34115
X156670Y-124158
X164925Y-40465
X166830Y-37290
X169370Y-34115
X176990Y-124412
T5
X32210Y-43640
X32210Y-46180
X32210Y-48720
X32210Y-51260
X32210Y-53800
X32210Y-56340
X32210Y-58880
X32210Y-61420
X32210Y-63960
X32210Y-66500
X32210Y-69040
X32210Y-71580
X32210Y-74120
X32210Y-76660
X32210Y-79200
X32210Y-81740
X32210Y-84280
X32210Y-86820
X32210Y-89360
X32210Y-91900
X32210Y-94440
X32210Y-96980
X32210Y-99520
X32210Y-102060
X32210Y-104600
X32210Y-107140
X32210Y-109680
X32210Y-112220
X32210Y-114760
X32210Y-117300
X32210Y-119840
X37290Y-43640
X37290Y-46180
X37290Y-48720
X37290Y-51260
X37290Y-53800
X37290Y-56340
X37290Y-58880
X37290Y-61420
X37290Y-63960
X37290Y-66500
X37290Y-69040
X37290Y-71580
X37290Y-74120
X37290Y-76660
X37290Y-79200
X37290Y-81740
X37290Y-84280
X37290Y-86820
X37290Y-89360
X37290Y-91900
X37290Y-94440
X37290Y-96980
X37290Y-99520
X37290Y-102060
X37290Y-104600
X37290Y-107140
X37290Y-109680
X37290Y-112220
X37290Y-114760
X37290Y-117300
X37290Y-119840
X52530Y-43640
X52530Y-46180
X52530Y-48720
X52530Y-51260
X52530Y-53800
X52530Y-56340
X52530Y-58880
X52530Y-61420
X52530Y-63960
X52530Y-66500
X52530Y-69040
X52530Y-71580
X52530Y-74120
X52530Y-76660
X52530Y-79200
X52530Y-81740
X52530Y-84280
X52530Y-86820
X52530Y-89360
X52530Y-91900
X52530Y-94440
X52530Y-96980
X52530Y-99520
X52530Y-102060
X52530Y-104600
X52530Y-107140
X52530Y-109680
X52530Y-112220
X52530Y-114760
X52530Y-117300
X52530Y-119840
X57610Y-43640
X57610Y-46180
X57610Y-48720
X57610Y-51260
X57610Y-53800
X57610Y-56340
X57610Y-58880
X57610Y-61420
X57610Y-63960
X57610Y-66500
X57610Y-69040
X57610Y-71580
X57610Y-74120
X57610Y-76660
X57610Y-79200
X57610Y-81740
X57610Y-84280
X57610Y-86820
X57610Y-89360
X57610Y-91900
X57610Y-94440
X57610Y-96980
X57610Y-99520
X57610Y-102060
X57610Y-104600
X57610Y-107140
X57610Y-109680
X57610Y-112220
X57610Y-114760
X57610Y-117300
X57610Y-119840
X72850Y-43640
X72850Y-46180
X72850Y-48720
X72850Y-51260
X72850Y-53800
X72850Y-56340
X72850Y-58880
X72850Y-61420
X72850Y-63960
X72850Y-66500
X72850Y-69040
X72850Y-71580
X72850Y-74120
X72850Y-76660
X72850Y-79200
X72850Y-81740
X72850Y-84280
X72850Y-86820
X72850Y-89360
X72850Y-91900
X72850Y-94440
X72850Y-96980
X72850Y-99520
X72850Y-102060
X72850Y-104600
X72850Y-107140
X72850Y-109680
X72850Y-112220
X72850Y-114760
X72850Y-117300
X72850Y-119840
X77930Y-43640
X77930Y-46180
X77930Y-48720
X77930Y-51260
X77930Y-53800
X77930Y-56340
X77930Y-58880
X77930Y-61420
X77930Y-63960
X77930Y-66500
X77930Y-69040
X77930Y-71580
X77930Y-74120
X77930Y-76660
X77930Y-79200
X77930Y-81740
X77930Y-84280
X77930Y-86820
X77930Y-89360
X77930Y-91900
X77930Y-94440
X77930Y-96980
X77930Y-99520
X77930Y-102060
X77930Y-104600
X77930Y-107140
X77930Y-109680
X77930Y-112220
X77930Y-114760
X77930Y-117300
X77930Y-119840
X93170Y-43640
X93170Y-46180
X93170Y-48720
X93170Y-51260
X93170Y-53800
X93170Y-56340
X93170Y-58880
X93170Y-61420
X93170Y-63960
X93170Y-66500
X93170Y-69040
X93170Y-71580
X93170Y-74120
X93170Y-76660
X93170Y-79200
X93170Y-81740
X93170Y-84280
X93170Y-86820
X93170Y-89360
X93170Y-91900
X93170Y-94440
X93170Y-96980
X93170Y-99520
X93170Y-102060
X93170Y-104600
X93170Y-107140
X93170Y-109680
X93170Y-112220
X93170Y-114760
X93170Y-117300
X93170Y-119840
X98250Y-43640
X98250Y-46180
X98250Y-48720
X98250Y-51260
X98250Y-53800
X98250Y-56340
X98250Y-58880
X98250Y-61420
X98250Y-63960
X98250Y-66500
X98250Y-69040
X98250Y-71580
X98250Y-74120
X98250Y-76660
X98250Y-79200
X98250Y-81740
X98250Y-84280
X98250Y-86820
X98250Y-89360
X98250Y-91900
X98250Y-94440
X98250Y-96980
X98250Y-99520
X98250Y-102060
X98250Y-104600
X98250Y-107140
X98250Y-109680
X98250Y-112220
X98250Y-114760
X98250Y-117300
X98250Y-119840
X113490Y-43640
X113490Y-46180
X113490Y-48720
X113490Y-51260
X113490Y-53800
X113490Y-56340
X113490Y-58880
X113490Y-61420
X113490Y-63960
X113490Y-66500
X113490Y-69040
X113490Y-71580
X113490Y-74120
X113490Y-76660
X113490Y-79200
X113490Y-81740
X113490Y-84280
X113490Y-86820
X113490Y-89360
X113490Y-91900
X113490Y-94440
X113490Y-96980
X113490Y-99520
X113490Y-102060
X113490Y-104600
X113490Y-107140
X113490Y-109680
X113490Y-112220
X113490Y-114760
X113490Y-117300
X113490Y-119840
X118570Y-43640
X118570Y-46180
X118570Y-48720
X118570Y-51260
X118570Y-53800
X118570Y-56340
X118570Y-58880
X118570Y-61420
X118570Y-63960
X118570Y-66500
X118570Y-69040
X118570Y-71580
X118570Y-74120
X118570Y-76660
X118570Y-79200
X118570Y-81740
X118570Y-84280
X118570Y-86820
X118570Y-89360
X118570Y-91900
X118570Y-94440
X118570Y-96980
X118570Y-99520
X118570Y-102060
X118570Y-104600
X118570Y-107140
X118570Y-109680
X118570Y-112220
X118570Y-114760
X118570Y-117300
X118570Y-119840
X133810Y-43640
X133810Y-46180
X133810Y-48720
X133810Y-51260
X133810Y-53800
X133810Y-56340
X133810Y-58880
X133810Y-61420
X133810Y-63960
X133810Y-66500
X133810Y-69040
X133810Y-71580
X133810Y-74120
X133810Y-76660
X133810Y-79200
X133810Y-81740
X133810Y-84280
X133810Y-86820
X133810Y-89360
X133810Y-91900
X133810Y-94440
X133810Y-96980
X133810Y-99520
X133810Y-102060
X133810Y-104600
X133810Y-107140
X133810Y-109680
X133810Y-112220
X133810Y-114760
X133810Y-117300
X133810Y-119840
X138890Y-43640
X138890Y-46180
X138890Y-48720
X138890Y-51260
X138890Y-53800
X138890Y-56340
X138890Y-58880
X138890Y-61420
X138890Y-63960
X138890Y-66500
X138890Y-69040
X138890Y-71580
X138890Y-74120
X138890Y-76660
X138890Y-79200
X138890Y-81740
X138890Y-84280
X138890Y-86820
X138890Y-89360
X138890Y-91900
X138890Y-94440
X138890Y-96980
X138890Y-99520
X138890Y-102060
X138890Y-104600
X138890Y-107140
X138890Y-109680
X138890Y-112220
X138890Y-114760
X138890Y-117300
X138890Y-119840
X154130Y-43640
X154130Y-46180
X154130Y-48720
X154130Y-51260
X154130Y-53800
X154130Y-56340
X154130Y-58880
X154130Y-61420
X154130Y-63960
X154130Y-66500
X154130Y-69040
X154130Y-71580
X154130Y-74120
X154130Y-76660
X154130Y-79200
X154130Y-81740
X154130Y-84280
X154130Y-86820
X154130Y-89360
X154130Y-91900
X154130Y-94440
X154130Y-96980
X154130Y-99520
X154130Y-102060
X154130Y-104600
X154130Y-107140
X154130Y-109680
X154130Y-112220
X154130Y-114760
X154130Y-117300
X154130Y-119840
X159210Y-43640
X159210Y-46180
X159210Y-48720
X159210Y-51260
X159210Y-53800
X159210Y-56340
X159210Y-58880
X159210Y-61420
X159210Y-63960
X159210Y-66500
X159210Y-69040
X159210Y-71580
X159210Y-74120
X159210Y-76660
X159210Y-79200
X159210Y-81740
X159210Y-84280
X159210Y-86820
X159210Y-89360
X159210Y-91900
X159210Y-94440
X159210Y-96980
X159210Y-99520
X159210Y-102060
X159210Y-104600
X159210Y-107140
X159210Y-109680
X159210Y-112220
X159210Y-114760
X159210Y-117300
X159210Y-119840
X174450Y-43640
X174450Y-46180
X174450Y-48720
X174450Y-51260
X174450Y-53800
X174450Y-56340
X174450Y-58880
X174450Y-61420
X174450Y-63960
X174450Y-66500
X174450Y-69040
X174450Y-71580
X174450Y-74120
X174450Y-76660
X174450Y-79200
X174450Y-81740
X174450Y-84280
X174450Y-86820
X174450Y-89360
X174450Y-91900
X174450Y-94440
X174450Y-96980
X174450Y-99520
X174450Y-102060
X174450Y-104600
X174450Y-107140
X174450Y-109680
X174450Y-112220
X174450Y-114760
X174450Y-117300
X174450Y-119840
X179530Y-43640
X179530Y-46180
X179530Y-48720
X179530Y-51260
X179530Y-53800
X179530Y-56340
X179530Y-58880
X179530Y-61420
X179530Y-63960
X179530Y-66500
X179530Y-69040
X179530Y-71580
X179530Y-74120
X179530Y-76660
X179530Y-79200
X179530Y-81740
X179530Y-84280
X179530Y-86820
X179530Y-89360
X179530Y-91900
X179530Y-94440
X179530Y-96980
X179530Y-99520
X179530Y-102060
X179530Y-104600
X179530Y-107140
X179530Y-109680
X179530Y-112220
X179530Y-114760
X179530Y-117300
X179530Y-119840
T6
X34369Y-24463
X34750Y-124158
X204260Y-53960
X204295Y-37290
X207450Y-76180
X207470Y-34115
X213790Y-79830
X213870Y-24610
X217610Y-60290
T7
X211280Y-99700
X211280Y-104600
T8
X240744Y-44206
X240744Y-48166
X240744Y-52126
X240744Y-56086
X240744Y-60046
X240744Y-64006
X240744Y-68128
X240744Y-72088
X240744Y-76048
X240744Y-80008
X240744Y-83968
X240744Y-87928
T9
X202390Y-112220
X202390Y-119840
X208740Y-116030
T10
X240500Y-28650
T0
M30
