%TF.GenerationSoftware,KiCad,Pcbnew,7.0.5*%
%TF.CreationDate,2023-08-20T22:51:19-05:00*%
%TF.ProjectId,ibm5161-backplane,69626d35-3136-4312-9d62-61636b706c61,rev?*%
%TF.SameCoordinates,Original*%
%TF.FileFunction,Drillmap*%
%TF.FilePolarity,Positive*%
%FSLAX45Y45*%
G04 Gerber Fmt 4.5, Leading zero omitted, Abs format (unit mm)*
G04 Created by KiCad (PCBNEW 7.0.5) date 2023-08-20 22:51:19*
%MOMM*%
%LPD*%
G01*
G04 APERTURE LIST*
%ADD10C,0.100000*%
%ADD11C,0.150000*%
%ADD12C,0.200000*%
G04 APERTURE END LIST*
D10*
X20188200Y-17038600D02*
G75*
G03*
X20188200Y-17038600I-200000J0D01*
G01*
X12568200Y-2890800D02*
G75*
G03*
X12568200Y-2890800I-200000J0D01*
G01*
X12593600Y-17038600D02*
G75*
G03*
X12593600Y-17038600I-200000J0D01*
G01*
X4999000Y-17064000D02*
G75*
G03*
X4999000Y-17064000I-200000J0D01*
G01*
X4970400Y-2859790D02*
G75*
G03*
X4970400Y-2859790I-200000J0D01*
G01*
D11*
X2996320Y-1844000D02*
X24545680Y-1844000D01*
X24545680Y-17566600D01*
X2996320Y-17566600D01*
X2996320Y-1844000D01*
D12*
X3249597Y-17885584D02*
X3249597Y-17685584D01*
X3249597Y-17685584D02*
X3297216Y-17685584D01*
X3297216Y-17685584D02*
X3325787Y-17695108D01*
X3325787Y-17695108D02*
X3344835Y-17714155D01*
X3344835Y-17714155D02*
X3354359Y-17733203D01*
X3354359Y-17733203D02*
X3363882Y-17771298D01*
X3363882Y-17771298D02*
X3363882Y-17799870D01*
X3363882Y-17799870D02*
X3354359Y-17837965D01*
X3354359Y-17837965D02*
X3344835Y-17857012D01*
X3344835Y-17857012D02*
X3325787Y-17876060D01*
X3325787Y-17876060D02*
X3297216Y-17885584D01*
X3297216Y-17885584D02*
X3249597Y-17885584D01*
X3449597Y-17885584D02*
X3449597Y-17752250D01*
X3449597Y-17790346D02*
X3459121Y-17771298D01*
X3459121Y-17771298D02*
X3468644Y-17761774D01*
X3468644Y-17761774D02*
X3487692Y-17752250D01*
X3487692Y-17752250D02*
X3506740Y-17752250D01*
X3573406Y-17885584D02*
X3573406Y-17752250D01*
X3573406Y-17685584D02*
X3563882Y-17695108D01*
X3563882Y-17695108D02*
X3573406Y-17704631D01*
X3573406Y-17704631D02*
X3582930Y-17695108D01*
X3582930Y-17695108D02*
X3573406Y-17685584D01*
X3573406Y-17685584D02*
X3573406Y-17704631D01*
X3697216Y-17885584D02*
X3678168Y-17876060D01*
X3678168Y-17876060D02*
X3668644Y-17857012D01*
X3668644Y-17857012D02*
X3668644Y-17685584D01*
X3801978Y-17885584D02*
X3782930Y-17876060D01*
X3782930Y-17876060D02*
X3773406Y-17857012D01*
X3773406Y-17857012D02*
X3773406Y-17685584D01*
X4030549Y-17885584D02*
X4030549Y-17685584D01*
X4030549Y-17685584D02*
X4097216Y-17828441D01*
X4097216Y-17828441D02*
X4163882Y-17685584D01*
X4163882Y-17685584D02*
X4163882Y-17885584D01*
X4344835Y-17885584D02*
X4344835Y-17780822D01*
X4344835Y-17780822D02*
X4335311Y-17761774D01*
X4335311Y-17761774D02*
X4316264Y-17752250D01*
X4316264Y-17752250D02*
X4278168Y-17752250D01*
X4278168Y-17752250D02*
X4259121Y-17761774D01*
X4344835Y-17876060D02*
X4325787Y-17885584D01*
X4325787Y-17885584D02*
X4278168Y-17885584D01*
X4278168Y-17885584D02*
X4259121Y-17876060D01*
X4259121Y-17876060D02*
X4249597Y-17857012D01*
X4249597Y-17857012D02*
X4249597Y-17837965D01*
X4249597Y-17837965D02*
X4259121Y-17818917D01*
X4259121Y-17818917D02*
X4278168Y-17809393D01*
X4278168Y-17809393D02*
X4325787Y-17809393D01*
X4325787Y-17809393D02*
X4344835Y-17799870D01*
X4440073Y-17752250D02*
X4440073Y-17952250D01*
X4440073Y-17761774D02*
X4459121Y-17752250D01*
X4459121Y-17752250D02*
X4497216Y-17752250D01*
X4497216Y-17752250D02*
X4516264Y-17761774D01*
X4516264Y-17761774D02*
X4525787Y-17771298D01*
X4525787Y-17771298D02*
X4535311Y-17790346D01*
X4535311Y-17790346D02*
X4535311Y-17847489D01*
X4535311Y-17847489D02*
X4525787Y-17866536D01*
X4525787Y-17866536D02*
X4516264Y-17876060D01*
X4516264Y-17876060D02*
X4497216Y-17885584D01*
X4497216Y-17885584D02*
X4459121Y-17885584D01*
X4459121Y-17885584D02*
X4440073Y-17876060D01*
X4621025Y-17866536D02*
X4630549Y-17876060D01*
X4630549Y-17876060D02*
X4621025Y-17885584D01*
X4621025Y-17885584D02*
X4611502Y-17876060D01*
X4611502Y-17876060D02*
X4621025Y-17866536D01*
X4621025Y-17866536D02*
X4621025Y-17885584D01*
X4621025Y-17761774D02*
X4630549Y-17771298D01*
X4630549Y-17771298D02*
X4621025Y-17780822D01*
X4621025Y-17780822D02*
X4611502Y-17771298D01*
X4611502Y-17771298D02*
X4621025Y-17761774D01*
X4621025Y-17761774D02*
X4621025Y-17780822D01*
M02*
