M48
; DRILL file {KiCad 7.0.5} date Sun Aug 20 22:51:18 2023
; FORMAT={-:-/ absolute / inch / decimal}
; #@! TF.CreationDate,2023-08-20T22:51:18-05:00
; #@! TF.GenerationSoftware,Kicad,Pcbnew,7.0.5
; #@! TF.FileFunction,Plated,1,2,PTH
FMAT,2
INCH
; #@! TA.AperFunction,Plated,PTH,ViaDrill
T1C0.0197
; #@! TA.AperFunction,Plated,PTH,ViaDrill
T2C0.0295
; #@! TA.AperFunction,Plated,PTH,ComponentDrill
T3C0.0315
; #@! TA.AperFunction,Plated,PTH,ViaDrill
T4C0.0394
; #@! TA.AperFunction,Plated,PTH,ComponentDrill
T5C0.0394
; #@! TA.AperFunction,Plated,PTH,ViaDrill
T6C0.0492
; #@! TA.AperFunction,Plated,PTH,ComponentDrill
T7C0.0591
; #@! TA.AperFunction,Plated,PTH,ComponentDrill
T8C0.0728
; #@! TA.AperFunction,Plated,PTH,ComponentDrill
T9C0.1000
; #@! TA.AperFunction,Plated,PTH,ComponentDrill
T10C0.1575
%
G90
G05
T1
X1.3701Y-4.5141
X2.7831Y-0.9615
X3.5631Y-0.9615
X4.3731Y-0.9615
X5.1731Y-0.9615
X5.9981Y-0.9615
X6.7731Y-0.9615
X7.5681Y-0.9689
X8.5721Y-4.0201
T2
X1.9581Y-1.9281
X2.7648Y-1.9348
X3.5681Y-1.9281
X4.3681Y-1.9381
X5.1681Y-1.9481
X5.9681Y-1.9481
X6.7781Y-1.9381
T3
X1.8681Y-4.9181
X1.8681Y-5.015
X1.8681Y-5.115
X2.5681Y-1.1181
X2.5681Y-1.2181
X2.5681Y-1.315
X2.5681Y-1.6181
X2.5681Y-1.7181
X2.5681Y-1.815
X5.7681Y-1.1181
X5.7681Y-1.2181
X5.7681Y-1.315
X5.7681Y-1.6181
X5.7681Y-1.7181
X5.7681Y-1.815
X5.772Y-4.8976
X5.772Y-4.9944
X5.772Y-5.0944
X7.3681Y-3.9181
X7.3681Y-4.0181
X7.3681Y-4.1181
X7.3681Y-4.2181
X7.3681Y-4.3181
X7.3681Y-4.4181
X7.3681Y-4.5181
X7.3681Y-4.6181
X7.3681Y-4.7181
X7.3713Y-3.5181
X7.4681Y-3.5181
X7.5681Y-3.5181
X7.6681Y-3.9181
X7.6681Y-4.0181
X7.6681Y-4.1181
X7.6681Y-4.2181
X7.6681Y-4.3181
X7.6681Y-4.4181
X7.6681Y-4.5181
X7.6681Y-4.6181
X7.6681Y-4.7181
X7.7931Y-3.5181
X7.7931Y-4.0181
X7.9681Y-3.5181
X7.9681Y-4.0181
X7.9681Y-5.3181
X7.9681Y-5.4181
X7.9681Y-5.5181
X7.9681Y-5.6181
X7.9681Y-5.7181
X7.9681Y-5.8181
X7.9681Y-5.9181
X7.9681Y-6.0181
X7.9681Y-6.1181
X7.9681Y-6.2181
X8.2681Y-5.3181
X8.2681Y-5.4181
X8.2681Y-5.5181
X8.2681Y-5.6181
X8.2681Y-5.7181
X8.2681Y-5.8181
X8.2681Y-5.9181
X8.2681Y-6.0181
X8.2681Y-6.1181
X8.2681Y-6.2181
X8.5681Y-5.3181
X8.5681Y-5.4181
X8.5681Y-5.5181
X8.5681Y-5.6181
X8.5681Y-5.7181
X8.5681Y-5.8181
X8.5681Y-5.9181
X8.5681Y-6.0181
X8.5681Y-6.1181
X8.5681Y-6.2181
X8.7681Y-1.1181
X8.7681Y-1.215
X8.7681Y-1.315
X8.7681Y-1.5181
X8.7681Y-1.6181
X8.7681Y-1.715
X8.7681Y-3.3181
X8.7681Y-3.4181
X8.7681Y-3.515
X8.7741Y-2.7213
X8.7741Y-2.8213
X8.7741Y-2.9181
X8.8681Y-5.3181
X8.8681Y-5.4181
X8.8681Y-5.5181
X8.8681Y-5.6181
X8.8681Y-5.7181
X8.8681Y-5.8181
X8.8681Y-5.9181
X8.8681Y-6.0181
X8.8681Y-6.1181
X8.8681Y-6.2181
X9.0681Y-1.1181
X9.0681Y-1.215
X9.0681Y-1.315
X9.0681Y-3.3181
X9.0681Y-3.4181
X9.0681Y-3.515
X9.0721Y-2.7201
X9.0721Y-2.8201
X9.0721Y-2.917
X9.1681Y-5.3181
X9.1681Y-5.4181
X9.1681Y-5.5181
X9.1681Y-5.6181
X9.1681Y-5.7181
X9.1681Y-5.8181
X9.1681Y-5.9181
X9.1681Y-6.0181
X9.1681Y-6.1181
X9.1681Y-6.2181
X9.17Y-3.8181
X9.17Y-3.9181
X9.17Y-4.0181
X9.17Y-4.1181
X9.17Y-4.2181
X9.17Y-4.3181
X9.17Y-4.4181
X9.17Y-4.5181
X9.17Y-4.6181
X9.17Y-4.7181
X9.4681Y-5.3181
X9.4681Y-5.4181
X9.4681Y-5.5181
X9.4681Y-5.6181
X9.4681Y-5.7181
X9.4681Y-5.8181
X9.4681Y-5.9181
X9.4681Y-6.0181
X9.4681Y-6.1181
X9.4681Y-6.2181
X9.47Y-3.8181
X9.47Y-3.9181
X9.47Y-4.0181
X9.47Y-4.1181
X9.47Y-4.2181
X9.47Y-4.3181
X9.47Y-4.4181
X9.47Y-4.5181
X9.47Y-4.6181
X9.47Y-4.7181
T4
X1.4181Y-1.3431
X1.5431Y-1.4681
X1.6181Y-1.5931
X1.8181Y-1.4681
X1.8931Y-1.3431
X2.1681Y-4.8881
X2.6431Y-1.4681
X2.7109Y-1.3431
X2.9581Y-4.8881
X3.2681Y-1.5931
X3.3681Y-1.4681
X3.4681Y-1.3431
X3.7681Y-4.8881
X4.0931Y-1.5931
X4.1931Y-1.4681
X4.2931Y-1.3431
X4.5781Y-4.8881
X4.8681Y-1.5931
X4.9681Y-1.4681
X5.0669Y-1.3431
X5.3581Y-4.8881
X5.5931Y-1.5931
X5.8431Y-1.4681
X5.9181Y-1.3431
X6.1681Y-4.8881
X6.4931Y-1.5931
X6.5681Y-1.4681
X6.6681Y-1.3431
X6.9681Y-4.8981
T5
X1.2681Y-1.7181
X1.2681Y-1.8181
X1.2681Y-1.9181
X1.2681Y-2.0181
X1.2681Y-2.1181
X1.2681Y-2.2181
X1.2681Y-2.3181
X1.2681Y-2.4181
X1.2681Y-2.5181
X1.2681Y-2.6181
X1.2681Y-2.7181
X1.2681Y-2.8181
X1.2681Y-2.9181
X1.2681Y-3.0181
X1.2681Y-3.1181
X1.2681Y-3.2181
X1.2681Y-3.3181
X1.2681Y-3.4181
X1.2681Y-3.5181
X1.2681Y-3.6181
X1.2681Y-3.7181
X1.2681Y-3.8181
X1.2681Y-3.9181
X1.2681Y-4.0181
X1.2681Y-4.1181
X1.2681Y-4.2181
X1.2681Y-4.3181
X1.2681Y-4.4181
X1.2681Y-4.5181
X1.2681Y-4.6181
X1.2681Y-4.7181
X1.4681Y-1.7181
X1.4681Y-1.8181
X1.4681Y-1.9181
X1.4681Y-2.0181
X1.4681Y-2.1181
X1.4681Y-2.2181
X1.4681Y-2.3181
X1.4681Y-2.4181
X1.4681Y-2.5181
X1.4681Y-2.6181
X1.4681Y-2.7181
X1.4681Y-2.8181
X1.4681Y-2.9181
X1.4681Y-3.0181
X1.4681Y-3.1181
X1.4681Y-3.2181
X1.4681Y-3.3181
X1.4681Y-3.4181
X1.4681Y-3.5181
X1.4681Y-3.6181
X1.4681Y-3.7181
X1.4681Y-3.8181
X1.4681Y-3.9181
X1.4681Y-4.0181
X1.4681Y-4.1181
X1.4681Y-4.2181
X1.4681Y-4.3181
X1.4681Y-4.4181
X1.4681Y-4.5181
X1.4681Y-4.6181
X1.4681Y-4.7181
X2.0681Y-1.7181
X2.0681Y-1.8181
X2.0681Y-1.9181
X2.0681Y-2.0181
X2.0681Y-2.1181
X2.0681Y-2.2181
X2.0681Y-2.3181
X2.0681Y-2.4181
X2.0681Y-2.5181
X2.0681Y-2.6181
X2.0681Y-2.7181
X2.0681Y-2.8181
X2.0681Y-2.9181
X2.0681Y-3.0181
X2.0681Y-3.1181
X2.0681Y-3.2181
X2.0681Y-3.3181
X2.0681Y-3.4181
X2.0681Y-3.5181
X2.0681Y-3.6181
X2.0681Y-3.7181
X2.0681Y-3.8181
X2.0681Y-3.9181
X2.0681Y-4.0181
X2.0681Y-4.1181
X2.0681Y-4.2181
X2.0681Y-4.3181
X2.0681Y-4.4181
X2.0681Y-4.5181
X2.0681Y-4.6181
X2.0681Y-4.7181
X2.2681Y-1.7181
X2.2681Y-1.8181
X2.2681Y-1.9181
X2.2681Y-2.0181
X2.2681Y-2.1181
X2.2681Y-2.2181
X2.2681Y-2.3181
X2.2681Y-2.4181
X2.2681Y-2.5181
X2.2681Y-2.6181
X2.2681Y-2.7181
X2.2681Y-2.8181
X2.2681Y-2.9181
X2.2681Y-3.0181
X2.2681Y-3.1181
X2.2681Y-3.2181
X2.2681Y-3.3181
X2.2681Y-3.4181
X2.2681Y-3.5181
X2.2681Y-3.6181
X2.2681Y-3.7181
X2.2681Y-3.8181
X2.2681Y-3.9181
X2.2681Y-4.0181
X2.2681Y-4.1181
X2.2681Y-4.2181
X2.2681Y-4.3181
X2.2681Y-4.4181
X2.2681Y-4.5181
X2.2681Y-4.6181
X2.2681Y-4.7181
X2.8681Y-1.7181
X2.8681Y-1.8181
X2.8681Y-1.9181
X2.8681Y-2.0181
X2.8681Y-2.1181
X2.8681Y-2.2181
X2.8681Y-2.3181
X2.8681Y-2.4181
X2.8681Y-2.5181
X2.8681Y-2.6181
X2.8681Y-2.7181
X2.8681Y-2.8181
X2.8681Y-2.9181
X2.8681Y-3.0181
X2.8681Y-3.1181
X2.8681Y-3.2181
X2.8681Y-3.3181
X2.8681Y-3.4181
X2.8681Y-3.5181
X2.8681Y-3.6181
X2.8681Y-3.7181
X2.8681Y-3.8181
X2.8681Y-3.9181
X2.8681Y-4.0181
X2.8681Y-4.1181
X2.8681Y-4.2181
X2.8681Y-4.3181
X2.8681Y-4.4181
X2.8681Y-4.5181
X2.8681Y-4.6181
X2.8681Y-4.7181
X3.0681Y-1.7181
X3.0681Y-1.8181
X3.0681Y-1.9181
X3.0681Y-2.0181
X3.0681Y-2.1181
X3.0681Y-2.2181
X3.0681Y-2.3181
X3.0681Y-2.4181
X3.0681Y-2.5181
X3.0681Y-2.6181
X3.0681Y-2.7181
X3.0681Y-2.8181
X3.0681Y-2.9181
X3.0681Y-3.0181
X3.0681Y-3.1181
X3.0681Y-3.2181
X3.0681Y-3.3181
X3.0681Y-3.4181
X3.0681Y-3.5181
X3.0681Y-3.6181
X3.0681Y-3.7181
X3.0681Y-3.8181
X3.0681Y-3.9181
X3.0681Y-4.0181
X3.0681Y-4.1181
X3.0681Y-4.2181
X3.0681Y-4.3181
X3.0681Y-4.4181
X3.0681Y-4.5181
X3.0681Y-4.6181
X3.0681Y-4.7181
X3.6681Y-1.7181
X3.6681Y-1.8181
X3.6681Y-1.9181
X3.6681Y-2.0181
X3.6681Y-2.1181
X3.6681Y-2.2181
X3.6681Y-2.3181
X3.6681Y-2.4181
X3.6681Y-2.5181
X3.6681Y-2.6181
X3.6681Y-2.7181
X3.6681Y-2.8181
X3.6681Y-2.9181
X3.6681Y-3.0181
X3.6681Y-3.1181
X3.6681Y-3.2181
X3.6681Y-3.3181
X3.6681Y-3.4181
X3.6681Y-3.5181
X3.6681Y-3.6181
X3.6681Y-3.7181
X3.6681Y-3.8181
X3.6681Y-3.9181
X3.6681Y-4.0181
X3.6681Y-4.1181
X3.6681Y-4.2181
X3.6681Y-4.3181
X3.6681Y-4.4181
X3.6681Y-4.5181
X3.6681Y-4.6181
X3.6681Y-4.7181
X3.8681Y-1.7181
X3.8681Y-1.8181
X3.8681Y-1.9181
X3.8681Y-2.0181
X3.8681Y-2.1181
X3.8681Y-2.2181
X3.8681Y-2.3181
X3.8681Y-2.4181
X3.8681Y-2.5181
X3.8681Y-2.6181
X3.8681Y-2.7181
X3.8681Y-2.8181
X3.8681Y-2.9181
X3.8681Y-3.0181
X3.8681Y-3.1181
X3.8681Y-3.2181
X3.8681Y-3.3181
X3.8681Y-3.4181
X3.8681Y-3.5181
X3.8681Y-3.6181
X3.8681Y-3.7181
X3.8681Y-3.8181
X3.8681Y-3.9181
X3.8681Y-4.0181
X3.8681Y-4.1181
X3.8681Y-4.2181
X3.8681Y-4.3181
X3.8681Y-4.4181
X3.8681Y-4.5181
X3.8681Y-4.6181
X3.8681Y-4.7181
X4.4681Y-1.7181
X4.4681Y-1.8181
X4.4681Y-1.9181
X4.4681Y-2.0181
X4.4681Y-2.1181
X4.4681Y-2.2181
X4.4681Y-2.3181
X4.4681Y-2.4181
X4.4681Y-2.5181
X4.4681Y-2.6181
X4.4681Y-2.7181
X4.4681Y-2.8181
X4.4681Y-2.9181
X4.4681Y-3.0181
X4.4681Y-3.1181
X4.4681Y-3.2181
X4.4681Y-3.3181
X4.4681Y-3.4181
X4.4681Y-3.5181
X4.4681Y-3.6181
X4.4681Y-3.7181
X4.4681Y-3.8181
X4.4681Y-3.9181
X4.4681Y-4.0181
X4.4681Y-4.1181
X4.4681Y-4.2181
X4.4681Y-4.3181
X4.4681Y-4.4181
X4.4681Y-4.5181
X4.4681Y-4.6181
X4.4681Y-4.7181
X4.6681Y-1.7181
X4.6681Y-1.8181
X4.6681Y-1.9181
X4.6681Y-2.0181
X4.6681Y-2.1181
X4.6681Y-2.2181
X4.6681Y-2.3181
X4.6681Y-2.4181
X4.6681Y-2.5181
X4.6681Y-2.6181
X4.6681Y-2.7181
X4.6681Y-2.8181
X4.6681Y-2.9181
X4.6681Y-3.0181
X4.6681Y-3.1181
X4.6681Y-3.2181
X4.6681Y-3.3181
X4.6681Y-3.4181
X4.6681Y-3.5181
X4.6681Y-3.6181
X4.6681Y-3.7181
X4.6681Y-3.8181
X4.6681Y-3.9181
X4.6681Y-4.0181
X4.6681Y-4.1181
X4.6681Y-4.2181
X4.6681Y-4.3181
X4.6681Y-4.4181
X4.6681Y-4.5181
X4.6681Y-4.6181
X4.6681Y-4.7181
X5.2681Y-1.7181
X5.2681Y-1.8181
X5.2681Y-1.9181
X5.2681Y-2.0181
X5.2681Y-2.1181
X5.2681Y-2.2181
X5.2681Y-2.3181
X5.2681Y-2.4181
X5.2681Y-2.5181
X5.2681Y-2.6181
X5.2681Y-2.7181
X5.2681Y-2.8181
X5.2681Y-2.9181
X5.2681Y-3.0181
X5.2681Y-3.1181
X5.2681Y-3.2181
X5.2681Y-3.3181
X5.2681Y-3.4181
X5.2681Y-3.5181
X5.2681Y-3.6181
X5.2681Y-3.7181
X5.2681Y-3.8181
X5.2681Y-3.9181
X5.2681Y-4.0181
X5.2681Y-4.1181
X5.2681Y-4.2181
X5.2681Y-4.3181
X5.2681Y-4.4181
X5.2681Y-4.5181
X5.2681Y-4.6181
X5.2681Y-4.7181
X5.4681Y-1.7181
X5.4681Y-1.8181
X5.4681Y-1.9181
X5.4681Y-2.0181
X5.4681Y-2.1181
X5.4681Y-2.2181
X5.4681Y-2.3181
X5.4681Y-2.4181
X5.4681Y-2.5181
X5.4681Y-2.6181
X5.4681Y-2.7181
X5.4681Y-2.8181
X5.4681Y-2.9181
X5.4681Y-3.0181
X5.4681Y-3.1181
X5.4681Y-3.2181
X5.4681Y-3.3181
X5.4681Y-3.4181
X5.4681Y-3.5181
X5.4681Y-3.6181
X5.4681Y-3.7181
X5.4681Y-3.8181
X5.4681Y-3.9181
X5.4681Y-4.0181
X5.4681Y-4.1181
X5.4681Y-4.2181
X5.4681Y-4.3181
X5.4681Y-4.4181
X5.4681Y-4.5181
X5.4681Y-4.6181
X5.4681Y-4.7181
X6.0681Y-1.7181
X6.0681Y-1.8181
X6.0681Y-1.9181
X6.0681Y-2.0181
X6.0681Y-2.1181
X6.0681Y-2.2181
X6.0681Y-2.3181
X6.0681Y-2.4181
X6.0681Y-2.5181
X6.0681Y-2.6181
X6.0681Y-2.7181
X6.0681Y-2.8181
X6.0681Y-2.9181
X6.0681Y-3.0181
X6.0681Y-3.1181
X6.0681Y-3.2181
X6.0681Y-3.3181
X6.0681Y-3.4181
X6.0681Y-3.5181
X6.0681Y-3.6181
X6.0681Y-3.7181
X6.0681Y-3.8181
X6.0681Y-3.9181
X6.0681Y-4.0181
X6.0681Y-4.1181
X6.0681Y-4.2181
X6.0681Y-4.3181
X6.0681Y-4.4181
X6.0681Y-4.5181
X6.0681Y-4.6181
X6.0681Y-4.7181
X6.2681Y-1.7181
X6.2681Y-1.8181
X6.2681Y-1.9181
X6.2681Y-2.0181
X6.2681Y-2.1181
X6.2681Y-2.2181
X6.2681Y-2.3181
X6.2681Y-2.4181
X6.2681Y-2.5181
X6.2681Y-2.6181
X6.2681Y-2.7181
X6.2681Y-2.8181
X6.2681Y-2.9181
X6.2681Y-3.0181
X6.2681Y-3.1181
X6.2681Y-3.2181
X6.2681Y-3.3181
X6.2681Y-3.4181
X6.2681Y-3.5181
X6.2681Y-3.6181
X6.2681Y-3.7181
X6.2681Y-3.8181
X6.2681Y-3.9181
X6.2681Y-4.0181
X6.2681Y-4.1181
X6.2681Y-4.2181
X6.2681Y-4.3181
X6.2681Y-4.4181
X6.2681Y-4.5181
X6.2681Y-4.6181
X6.2681Y-4.7181
X6.8681Y-1.7181
X6.8681Y-1.8181
X6.8681Y-1.9181
X6.8681Y-2.0181
X6.8681Y-2.1181
X6.8681Y-2.2181
X6.8681Y-2.3181
X6.8681Y-2.4181
X6.8681Y-2.5181
X6.8681Y-2.6181
X6.8681Y-2.7181
X6.8681Y-2.8181
X6.8681Y-2.9181
X6.8681Y-3.0181
X6.8681Y-3.1181
X6.8681Y-3.2181
X6.8681Y-3.3181
X6.8681Y-3.4181
X6.8681Y-3.5181
X6.8681Y-3.6181
X6.8681Y-3.7181
X6.8681Y-3.8181
X6.8681Y-3.9181
X6.8681Y-4.0181
X6.8681Y-4.1181
X6.8681Y-4.2181
X6.8681Y-4.3181
X6.8681Y-4.4181
X6.8681Y-4.5181
X6.8681Y-4.6181
X6.8681Y-4.7181
X7.0681Y-1.7181
X7.0681Y-1.8181
X7.0681Y-1.9181
X7.0681Y-2.0181
X7.0681Y-2.1181
X7.0681Y-2.2181
X7.0681Y-2.3181
X7.0681Y-2.4181
X7.0681Y-2.5181
X7.0681Y-2.6181
X7.0681Y-2.7181
X7.0681Y-2.8181
X7.0681Y-2.9181
X7.0681Y-3.0181
X7.0681Y-3.1181
X7.0681Y-3.2181
X7.0681Y-3.3181
X7.0681Y-3.4181
X7.0681Y-3.5181
X7.0681Y-3.6181
X7.0681Y-3.7181
X7.0681Y-3.8181
X7.0681Y-3.9181
X7.0681Y-4.0181
X7.0681Y-4.1181
X7.0681Y-4.2181
X7.0681Y-4.3181
X7.0681Y-4.4181
X7.0681Y-4.5181
X7.0681Y-4.6181
X7.0681Y-4.7181
T6
X1.3531Y-0.9631
X1.3681Y-4.8881
X8.0417Y-2.1244
X8.0431Y-1.4681
X8.1673Y-2.9992
X8.1681Y-1.3431
X8.4169Y-3.1429
X8.4201Y-0.9689
X8.5673Y-2.3736
T7
X8.3181Y-3.9252
X8.3181Y-4.1181
T8
X9.4781Y-1.7404
X9.4781Y-1.8963
X9.4781Y-2.0522
X9.4781Y-2.2081
X9.4781Y-2.364
X9.4781Y-2.5199
X9.4781Y-2.6822
X9.4781Y-2.8381
X9.4781Y-2.994
X9.4781Y-3.1499
X9.4781Y-3.3058
X9.4781Y-3.4617
T9
X7.9681Y-4.4181
X7.9681Y-4.7181
X8.2181Y-4.5681
T10
X9.4685Y-1.128
T0
M30
