%TF.GenerationSoftware,KiCad,Pcbnew,7.0.5*%
%TF.CreationDate,2023-08-20T22:51:28-05:00*%
%TF.ProjectId,ibm5161-backplane,69626d35-3136-4312-9d62-61636b706c61,rev?*%
%TF.SameCoordinates,Original*%
%TF.FileFunction,Soldermask,Top*%
%TF.FilePolarity,Negative*%
%FSLAX46Y46*%
G04 Gerber Fmt 4.6, Leading zero omitted, Abs format (unit mm)*
G04 Created by KiCad (PCBNEW 7.0.5) date 2023-08-20 22:51:28*
%MOMM*%
%LPD*%
G01*
G04 APERTURE LIST*
%ADD10R,1.600000X1.600000*%
%ADD11R,1.700000X1.700000*%
%ADD12R,12.000000X19.000000*%
%ADD13C,3.810000*%
%ADD14C,3.000000*%
%ADD15R,3.000000X3.000000*%
%ADD16R,2.300000X2.300000*%
G04 APERTURE END LIST*
D10*
%TO.C,C9*%
X146510000Y-41100000D03*
X146510000Y-46100000D03*
X146510000Y-43640000D03*
%TD*%
D11*
%TO.C,J7*%
X154130000Y-43640000D03*
X154130000Y-46180000D03*
X154130000Y-48720000D03*
X154130000Y-51260000D03*
X154130000Y-53800000D03*
X154130000Y-56340000D03*
X154130000Y-58880000D03*
X154130000Y-61420000D03*
X154130000Y-63960000D03*
X154130000Y-66500000D03*
X154130000Y-69040000D03*
X154130000Y-71580000D03*
X154130000Y-74120000D03*
X154130000Y-76660000D03*
X154130000Y-79200000D03*
X154130000Y-81740000D03*
X154130000Y-84280000D03*
X154130000Y-86820000D03*
X154130000Y-89360000D03*
X154130000Y-91900000D03*
X154130000Y-94440000D03*
X154130000Y-96980000D03*
X154130000Y-99520000D03*
X154130000Y-102060000D03*
X154130000Y-104600000D03*
X154130000Y-107140000D03*
X154130000Y-109680000D03*
X154130000Y-112220000D03*
X154130000Y-114760000D03*
X154130000Y-117300000D03*
X154130000Y-119840000D03*
X159210000Y-43640000D03*
X159210000Y-46180000D03*
X159210000Y-48720000D03*
X159210000Y-51260000D03*
X159210000Y-53800000D03*
X159210000Y-56340000D03*
X159210000Y-58880000D03*
X159210000Y-61420000D03*
X159210000Y-63960000D03*
X159210000Y-66500000D03*
X159210000Y-69040000D03*
X159210000Y-71580000D03*
X159210000Y-74120000D03*
X159210000Y-76660000D03*
X159210000Y-79200000D03*
X159210000Y-81740000D03*
X159210000Y-84280000D03*
X159210000Y-86820000D03*
X159210000Y-89360000D03*
X159210000Y-91900000D03*
X159210000Y-94440000D03*
X159210000Y-96980000D03*
X159210000Y-99520000D03*
X159210000Y-102060000D03*
X159210000Y-104600000D03*
X159210000Y-107140000D03*
X159210000Y-109680000D03*
X159210000Y-112220000D03*
X159210000Y-114760000D03*
X159210000Y-117300000D03*
X159210000Y-119840000D03*
%TD*%
%TO.C,J5*%
X113490000Y-43640000D03*
X113490000Y-46180000D03*
X113490000Y-48720000D03*
X113490000Y-51260000D03*
X113490000Y-53800000D03*
X113490000Y-56340000D03*
X113490000Y-58880000D03*
X113490000Y-61420000D03*
X113490000Y-63960000D03*
X113490000Y-66500000D03*
X113490000Y-69040000D03*
X113490000Y-71580000D03*
X113490000Y-74120000D03*
X113490000Y-76660000D03*
X113490000Y-79200000D03*
X113490000Y-81740000D03*
X113490000Y-84280000D03*
X113490000Y-86820000D03*
X113490000Y-89360000D03*
X113490000Y-91900000D03*
X113490000Y-94440000D03*
X113490000Y-96980000D03*
X113490000Y-99520000D03*
X113490000Y-102060000D03*
X113490000Y-104600000D03*
X113490000Y-107140000D03*
X113490000Y-109680000D03*
X113490000Y-112220000D03*
X113490000Y-114760000D03*
X113490000Y-117300000D03*
X113490000Y-119840000D03*
X118570000Y-43640000D03*
X118570000Y-46180000D03*
X118570000Y-48720000D03*
X118570000Y-51260000D03*
X118570000Y-53800000D03*
X118570000Y-56340000D03*
X118570000Y-58880000D03*
X118570000Y-61420000D03*
X118570000Y-63960000D03*
X118570000Y-66500000D03*
X118570000Y-69040000D03*
X118570000Y-71580000D03*
X118570000Y-74120000D03*
X118570000Y-76660000D03*
X118570000Y-79200000D03*
X118570000Y-81740000D03*
X118570000Y-84280000D03*
X118570000Y-86820000D03*
X118570000Y-89360000D03*
X118570000Y-91900000D03*
X118570000Y-94440000D03*
X118570000Y-96980000D03*
X118570000Y-99520000D03*
X118570000Y-102060000D03*
X118570000Y-104600000D03*
X118570000Y-107140000D03*
X118570000Y-109680000D03*
X118570000Y-112220000D03*
X118570000Y-114760000D03*
X118570000Y-117300000D03*
X118570000Y-119840000D03*
%TD*%
D10*
%TO.C,C12*%
X146510000Y-28400000D03*
X146510000Y-33400000D03*
X146510000Y-30940000D03*
%TD*%
%TO.C,C13*%
X192230000Y-89360000D03*
X187230000Y-89360000D03*
X189690000Y-89360000D03*
%TD*%
%TO.C,C5*%
X222862400Y-69120000D03*
X222862400Y-74120000D03*
X222862400Y-71660000D03*
%TD*%
%TO.C,C7*%
X222710000Y-84280000D03*
X222710000Y-89280000D03*
X222710000Y-86820000D03*
%TD*%
%TO.C,S1*%
X232918000Y-96980000D03*
X232918000Y-99520000D03*
X232918000Y-102060000D03*
X232918000Y-104600000D03*
X232918000Y-107140000D03*
X232918000Y-109680000D03*
X232918000Y-112220000D03*
X232918000Y-114760000D03*
X232918000Y-117300000D03*
X232918000Y-119840000D03*
X240538000Y-119840000D03*
X240538000Y-117300000D03*
X240538000Y-114760000D03*
X240538000Y-112220000D03*
X240538000Y-109680000D03*
X240538000Y-107140000D03*
X240538000Y-104600000D03*
X240538000Y-102060000D03*
X240538000Y-99520000D03*
X240538000Y-96980000D03*
%TD*%
D11*
%TO.C,J4*%
X93170000Y-43640000D03*
X93170000Y-46180000D03*
X93170000Y-48720000D03*
X93170000Y-51260000D03*
X93170000Y-53800000D03*
X93170000Y-56340000D03*
X93170000Y-58880000D03*
X93170000Y-61420000D03*
X93170000Y-63960000D03*
X93170000Y-66500000D03*
X93170000Y-69040000D03*
X93170000Y-71580000D03*
X93170000Y-74120000D03*
X93170000Y-76660000D03*
X93170000Y-79200000D03*
X93170000Y-81740000D03*
X93170000Y-84280000D03*
X93170000Y-86820000D03*
X93170000Y-89360000D03*
X93170000Y-91900000D03*
X93170000Y-94440000D03*
X93170000Y-96980000D03*
X93170000Y-99520000D03*
X93170000Y-102060000D03*
X93170000Y-104600000D03*
X93170000Y-107140000D03*
X93170000Y-109680000D03*
X93170000Y-112220000D03*
X93170000Y-114760000D03*
X93170000Y-117300000D03*
X93170000Y-119840000D03*
X98250000Y-43640000D03*
X98250000Y-46180000D03*
X98250000Y-48720000D03*
X98250000Y-51260000D03*
X98250000Y-53800000D03*
X98250000Y-56340000D03*
X98250000Y-58880000D03*
X98250000Y-61420000D03*
X98250000Y-63960000D03*
X98250000Y-66500000D03*
X98250000Y-69040000D03*
X98250000Y-71580000D03*
X98250000Y-74120000D03*
X98250000Y-76660000D03*
X98250000Y-79200000D03*
X98250000Y-81740000D03*
X98250000Y-84280000D03*
X98250000Y-86820000D03*
X98250000Y-89360000D03*
X98250000Y-91900000D03*
X98250000Y-94440000D03*
X98250000Y-96980000D03*
X98250000Y-99520000D03*
X98250000Y-102060000D03*
X98250000Y-104600000D03*
X98250000Y-107140000D03*
X98250000Y-109680000D03*
X98250000Y-112220000D03*
X98250000Y-114760000D03*
X98250000Y-117300000D03*
X98250000Y-119840000D03*
%TD*%
%TO.C,J1*%
X32210000Y-43640000D03*
X32210000Y-46180000D03*
X32210000Y-48720000D03*
X32210000Y-51260000D03*
X32210000Y-53800000D03*
X32210000Y-56340000D03*
X32210000Y-58880000D03*
X32210000Y-61420000D03*
X32210000Y-63960000D03*
X32210000Y-66500000D03*
X32210000Y-69040000D03*
X32210000Y-71580000D03*
X32210000Y-74120000D03*
X32210000Y-76660000D03*
X32210000Y-79200000D03*
X32210000Y-81740000D03*
X32210000Y-84280000D03*
X32210000Y-86820000D03*
X32210000Y-89360000D03*
X32210000Y-91900000D03*
X32210000Y-94440000D03*
X32210000Y-96980000D03*
X32210000Y-99520000D03*
X32210000Y-102060000D03*
X32210000Y-104600000D03*
X32210000Y-107140000D03*
X32210000Y-109680000D03*
X32210000Y-112220000D03*
X32210000Y-114760000D03*
X32210000Y-117300000D03*
X32210000Y-119840000D03*
X37290000Y-43640000D03*
X37290000Y-46180000D03*
X37290000Y-48720000D03*
X37290000Y-51260000D03*
X37290000Y-53800000D03*
X37290000Y-56340000D03*
X37290000Y-58880000D03*
X37290000Y-61420000D03*
X37290000Y-63960000D03*
X37290000Y-66500000D03*
X37290000Y-69040000D03*
X37290000Y-71580000D03*
X37290000Y-74120000D03*
X37290000Y-76660000D03*
X37290000Y-79200000D03*
X37290000Y-81740000D03*
X37290000Y-84280000D03*
X37290000Y-86820000D03*
X37290000Y-89360000D03*
X37290000Y-91900000D03*
X37290000Y-94440000D03*
X37290000Y-96980000D03*
X37290000Y-99520000D03*
X37290000Y-102060000D03*
X37290000Y-104600000D03*
X37290000Y-107140000D03*
X37290000Y-109680000D03*
X37290000Y-112220000D03*
X37290000Y-114760000D03*
X37290000Y-117300000D03*
X37290000Y-119840000D03*
%TD*%
D10*
%TO.C,C8*%
X230330000Y-84280000D03*
X230330000Y-89280000D03*
X230330000Y-86820000D03*
%TD*%
D12*
%TO.C,REF\u002A\u002A*%
X239500000Y-27850000D03*
%TD*%
D11*
%TO.C,J3*%
X72850000Y-43640000D03*
X72850000Y-46180000D03*
X72850000Y-48720000D03*
X72850000Y-51260000D03*
X72850000Y-53800000D03*
X72850000Y-56340000D03*
X72850000Y-58880000D03*
X72850000Y-61420000D03*
X72850000Y-63960000D03*
X72850000Y-66500000D03*
X72850000Y-69040000D03*
X72850000Y-71580000D03*
X72850000Y-74120000D03*
X72850000Y-76660000D03*
X72850000Y-79200000D03*
X72850000Y-81740000D03*
X72850000Y-84280000D03*
X72850000Y-86820000D03*
X72850000Y-89360000D03*
X72850000Y-91900000D03*
X72850000Y-94440000D03*
X72850000Y-96980000D03*
X72850000Y-99520000D03*
X72850000Y-102060000D03*
X72850000Y-104600000D03*
X72850000Y-107140000D03*
X72850000Y-109680000D03*
X72850000Y-112220000D03*
X72850000Y-114760000D03*
X72850000Y-117300000D03*
X72850000Y-119840000D03*
X77930000Y-43640000D03*
X77930000Y-46180000D03*
X77930000Y-48720000D03*
X77930000Y-51260000D03*
X77930000Y-53800000D03*
X77930000Y-56340000D03*
X77930000Y-58880000D03*
X77930000Y-61420000D03*
X77930000Y-63960000D03*
X77930000Y-66500000D03*
X77930000Y-69040000D03*
X77930000Y-71580000D03*
X77930000Y-74120000D03*
X77930000Y-76660000D03*
X77930000Y-79200000D03*
X77930000Y-81740000D03*
X77930000Y-84280000D03*
X77930000Y-86820000D03*
X77930000Y-89360000D03*
X77930000Y-91900000D03*
X77930000Y-94440000D03*
X77930000Y-96980000D03*
X77930000Y-99520000D03*
X77930000Y-102060000D03*
X77930000Y-104600000D03*
X77930000Y-107140000D03*
X77930000Y-109680000D03*
X77930000Y-112220000D03*
X77930000Y-114760000D03*
X77930000Y-117300000D03*
X77930000Y-119840000D03*
%TD*%
D10*
%TO.C,S4*%
X202390000Y-135080000D03*
X202390000Y-137620000D03*
X202390000Y-140160000D03*
X202390000Y-142700000D03*
X202390000Y-145240000D03*
X202390000Y-147780000D03*
X202390000Y-150320000D03*
X202390000Y-152860000D03*
X202390000Y-155400000D03*
X202390000Y-157940000D03*
X210010000Y-157940000D03*
X210010000Y-155400000D03*
X210010000Y-152860000D03*
X210010000Y-150320000D03*
X210010000Y-147780000D03*
X210010000Y-145240000D03*
X210010000Y-142700000D03*
X210010000Y-140160000D03*
X210010000Y-137620000D03*
X210010000Y-135080000D03*
%TD*%
D11*
%TO.C,J8*%
X174450000Y-43640000D03*
X174450000Y-46180000D03*
X174450000Y-48720000D03*
X174450000Y-51260000D03*
X174450000Y-53800000D03*
X174450000Y-56340000D03*
X174450000Y-58880000D03*
X174450000Y-61420000D03*
X174450000Y-63960000D03*
X174450000Y-66500000D03*
X174450000Y-69040000D03*
X174450000Y-71580000D03*
X174450000Y-74120000D03*
X174450000Y-76660000D03*
X174450000Y-79200000D03*
X174450000Y-81740000D03*
X174450000Y-84280000D03*
X174450000Y-86820000D03*
X174450000Y-89360000D03*
X174450000Y-91900000D03*
X174450000Y-94440000D03*
X174450000Y-96980000D03*
X174450000Y-99520000D03*
X174450000Y-102060000D03*
X174450000Y-104600000D03*
X174450000Y-107140000D03*
X174450000Y-109680000D03*
X174450000Y-112220000D03*
X174450000Y-114760000D03*
X174450000Y-117300000D03*
X174450000Y-119840000D03*
X179530000Y-43640000D03*
X179530000Y-46180000D03*
X179530000Y-48720000D03*
X179530000Y-51260000D03*
X179530000Y-53800000D03*
X179530000Y-56340000D03*
X179530000Y-58880000D03*
X179530000Y-61420000D03*
X179530000Y-63960000D03*
X179530000Y-66500000D03*
X179530000Y-69040000D03*
X179530000Y-71580000D03*
X179530000Y-74120000D03*
X179530000Y-76660000D03*
X179530000Y-79200000D03*
X179530000Y-81740000D03*
X179530000Y-84280000D03*
X179530000Y-86820000D03*
X179530000Y-89360000D03*
X179530000Y-91900000D03*
X179530000Y-94440000D03*
X179530000Y-96980000D03*
X179530000Y-99520000D03*
X179530000Y-102060000D03*
X179530000Y-104600000D03*
X179530000Y-107140000D03*
X179530000Y-109680000D03*
X179530000Y-112220000D03*
X179530000Y-114760000D03*
X179530000Y-117300000D03*
X179530000Y-119840000D03*
%TD*%
D10*
%TO.C,S3*%
X217630000Y-135080000D03*
X217630000Y-137620000D03*
X217630000Y-140160000D03*
X217630000Y-142700000D03*
X217630000Y-145240000D03*
X217630000Y-147780000D03*
X217630000Y-150320000D03*
X217630000Y-152860000D03*
X217630000Y-155400000D03*
X217630000Y-157940000D03*
X225250000Y-157940000D03*
X225250000Y-155400000D03*
X225250000Y-152860000D03*
X225250000Y-150320000D03*
X225250000Y-147780000D03*
X225250000Y-145240000D03*
X225250000Y-142700000D03*
X225250000Y-140160000D03*
X225250000Y-137620000D03*
X225250000Y-135080000D03*
%TD*%
%TO.C,C15*%
X146608000Y-129398000D03*
X146608000Y-124398000D03*
X146608000Y-126858000D03*
%TD*%
D11*
%TO.C,J6*%
X133810000Y-43640000D03*
X133810000Y-46180000D03*
X133810000Y-48720000D03*
X133810000Y-51260000D03*
X133810000Y-53800000D03*
X133810000Y-56340000D03*
X133810000Y-58880000D03*
X133810000Y-61420000D03*
X133810000Y-63960000D03*
X133810000Y-66500000D03*
X133810000Y-69040000D03*
X133810000Y-71580000D03*
X133810000Y-74120000D03*
X133810000Y-76660000D03*
X133810000Y-79200000D03*
X133810000Y-81740000D03*
X133810000Y-84280000D03*
X133810000Y-86820000D03*
X133810000Y-89360000D03*
X133810000Y-91900000D03*
X133810000Y-94440000D03*
X133810000Y-96980000D03*
X133810000Y-99520000D03*
X133810000Y-102060000D03*
X133810000Y-104600000D03*
X133810000Y-107140000D03*
X133810000Y-109680000D03*
X133810000Y-112220000D03*
X133810000Y-114760000D03*
X133810000Y-117300000D03*
X133810000Y-119840000D03*
X138890000Y-43640000D03*
X138890000Y-46180000D03*
X138890000Y-48720000D03*
X138890000Y-51260000D03*
X138890000Y-53800000D03*
X138890000Y-56340000D03*
X138890000Y-58880000D03*
X138890000Y-61420000D03*
X138890000Y-63960000D03*
X138890000Y-66500000D03*
X138890000Y-69040000D03*
X138890000Y-71580000D03*
X138890000Y-74120000D03*
X138890000Y-76660000D03*
X138890000Y-79200000D03*
X138890000Y-81740000D03*
X138890000Y-84280000D03*
X138890000Y-86820000D03*
X138890000Y-89360000D03*
X138890000Y-91900000D03*
X138890000Y-94440000D03*
X138890000Y-96980000D03*
X138890000Y-99520000D03*
X138890000Y-102060000D03*
X138890000Y-104600000D03*
X138890000Y-107140000D03*
X138890000Y-109680000D03*
X138890000Y-112220000D03*
X138890000Y-114760000D03*
X138890000Y-117300000D03*
X138890000Y-119840000D03*
%TD*%
D13*
%TO.C,C1*%
X208740000Y-116030000D03*
X202390000Y-119840000D03*
X202390000Y-112220000D03*
%TD*%
D10*
%TO.C,C11*%
X65230000Y-41100000D03*
X65230000Y-46100000D03*
X65230000Y-43640000D03*
%TD*%
%TO.C,C6*%
X230431600Y-69090800D03*
X230431600Y-74090800D03*
X230431600Y-71630800D03*
%TD*%
%TO.C,C3*%
X230330000Y-33400000D03*
X230330000Y-28400000D03*
X230330000Y-30860000D03*
%TD*%
D11*
%TO.C,J2*%
X52530000Y-43640000D03*
X52530000Y-46180000D03*
X52530000Y-48720000D03*
X52530000Y-51260000D03*
X52530000Y-53800000D03*
X52530000Y-56340000D03*
X52530000Y-58880000D03*
X52530000Y-61420000D03*
X52530000Y-63960000D03*
X52530000Y-66500000D03*
X52530000Y-69040000D03*
X52530000Y-71580000D03*
X52530000Y-74120000D03*
X52530000Y-76660000D03*
X52530000Y-79200000D03*
X52530000Y-81740000D03*
X52530000Y-84280000D03*
X52530000Y-86820000D03*
X52530000Y-89360000D03*
X52530000Y-91900000D03*
X52530000Y-94440000D03*
X52530000Y-96980000D03*
X52530000Y-99520000D03*
X52530000Y-102060000D03*
X52530000Y-104600000D03*
X52530000Y-107140000D03*
X52530000Y-109680000D03*
X52530000Y-112220000D03*
X52530000Y-114760000D03*
X52530000Y-117300000D03*
X52530000Y-119840000D03*
X57610000Y-43640000D03*
X57610000Y-46180000D03*
X57610000Y-48720000D03*
X57610000Y-51260000D03*
X57610000Y-53800000D03*
X57610000Y-56340000D03*
X57610000Y-58880000D03*
X57610000Y-61420000D03*
X57610000Y-63960000D03*
X57610000Y-66500000D03*
X57610000Y-69040000D03*
X57610000Y-71580000D03*
X57610000Y-74120000D03*
X57610000Y-76660000D03*
X57610000Y-79200000D03*
X57610000Y-81740000D03*
X57610000Y-84280000D03*
X57610000Y-86820000D03*
X57610000Y-89360000D03*
X57610000Y-91900000D03*
X57610000Y-94440000D03*
X57610000Y-96980000D03*
X57610000Y-99520000D03*
X57610000Y-102060000D03*
X57610000Y-104600000D03*
X57610000Y-107140000D03*
X57610000Y-109680000D03*
X57610000Y-112220000D03*
X57610000Y-114760000D03*
X57610000Y-117300000D03*
X57610000Y-119840000D03*
%TD*%
D14*
%TO.C,P1*%
X240744000Y-44206000D03*
X240744000Y-48166000D03*
X240744000Y-52126000D03*
X240744000Y-56086000D03*
X240744000Y-60046000D03*
D15*
X240744000Y-64006000D03*
%TD*%
D10*
%TO.C,C14*%
X47450000Y-129920000D03*
X47450000Y-124920000D03*
X47450000Y-127380000D03*
%TD*%
D14*
%TO.C,P2*%
X240744000Y-68128000D03*
X240744000Y-72088000D03*
X240744000Y-76048000D03*
X240744000Y-80008000D03*
X240744000Y-83968000D03*
D15*
X240744000Y-87928000D03*
%TD*%
D10*
%TO.C,U1*%
X187150000Y-99520000D03*
X187150000Y-102060000D03*
X187150000Y-104600000D03*
X187150000Y-107140000D03*
X187150000Y-109680000D03*
X187150000Y-112220000D03*
X187150000Y-114760000D03*
X187150000Y-117300000D03*
X187150000Y-119840000D03*
X194770000Y-119840000D03*
X194770000Y-117300000D03*
X194770000Y-114760000D03*
X194770000Y-112220000D03*
X194770000Y-109680000D03*
X194770000Y-107140000D03*
X194770000Y-104600000D03*
X194770000Y-102060000D03*
X194770000Y-99520000D03*
%TD*%
%TO.C,C10*%
X65230000Y-28400000D03*
X65230000Y-33400000D03*
X65230000Y-30940000D03*
%TD*%
%TO.C,R1*%
X197945000Y-102060000D03*
X197945000Y-89360000D03*
%TD*%
%TO.C,C2*%
X222710000Y-33400000D03*
X222710000Y-28400000D03*
X222710000Y-30860000D03*
%TD*%
%TO.C,C4*%
X222710000Y-38560000D03*
X222710000Y-43560000D03*
X222710000Y-41100000D03*
%TD*%
%TO.C,S2*%
X232870000Y-135080000D03*
X232870000Y-137620000D03*
X232870000Y-140160000D03*
X232870000Y-142700000D03*
X232870000Y-145240000D03*
X232870000Y-147780000D03*
X232870000Y-150320000D03*
X232870000Y-152860000D03*
X232870000Y-155400000D03*
X232870000Y-157940000D03*
X240490000Y-157940000D03*
X240490000Y-155400000D03*
X240490000Y-152860000D03*
X240490000Y-150320000D03*
X240490000Y-147780000D03*
X240490000Y-145240000D03*
X240490000Y-142700000D03*
X240490000Y-140160000D03*
X240490000Y-137620000D03*
X240490000Y-135080000D03*
%TD*%
D16*
%TO.C,X1*%
X211280000Y-104600000D03*
X211280000Y-99700000D03*
%TD*%
D10*
%TO.C,R2*%
X202390000Y-102060000D03*
X202390000Y-89360000D03*
%TD*%
M02*
