%TF.GenerationSoftware,KiCad,Pcbnew,7.0.5*%
%TF.CreationDate,2023-08-20T22:51:28-05:00*%
%TF.ProjectId,ibm5161-backplane,69626d35-3136-4312-9d62-61636b706c61,rev?*%
%TF.SameCoordinates,Original*%
%TF.FileFunction,Copper,L1,Top*%
%TF.FilePolarity,Positive*%
%FSLAX46Y46*%
G04 Gerber Fmt 4.6, Leading zero omitted, Abs format (unit mm)*
G04 Created by KiCad (PCBNEW 7.0.5) date 2023-08-20 22:51:28*
%MOMM*%
%LPD*%
G01*
G04 APERTURE LIST*
%TA.AperFunction,ComponentPad*%
%ADD10R,1.600000X1.600000*%
%TD*%
%TA.AperFunction,ComponentPad*%
%ADD11R,1.700000X1.700000*%
%TD*%
%TA.AperFunction,ComponentPad*%
%ADD12R,12.000000X19.000000*%
%TD*%
%TA.AperFunction,ComponentPad*%
%ADD13C,3.810000*%
%TD*%
%TA.AperFunction,ComponentPad*%
%ADD14C,3.000000*%
%TD*%
%TA.AperFunction,ComponentPad*%
%ADD15R,3.000000X3.000000*%
%TD*%
%TA.AperFunction,ComponentPad*%
%ADD16R,2.300000X2.300000*%
%TD*%
%TA.AperFunction,ViaPad*%
%ADD17C,1.500000*%
%TD*%
%TA.AperFunction,ViaPad*%
%ADD18C,2.500000*%
%TD*%
%TA.AperFunction,ViaPad*%
%ADD19C,1.000000*%
%TD*%
%TA.AperFunction,ViaPad*%
%ADD20C,2.000000*%
%TD*%
%TA.AperFunction,Conductor*%
%ADD21C,2.540000*%
%TD*%
%TA.AperFunction,Conductor*%
%ADD22C,1.270000*%
%TD*%
%TA.AperFunction,Conductor*%
%ADD23C,0.381000*%
%TD*%
%TA.AperFunction,Conductor*%
%ADD24C,0.762000*%
%TD*%
G04 APERTURE END LIST*
D10*
%TO.P,C9,1*%
%TO.N,+12V*%
X146510000Y-41100000D03*
%TO.P,C9,2*%
%TO.N,GNDREF*%
X146510000Y-46100000D03*
%TO.P,C9,3*%
X146510000Y-43640000D03*
%TD*%
D11*
%TO.P,J7,1,GND*%
%TO.N,GNDREF*%
X154130000Y-43640000D03*
%TO.P,J7,2,RESET*%
%TO.N,/RESET*%
X154130000Y-46180000D03*
%TO.P,J7,3,VCC*%
%TO.N,+5V*%
X154130000Y-48720000D03*
%TO.P,J7,4,IRQ2*%
%TO.N,/IRQ2*%
X154130000Y-51260000D03*
%TO.P,J7,5,-5V*%
%TO.N,-5V*%
X154130000Y-53800000D03*
%TO.P,J7,6,DRQ2*%
%TO.N,/DRQ2*%
X154130000Y-56340000D03*
%TO.P,J7,7,-12V*%
%TO.N,-12V*%
X154130000Y-58880000D03*
%TO.P,J7,8,UNUSED*%
%TO.N,/~{CSEL}*%
X154130000Y-61420000D03*
%TO.P,J7,9,+12V*%
%TO.N,+12V*%
X154130000Y-63960000D03*
%TO.P,J7,10,GND*%
%TO.N,GNDREF*%
X154130000Y-66500000D03*
%TO.P,J7,11,~{SMEMW}*%
%TO.N,/~{SMEMW}*%
X154130000Y-69040000D03*
%TO.P,J7,12,~{SMEMR}*%
%TO.N,/~{SMEMR}*%
X154130000Y-71580000D03*
%TO.P,J7,13,~{IOW}*%
%TO.N,/~{IOW}*%
X154130000Y-74120000D03*
%TO.P,J7,14,~{IOR}*%
%TO.N,/~{IOR}*%
X154130000Y-76660000D03*
%TO.P,J7,15,~{DACK3}*%
%TO.N,/~{DACK3}*%
X154130000Y-79200000D03*
%TO.P,J7,16,DRQ3*%
%TO.N,/DRQ3*%
X154130000Y-81740000D03*
%TO.P,J7,17,~{DACK1}*%
%TO.N,/~{DACK1}*%
X154130000Y-84280000D03*
%TO.P,J7,18,DRQ1*%
%TO.N,/DRQ1*%
X154130000Y-86820000D03*
%TO.P,J7,19,~{DACK0}*%
%TO.N,/~{DACK0}*%
X154130000Y-89360000D03*
%TO.P,J7,20,CLK*%
%TO.N,/CLK*%
X154130000Y-91900000D03*
%TO.P,J7,21,IRQ7*%
%TO.N,/IRQ7*%
X154130000Y-94440000D03*
%TO.P,J7,22,IRQ6*%
%TO.N,/IRQ6*%
X154130000Y-96980000D03*
%TO.P,J7,23,IRQ5*%
%TO.N,/IRQ5*%
X154130000Y-99520000D03*
%TO.P,J7,24,IRQ4*%
%TO.N,/IRQ4*%
X154130000Y-102060000D03*
%TO.P,J7,25,IRQ3*%
%TO.N,/IRQ3*%
X154130000Y-104600000D03*
%TO.P,J7,26,~{DACK2}*%
%TO.N,/~{DACK2}*%
X154130000Y-107140000D03*
%TO.P,J7,27,TC*%
%TO.N,/TC*%
X154130000Y-109680000D03*
%TO.P,J7,28,ALE*%
%TO.N,/ALE*%
X154130000Y-112220000D03*
%TO.P,J7,29,VCC*%
%TO.N,+5V*%
X154130000Y-114760000D03*
%TO.P,J7,30,OSC*%
%TO.N,/OSC*%
X154130000Y-117300000D03*
%TO.P,J7,31,GND*%
%TO.N,GNDREF*%
X154130000Y-119840000D03*
%TO.P,J7,32,IO*%
%TO.N,/IO*%
X159210000Y-43640000D03*
%TO.P,J7,33,DB7*%
%TO.N,/DB7*%
X159210000Y-46180000D03*
%TO.P,J7,34,DB6*%
%TO.N,/DB6*%
X159210000Y-48720000D03*
%TO.P,J7,35,DB5*%
%TO.N,/DB5*%
X159210000Y-51260000D03*
%TO.P,J7,36,DB4*%
%TO.N,/DB4*%
X159210000Y-53800000D03*
%TO.P,J7,37,DB3*%
%TO.N,/DB3*%
X159210000Y-56340000D03*
%TO.P,J7,38,DB2*%
%TO.N,/DB2*%
X159210000Y-58880000D03*
%TO.P,J7,39,DB1*%
%TO.N,/DB1*%
X159210000Y-61420000D03*
%TO.P,J7,40,DB0*%
%TO.N,/DB0*%
X159210000Y-63960000D03*
%TO.P,J7,41,IO_READY*%
%TO.N,/IO_READY*%
X159210000Y-66500000D03*
%TO.P,J7,42,AEN*%
%TO.N,/AEN*%
X159210000Y-69040000D03*
%TO.P,J7,43,BA19*%
%TO.N,/BA19*%
X159210000Y-71580000D03*
%TO.P,J7,44,BA18*%
%TO.N,/BA18*%
X159210000Y-74120000D03*
%TO.P,J7,45,BA17*%
%TO.N,/BA17*%
X159210000Y-76660000D03*
%TO.P,J7,46,BA16*%
%TO.N,/BA16*%
X159210000Y-79200000D03*
%TO.P,J7,47,BA15*%
%TO.N,/BA15*%
X159210000Y-81740000D03*
%TO.P,J7,48,BA14*%
%TO.N,/BA14*%
X159210000Y-84280000D03*
%TO.P,J7,49,BA13*%
%TO.N,/BA13*%
X159210000Y-86820000D03*
%TO.P,J7,50,BA12*%
%TO.N,/BA12*%
X159210000Y-89360000D03*
%TO.P,J7,51,BA11*%
%TO.N,/BA11*%
X159210000Y-91900000D03*
%TO.P,J7,52,BA10*%
%TO.N,/BA10*%
X159210000Y-94440000D03*
%TO.P,J7,53,BA09*%
%TO.N,/BA09*%
X159210000Y-96980000D03*
%TO.P,J7,54,BA08*%
%TO.N,/BA08*%
X159210000Y-99520000D03*
%TO.P,J7,55,BA07*%
%TO.N,/BA07*%
X159210000Y-102060000D03*
%TO.P,J7,56,BA06*%
%TO.N,/BA06*%
X159210000Y-104600000D03*
%TO.P,J7,57,BA05*%
%TO.N,/BA05*%
X159210000Y-107140000D03*
%TO.P,J7,58,BA04*%
%TO.N,/BA04*%
X159210000Y-109680000D03*
%TO.P,J7,59,BA03*%
%TO.N,/BA03*%
X159210000Y-112220000D03*
%TO.P,J7,60,BA02*%
%TO.N,/BA02*%
X159210000Y-114760000D03*
%TO.P,J7,61,BA01*%
%TO.N,/BA01*%
X159210000Y-117300000D03*
%TO.P,J7,62,BA00*%
%TO.N,/BA00*%
X159210000Y-119840000D03*
%TD*%
%TO.P,J5,1,GND*%
%TO.N,GNDREF*%
X113490000Y-43640000D03*
%TO.P,J5,2,RESET*%
%TO.N,/RESET*%
X113490000Y-46180000D03*
%TO.P,J5,3,VCC*%
%TO.N,+5V*%
X113490000Y-48720000D03*
%TO.P,J5,4,IRQ2*%
%TO.N,/IRQ2*%
X113490000Y-51260000D03*
%TO.P,J5,5,-5V*%
%TO.N,-5V*%
X113490000Y-53800000D03*
%TO.P,J5,6,DRQ2*%
%TO.N,/DRQ2*%
X113490000Y-56340000D03*
%TO.P,J5,7,-12V*%
%TO.N,-12V*%
X113490000Y-58880000D03*
%TO.P,J5,8,UNUSED*%
%TO.N,/~{CSEL}*%
X113490000Y-61420000D03*
%TO.P,J5,9,+12V*%
%TO.N,+12V*%
X113490000Y-63960000D03*
%TO.P,J5,10,GND*%
%TO.N,GNDREF*%
X113490000Y-66500000D03*
%TO.P,J5,11,~{SMEMW}*%
%TO.N,/~{SMEMW}*%
X113490000Y-69040000D03*
%TO.P,J5,12,~{SMEMR}*%
%TO.N,/~{SMEMR}*%
X113490000Y-71580000D03*
%TO.P,J5,13,~{IOW}*%
%TO.N,/~{IOW}*%
X113490000Y-74120000D03*
%TO.P,J5,14,~{IOR}*%
%TO.N,/~{IOR}*%
X113490000Y-76660000D03*
%TO.P,J5,15,~{DACK3}*%
%TO.N,/~{DACK3}*%
X113490000Y-79200000D03*
%TO.P,J5,16,DRQ3*%
%TO.N,/DRQ3*%
X113490000Y-81740000D03*
%TO.P,J5,17,~{DACK1}*%
%TO.N,/~{DACK1}*%
X113490000Y-84280000D03*
%TO.P,J5,18,DRQ1*%
%TO.N,/DRQ1*%
X113490000Y-86820000D03*
%TO.P,J5,19,~{DACK0}*%
%TO.N,/~{DACK0}*%
X113490000Y-89360000D03*
%TO.P,J5,20,CLK*%
%TO.N,/CLK*%
X113490000Y-91900000D03*
%TO.P,J5,21,IRQ7*%
%TO.N,/IRQ7*%
X113490000Y-94440000D03*
%TO.P,J5,22,IRQ6*%
%TO.N,/IRQ6*%
X113490000Y-96980000D03*
%TO.P,J5,23,IRQ5*%
%TO.N,/IRQ5*%
X113490000Y-99520000D03*
%TO.P,J5,24,IRQ4*%
%TO.N,/IRQ4*%
X113490000Y-102060000D03*
%TO.P,J5,25,IRQ3*%
%TO.N,/IRQ3*%
X113490000Y-104600000D03*
%TO.P,J5,26,~{DACK2}*%
%TO.N,/~{DACK2}*%
X113490000Y-107140000D03*
%TO.P,J5,27,TC*%
%TO.N,/TC*%
X113490000Y-109680000D03*
%TO.P,J5,28,ALE*%
%TO.N,/ALE*%
X113490000Y-112220000D03*
%TO.P,J5,29,VCC*%
%TO.N,+5V*%
X113490000Y-114760000D03*
%TO.P,J5,30,OSC*%
%TO.N,/OSC*%
X113490000Y-117300000D03*
%TO.P,J5,31,GND*%
%TO.N,GNDREF*%
X113490000Y-119840000D03*
%TO.P,J5,32,IO*%
%TO.N,/IO*%
X118570000Y-43640000D03*
%TO.P,J5,33,DB7*%
%TO.N,/DB7*%
X118570000Y-46180000D03*
%TO.P,J5,34,DB6*%
%TO.N,/DB6*%
X118570000Y-48720000D03*
%TO.P,J5,35,DB5*%
%TO.N,/DB5*%
X118570000Y-51260000D03*
%TO.P,J5,36,DB4*%
%TO.N,/DB4*%
X118570000Y-53800000D03*
%TO.P,J5,37,DB3*%
%TO.N,/DB3*%
X118570000Y-56340000D03*
%TO.P,J5,38,DB2*%
%TO.N,/DB2*%
X118570000Y-58880000D03*
%TO.P,J5,39,DB1*%
%TO.N,/DB1*%
X118570000Y-61420000D03*
%TO.P,J5,40,DB0*%
%TO.N,/DB0*%
X118570000Y-63960000D03*
%TO.P,J5,41,IO_READY*%
%TO.N,/IO_READY*%
X118570000Y-66500000D03*
%TO.P,J5,42,AEN*%
%TO.N,/AEN*%
X118570000Y-69040000D03*
%TO.P,J5,43,BA19*%
%TO.N,/BA19*%
X118570000Y-71580000D03*
%TO.P,J5,44,BA18*%
%TO.N,/BA18*%
X118570000Y-74120000D03*
%TO.P,J5,45,BA17*%
%TO.N,/BA17*%
X118570000Y-76660000D03*
%TO.P,J5,46,BA16*%
%TO.N,/BA16*%
X118570000Y-79200000D03*
%TO.P,J5,47,BA15*%
%TO.N,/BA15*%
X118570000Y-81740000D03*
%TO.P,J5,48,BA14*%
%TO.N,/BA14*%
X118570000Y-84280000D03*
%TO.P,J5,49,BA13*%
%TO.N,/BA13*%
X118570000Y-86820000D03*
%TO.P,J5,50,BA12*%
%TO.N,/BA12*%
X118570000Y-89360000D03*
%TO.P,J5,51,BA11*%
%TO.N,/BA11*%
X118570000Y-91900000D03*
%TO.P,J5,52,BA10*%
%TO.N,/BA10*%
X118570000Y-94440000D03*
%TO.P,J5,53,BA09*%
%TO.N,/BA09*%
X118570000Y-96980000D03*
%TO.P,J5,54,BA08*%
%TO.N,/BA08*%
X118570000Y-99520000D03*
%TO.P,J5,55,BA07*%
%TO.N,/BA07*%
X118570000Y-102060000D03*
%TO.P,J5,56,BA06*%
%TO.N,/BA06*%
X118570000Y-104600000D03*
%TO.P,J5,57,BA05*%
%TO.N,/BA05*%
X118570000Y-107140000D03*
%TO.P,J5,58,BA04*%
%TO.N,/BA04*%
X118570000Y-109680000D03*
%TO.P,J5,59,BA03*%
%TO.N,/BA03*%
X118570000Y-112220000D03*
%TO.P,J5,60,BA02*%
%TO.N,/BA02*%
X118570000Y-114760000D03*
%TO.P,J5,61,BA01*%
%TO.N,/BA01*%
X118570000Y-117300000D03*
%TO.P,J5,62,BA00*%
%TO.N,/BA00*%
X118570000Y-119840000D03*
%TD*%
D10*
%TO.P,C12,1*%
%TO.N,GNDREF*%
X146510000Y-28400000D03*
%TO.P,C12,2*%
%TO.N,-5V*%
X146510000Y-33400000D03*
%TO.P,C12,3*%
%TO.N,GNDREF*%
X146510000Y-30940000D03*
%TD*%
%TO.P,C13,1*%
%TO.N,+5V*%
X192230000Y-89360000D03*
%TO.P,C13,2*%
%TO.N,GNDREF*%
X187230000Y-89360000D03*
%TO.P,C13,3*%
X189690000Y-89360000D03*
%TD*%
%TO.P,C5,1*%
%TO.N,GNDREF*%
X222862400Y-69120000D03*
%TO.P,C5,2*%
%TO.N,-5V*%
X222862400Y-74120000D03*
%TO.P,C5,3*%
X222862400Y-71660000D03*
%TD*%
%TO.P,C7,1*%
%TO.N,GNDREF*%
X222710000Y-84280000D03*
%TO.P,C7,2*%
%TO.N,+5V*%
X222710000Y-89280000D03*
%TO.P,C7,3*%
%TO.N,GNDREF*%
X222710000Y-86820000D03*
%TD*%
%TO.P,S1,1,Pin_1*%
%TO.N,unconnected-(S1-Pin_1-Pad1)*%
X232918000Y-96980000D03*
%TO.P,S1,2,Pin_2*%
%TO.N,unconnected-(S1-Pin_2-Pad2)*%
X232918000Y-99520000D03*
%TO.P,S1,3,Pin_3*%
%TO.N,unconnected-(S1-Pin_3-Pad3)*%
X232918000Y-102060000D03*
%TO.P,S1,4,Pin_4*%
%TO.N,unconnected-(S1-Pin_4-Pad4)*%
X232918000Y-104600000D03*
%TO.P,S1,5,Pin_5*%
%TO.N,unconnected-(S1-Pin_5-Pad5)*%
X232918000Y-107140000D03*
%TO.P,S1,6,Pin_6*%
%TO.N,unconnected-(S1-Pin_6-Pad6)*%
X232918000Y-109680000D03*
%TO.P,S1,7,Pin_7*%
%TO.N,unconnected-(S1-Pin_7-Pad7)*%
X232918000Y-112220000D03*
%TO.P,S1,8,Pin_8*%
%TO.N,unconnected-(S1-Pin_8-Pad8)*%
X232918000Y-114760000D03*
%TO.P,S1,9,Pin_9*%
%TO.N,unconnected-(S1-Pin_9-Pad9)*%
X232918000Y-117300000D03*
%TO.P,S1,10,Pin_10*%
%TO.N,GNDREF*%
X232918000Y-119840000D03*
%TO.P,S1,11,Pin_11*%
%TO.N,unconnected-(S1-Pin_11-Pad11)*%
X240538000Y-119840000D03*
%TO.P,S1,12,Pin_12*%
%TO.N,unconnected-(S1-Pin_12-Pad12)*%
X240538000Y-117300000D03*
%TO.P,S1,13,Pin_13*%
%TO.N,unconnected-(S1-Pin_13-Pad13)*%
X240538000Y-114760000D03*
%TO.P,S1,14,Pin_14*%
%TO.N,unconnected-(S1-Pin_14-Pad14)*%
X240538000Y-112220000D03*
%TO.P,S1,15,Pin_15*%
%TO.N,unconnected-(S1-Pin_15-Pad15)*%
X240538000Y-109680000D03*
%TO.P,S1,16,Pin_16*%
%TO.N,unconnected-(S1-Pin_16-Pad16)*%
X240538000Y-107140000D03*
%TO.P,S1,17,Pin_17*%
%TO.N,unconnected-(S1-Pin_17-Pad17)*%
X240538000Y-104600000D03*
%TO.P,S1,18,Pin_18*%
%TO.N,unconnected-(S1-Pin_18-Pad18)*%
X240538000Y-102060000D03*
%TO.P,S1,19,Pin_19*%
%TO.N,unconnected-(S1-Pin_19-Pad19)*%
X240538000Y-99520000D03*
%TO.P,S1,20,Pin_20*%
%TO.N,+5V*%
X240538000Y-96980000D03*
%TD*%
D11*
%TO.P,J4,1,GND*%
%TO.N,GNDREF*%
X93170000Y-43640000D03*
%TO.P,J4,2,RESET*%
%TO.N,/RESET*%
X93170000Y-46180000D03*
%TO.P,J4,3,VCC*%
%TO.N,+5V*%
X93170000Y-48720000D03*
%TO.P,J4,4,IRQ2*%
%TO.N,/IRQ2*%
X93170000Y-51260000D03*
%TO.P,J4,5,-5V*%
%TO.N,-5V*%
X93170000Y-53800000D03*
%TO.P,J4,6,DRQ2*%
%TO.N,/DRQ2*%
X93170000Y-56340000D03*
%TO.P,J4,7,-12V*%
%TO.N,-12V*%
X93170000Y-58880000D03*
%TO.P,J4,8,UNUSED*%
%TO.N,/~{CSEL}*%
X93170000Y-61420000D03*
%TO.P,J4,9,+12V*%
%TO.N,+12V*%
X93170000Y-63960000D03*
%TO.P,J4,10,GND*%
%TO.N,GNDREF*%
X93170000Y-66500000D03*
%TO.P,J4,11,~{SMEMW}*%
%TO.N,/~{SMEMW}*%
X93170000Y-69040000D03*
%TO.P,J4,12,~{SMEMR}*%
%TO.N,/~{SMEMR}*%
X93170000Y-71580000D03*
%TO.P,J4,13,~{IOW}*%
%TO.N,/~{IOW}*%
X93170000Y-74120000D03*
%TO.P,J4,14,~{IOR}*%
%TO.N,/~{IOR}*%
X93170000Y-76660000D03*
%TO.P,J4,15,~{DACK3}*%
%TO.N,/~{DACK3}*%
X93170000Y-79200000D03*
%TO.P,J4,16,DRQ3*%
%TO.N,/DRQ3*%
X93170000Y-81740000D03*
%TO.P,J4,17,~{DACK1}*%
%TO.N,/~{DACK1}*%
X93170000Y-84280000D03*
%TO.P,J4,18,DRQ1*%
%TO.N,/DRQ1*%
X93170000Y-86820000D03*
%TO.P,J4,19,~{DACK0}*%
%TO.N,/~{DACK0}*%
X93170000Y-89360000D03*
%TO.P,J4,20,CLK*%
%TO.N,/CLK*%
X93170000Y-91900000D03*
%TO.P,J4,21,IRQ7*%
%TO.N,/IRQ7*%
X93170000Y-94440000D03*
%TO.P,J4,22,IRQ6*%
%TO.N,/IRQ6*%
X93170000Y-96980000D03*
%TO.P,J4,23,IRQ5*%
%TO.N,/IRQ5*%
X93170000Y-99520000D03*
%TO.P,J4,24,IRQ4*%
%TO.N,/IRQ4*%
X93170000Y-102060000D03*
%TO.P,J4,25,IRQ3*%
%TO.N,/IRQ3*%
X93170000Y-104600000D03*
%TO.P,J4,26,~{DACK2}*%
%TO.N,/~{DACK2}*%
X93170000Y-107140000D03*
%TO.P,J4,27,TC*%
%TO.N,/TC*%
X93170000Y-109680000D03*
%TO.P,J4,28,ALE*%
%TO.N,/ALE*%
X93170000Y-112220000D03*
%TO.P,J4,29,VCC*%
%TO.N,+5V*%
X93170000Y-114760000D03*
%TO.P,J4,30,OSC*%
%TO.N,/OSC*%
X93170000Y-117300000D03*
%TO.P,J4,31,GND*%
%TO.N,GNDREF*%
X93170000Y-119840000D03*
%TO.P,J4,32,IO*%
%TO.N,/IO*%
X98250000Y-43640000D03*
%TO.P,J4,33,DB7*%
%TO.N,/DB7*%
X98250000Y-46180000D03*
%TO.P,J4,34,DB6*%
%TO.N,/DB6*%
X98250000Y-48720000D03*
%TO.P,J4,35,DB5*%
%TO.N,/DB5*%
X98250000Y-51260000D03*
%TO.P,J4,36,DB4*%
%TO.N,/DB4*%
X98250000Y-53800000D03*
%TO.P,J4,37,DB3*%
%TO.N,/DB3*%
X98250000Y-56340000D03*
%TO.P,J4,38,DB2*%
%TO.N,/DB2*%
X98250000Y-58880000D03*
%TO.P,J4,39,DB1*%
%TO.N,/DB1*%
X98250000Y-61420000D03*
%TO.P,J4,40,DB0*%
%TO.N,/DB0*%
X98250000Y-63960000D03*
%TO.P,J4,41,IO_READY*%
%TO.N,/IO_READY*%
X98250000Y-66500000D03*
%TO.P,J4,42,AEN*%
%TO.N,/AEN*%
X98250000Y-69040000D03*
%TO.P,J4,43,BA19*%
%TO.N,/BA19*%
X98250000Y-71580000D03*
%TO.P,J4,44,BA18*%
%TO.N,/BA18*%
X98250000Y-74120000D03*
%TO.P,J4,45,BA17*%
%TO.N,/BA17*%
X98250000Y-76660000D03*
%TO.P,J4,46,BA16*%
%TO.N,/BA16*%
X98250000Y-79200000D03*
%TO.P,J4,47,BA15*%
%TO.N,/BA15*%
X98250000Y-81740000D03*
%TO.P,J4,48,BA14*%
%TO.N,/BA14*%
X98250000Y-84280000D03*
%TO.P,J4,49,BA13*%
%TO.N,/BA13*%
X98250000Y-86820000D03*
%TO.P,J4,50,BA12*%
%TO.N,/BA12*%
X98250000Y-89360000D03*
%TO.P,J4,51,BA11*%
%TO.N,/BA11*%
X98250000Y-91900000D03*
%TO.P,J4,52,BA10*%
%TO.N,/BA10*%
X98250000Y-94440000D03*
%TO.P,J4,53,BA09*%
%TO.N,/BA09*%
X98250000Y-96980000D03*
%TO.P,J4,54,BA08*%
%TO.N,/BA08*%
X98250000Y-99520000D03*
%TO.P,J4,55,BA07*%
%TO.N,/BA07*%
X98250000Y-102060000D03*
%TO.P,J4,56,BA06*%
%TO.N,/BA06*%
X98250000Y-104600000D03*
%TO.P,J4,57,BA05*%
%TO.N,/BA05*%
X98250000Y-107140000D03*
%TO.P,J4,58,BA04*%
%TO.N,/BA04*%
X98250000Y-109680000D03*
%TO.P,J4,59,BA03*%
%TO.N,/BA03*%
X98250000Y-112220000D03*
%TO.P,J4,60,BA02*%
%TO.N,/BA02*%
X98250000Y-114760000D03*
%TO.P,J4,61,BA01*%
%TO.N,/BA01*%
X98250000Y-117300000D03*
%TO.P,J4,62,BA00*%
%TO.N,/BA00*%
X98250000Y-119840000D03*
%TD*%
%TO.P,J1,1,GND*%
%TO.N,GNDREF*%
X32210000Y-43640000D03*
%TO.P,J1,2,RESET*%
%TO.N,/RESET*%
X32210000Y-46180000D03*
%TO.P,J1,3,VCC*%
%TO.N,+5V*%
X32210000Y-48720000D03*
%TO.P,J1,4,IRQ2*%
%TO.N,/IRQ2*%
X32210000Y-51260000D03*
%TO.P,J1,5,-5V*%
%TO.N,-5V*%
X32210000Y-53800000D03*
%TO.P,J1,6,DRQ2*%
%TO.N,/DRQ2*%
X32210000Y-56340000D03*
%TO.P,J1,7,-12V*%
%TO.N,-12V*%
X32210000Y-58880000D03*
%TO.P,J1,8,UNUSED*%
%TO.N,/~{CSEL}*%
X32210000Y-61420000D03*
%TO.P,J1,9,+12V*%
%TO.N,+12V*%
X32210000Y-63960000D03*
%TO.P,J1,10,GND*%
%TO.N,GNDREF*%
X32210000Y-66500000D03*
%TO.P,J1,11,~{SMEMW}*%
%TO.N,/~{SMEMW}*%
X32210000Y-69040000D03*
%TO.P,J1,12,~{SMEMR}*%
%TO.N,/~{SMEMR}*%
X32210000Y-71580000D03*
%TO.P,J1,13,~{IOW}*%
%TO.N,/~{IOW}*%
X32210000Y-74120000D03*
%TO.P,J1,14,~{IOR}*%
%TO.N,/~{IOR}*%
X32210000Y-76660000D03*
%TO.P,J1,15,~{DACK3}*%
%TO.N,/~{DACK3}*%
X32210000Y-79200000D03*
%TO.P,J1,16,DRQ3*%
%TO.N,/DRQ3*%
X32210000Y-81740000D03*
%TO.P,J1,17,~{DACK1}*%
%TO.N,/~{DACK1}*%
X32210000Y-84280000D03*
%TO.P,J1,18,DRQ1*%
%TO.N,/DRQ1*%
X32210000Y-86820000D03*
%TO.P,J1,19,~{DACK0}*%
%TO.N,/~{DACK0}*%
X32210000Y-89360000D03*
%TO.P,J1,20,CLK*%
%TO.N,/CLK*%
X32210000Y-91900000D03*
%TO.P,J1,21,IRQ7*%
%TO.N,/IRQ7*%
X32210000Y-94440000D03*
%TO.P,J1,22,IRQ6*%
%TO.N,/IRQ6*%
X32210000Y-96980000D03*
%TO.P,J1,23,IRQ5*%
%TO.N,/IRQ5*%
X32210000Y-99520000D03*
%TO.P,J1,24,IRQ4*%
%TO.N,/IRQ4*%
X32210000Y-102060000D03*
%TO.P,J1,25,IRQ3*%
%TO.N,/IRQ3*%
X32210000Y-104600000D03*
%TO.P,J1,26,~{DACK2}*%
%TO.N,/~{DACK2}*%
X32210000Y-107140000D03*
%TO.P,J1,27,TC*%
%TO.N,/TC*%
X32210000Y-109680000D03*
%TO.P,J1,28,ALE*%
%TO.N,/ALE*%
X32210000Y-112220000D03*
%TO.P,J1,29,VCC*%
%TO.N,+5V*%
X32210000Y-114760000D03*
%TO.P,J1,30,OSC*%
%TO.N,/OSC*%
X32210000Y-117300000D03*
%TO.P,J1,31,GND*%
%TO.N,GNDREF*%
X32210000Y-119840000D03*
%TO.P,J1,32,IO*%
%TO.N,/IO*%
X37290000Y-43640000D03*
%TO.P,J1,33,DB7*%
%TO.N,/DB7*%
X37290000Y-46180000D03*
%TO.P,J1,34,DB6*%
%TO.N,/DB6*%
X37290000Y-48720000D03*
%TO.P,J1,35,DB5*%
%TO.N,/DB5*%
X37290000Y-51260000D03*
%TO.P,J1,36,DB4*%
%TO.N,/DB4*%
X37290000Y-53800000D03*
%TO.P,J1,37,DB3*%
%TO.N,/DB3*%
X37290000Y-56340000D03*
%TO.P,J1,38,DB2*%
%TO.N,/DB2*%
X37290000Y-58880000D03*
%TO.P,J1,39,DB1*%
%TO.N,/DB1*%
X37290000Y-61420000D03*
%TO.P,J1,40,DB0*%
%TO.N,/DB0*%
X37290000Y-63960000D03*
%TO.P,J1,41,IO_READY*%
%TO.N,/IO_READY*%
X37290000Y-66500000D03*
%TO.P,J1,42,AEN*%
%TO.N,/AEN*%
X37290000Y-69040000D03*
%TO.P,J1,43,BA19*%
%TO.N,/BA19*%
X37290000Y-71580000D03*
%TO.P,J1,44,BA18*%
%TO.N,/BA18*%
X37290000Y-74120000D03*
%TO.P,J1,45,BA17*%
%TO.N,/BA17*%
X37290000Y-76660000D03*
%TO.P,J1,46,BA16*%
%TO.N,/BA16*%
X37290000Y-79200000D03*
%TO.P,J1,47,BA15*%
%TO.N,/BA15*%
X37290000Y-81740000D03*
%TO.P,J1,48,BA14*%
%TO.N,/BA14*%
X37290000Y-84280000D03*
%TO.P,J1,49,BA13*%
%TO.N,/BA13*%
X37290000Y-86820000D03*
%TO.P,J1,50,BA12*%
%TO.N,/BA12*%
X37290000Y-89360000D03*
%TO.P,J1,51,BA11*%
%TO.N,/BA11*%
X37290000Y-91900000D03*
%TO.P,J1,52,BA10*%
%TO.N,/BA10*%
X37290000Y-94440000D03*
%TO.P,J1,53,BA09*%
%TO.N,/BA09*%
X37290000Y-96980000D03*
%TO.P,J1,54,BA08*%
%TO.N,/BA08*%
X37290000Y-99520000D03*
%TO.P,J1,55,BA07*%
%TO.N,/BA07*%
X37290000Y-102060000D03*
%TO.P,J1,56,BA06*%
%TO.N,/BA06*%
X37290000Y-104600000D03*
%TO.P,J1,57,BA05*%
%TO.N,/BA05*%
X37290000Y-107140000D03*
%TO.P,J1,58,BA04*%
%TO.N,/BA04*%
X37290000Y-109680000D03*
%TO.P,J1,59,BA03*%
%TO.N,/BA03*%
X37290000Y-112220000D03*
%TO.P,J1,60,BA02*%
%TO.N,/BA02*%
X37290000Y-114760000D03*
%TO.P,J1,61,BA01*%
%TO.N,/BA01*%
X37290000Y-117300000D03*
%TO.P,J1,62,BA00*%
%TO.N,/BA00*%
X37290000Y-119840000D03*
%TD*%
D10*
%TO.P,C8,1*%
%TO.N,GNDREF*%
X230330000Y-84280000D03*
%TO.P,C8,2*%
%TO.N,+5V*%
X230330000Y-89280000D03*
%TO.P,C8,3*%
%TO.N,GNDREF*%
X230330000Y-86820000D03*
%TD*%
D12*
%TO.P,REF\u002A\u002A,1*%
%TO.N,GNDREF*%
X239500000Y-27850000D03*
%TD*%
D11*
%TO.P,J3,1,GND*%
%TO.N,GNDREF*%
X72850000Y-43640000D03*
%TO.P,J3,2,RESET*%
%TO.N,/RESET*%
X72850000Y-46180000D03*
%TO.P,J3,3,VCC*%
%TO.N,+5V*%
X72850000Y-48720000D03*
%TO.P,J3,4,IRQ2*%
%TO.N,/IRQ2*%
X72850000Y-51260000D03*
%TO.P,J3,5,-5V*%
%TO.N,-5V*%
X72850000Y-53800000D03*
%TO.P,J3,6,DRQ2*%
%TO.N,/DRQ2*%
X72850000Y-56340000D03*
%TO.P,J3,7,-12V*%
%TO.N,-12V*%
X72850000Y-58880000D03*
%TO.P,J3,8,UNUSED*%
%TO.N,/~{CSEL}*%
X72850000Y-61420000D03*
%TO.P,J3,9,+12V*%
%TO.N,+12V*%
X72850000Y-63960000D03*
%TO.P,J3,10,GND*%
%TO.N,GNDREF*%
X72850000Y-66500000D03*
%TO.P,J3,11,~{SMEMW}*%
%TO.N,/~{SMEMW}*%
X72850000Y-69040000D03*
%TO.P,J3,12,~{SMEMR}*%
%TO.N,/~{SMEMR}*%
X72850000Y-71580000D03*
%TO.P,J3,13,~{IOW}*%
%TO.N,/~{IOW}*%
X72850000Y-74120000D03*
%TO.P,J3,14,~{IOR}*%
%TO.N,/~{IOR}*%
X72850000Y-76660000D03*
%TO.P,J3,15,~{DACK3}*%
%TO.N,/~{DACK3}*%
X72850000Y-79200000D03*
%TO.P,J3,16,DRQ3*%
%TO.N,/DRQ3*%
X72850000Y-81740000D03*
%TO.P,J3,17,~{DACK1}*%
%TO.N,/~{DACK1}*%
X72850000Y-84280000D03*
%TO.P,J3,18,DRQ1*%
%TO.N,/DRQ1*%
X72850000Y-86820000D03*
%TO.P,J3,19,~{DACK0}*%
%TO.N,/~{DACK0}*%
X72850000Y-89360000D03*
%TO.P,J3,20,CLK*%
%TO.N,/CLK*%
X72850000Y-91900000D03*
%TO.P,J3,21,IRQ7*%
%TO.N,/IRQ7*%
X72850000Y-94440000D03*
%TO.P,J3,22,IRQ6*%
%TO.N,/IRQ6*%
X72850000Y-96980000D03*
%TO.P,J3,23,IRQ5*%
%TO.N,/IRQ5*%
X72850000Y-99520000D03*
%TO.P,J3,24,IRQ4*%
%TO.N,/IRQ4*%
X72850000Y-102060000D03*
%TO.P,J3,25,IRQ3*%
%TO.N,/IRQ3*%
X72850000Y-104600000D03*
%TO.P,J3,26,~{DACK2}*%
%TO.N,/~{DACK2}*%
X72850000Y-107140000D03*
%TO.P,J3,27,TC*%
%TO.N,/TC*%
X72850000Y-109680000D03*
%TO.P,J3,28,ALE*%
%TO.N,/ALE*%
X72850000Y-112220000D03*
%TO.P,J3,29,VCC*%
%TO.N,+5V*%
X72850000Y-114760000D03*
%TO.P,J3,30,OSC*%
%TO.N,/OSC*%
X72850000Y-117300000D03*
%TO.P,J3,31,GND*%
%TO.N,GNDREF*%
X72850000Y-119840000D03*
%TO.P,J3,32,IO*%
%TO.N,/IO*%
X77930000Y-43640000D03*
%TO.P,J3,33,DB7*%
%TO.N,/DB7*%
X77930000Y-46180000D03*
%TO.P,J3,34,DB6*%
%TO.N,/DB6*%
X77930000Y-48720000D03*
%TO.P,J3,35,DB5*%
%TO.N,/DB5*%
X77930000Y-51260000D03*
%TO.P,J3,36,DB4*%
%TO.N,/DB4*%
X77930000Y-53800000D03*
%TO.P,J3,37,DB3*%
%TO.N,/DB3*%
X77930000Y-56340000D03*
%TO.P,J3,38,DB2*%
%TO.N,/DB2*%
X77930000Y-58880000D03*
%TO.P,J3,39,DB1*%
%TO.N,/DB1*%
X77930000Y-61420000D03*
%TO.P,J3,40,DB0*%
%TO.N,/DB0*%
X77930000Y-63960000D03*
%TO.P,J3,41,IO_READY*%
%TO.N,/IO_READY*%
X77930000Y-66500000D03*
%TO.P,J3,42,AEN*%
%TO.N,/AEN*%
X77930000Y-69040000D03*
%TO.P,J3,43,BA19*%
%TO.N,/BA19*%
X77930000Y-71580000D03*
%TO.P,J3,44,BA18*%
%TO.N,/BA18*%
X77930000Y-74120000D03*
%TO.P,J3,45,BA17*%
%TO.N,/BA17*%
X77930000Y-76660000D03*
%TO.P,J3,46,BA16*%
%TO.N,/BA16*%
X77930000Y-79200000D03*
%TO.P,J3,47,BA15*%
%TO.N,/BA15*%
X77930000Y-81740000D03*
%TO.P,J3,48,BA14*%
%TO.N,/BA14*%
X77930000Y-84280000D03*
%TO.P,J3,49,BA13*%
%TO.N,/BA13*%
X77930000Y-86820000D03*
%TO.P,J3,50,BA12*%
%TO.N,/BA12*%
X77930000Y-89360000D03*
%TO.P,J3,51,BA11*%
%TO.N,/BA11*%
X77930000Y-91900000D03*
%TO.P,J3,52,BA10*%
%TO.N,/BA10*%
X77930000Y-94440000D03*
%TO.P,J3,53,BA09*%
%TO.N,/BA09*%
X77930000Y-96980000D03*
%TO.P,J3,54,BA08*%
%TO.N,/BA08*%
X77930000Y-99520000D03*
%TO.P,J3,55,BA07*%
%TO.N,/BA07*%
X77930000Y-102060000D03*
%TO.P,J3,56,BA06*%
%TO.N,/BA06*%
X77930000Y-104600000D03*
%TO.P,J3,57,BA05*%
%TO.N,/BA05*%
X77930000Y-107140000D03*
%TO.P,J3,58,BA04*%
%TO.N,/BA04*%
X77930000Y-109680000D03*
%TO.P,J3,59,BA03*%
%TO.N,/BA03*%
X77930000Y-112220000D03*
%TO.P,J3,60,BA02*%
%TO.N,/BA02*%
X77930000Y-114760000D03*
%TO.P,J3,61,BA01*%
%TO.N,/BA01*%
X77930000Y-117300000D03*
%TO.P,J3,62,BA00*%
%TO.N,/BA00*%
X77930000Y-119840000D03*
%TD*%
D10*
%TO.P,S4,1,Pin_1*%
%TO.N,unconnected-(S4-Pin_1-Pad1)*%
X202390000Y-135080000D03*
%TO.P,S4,2,Pin_2*%
%TO.N,unconnected-(S4-Pin_2-Pad2)*%
X202390000Y-137620000D03*
%TO.P,S4,3,Pin_3*%
%TO.N,unconnected-(S4-Pin_3-Pad3)*%
X202390000Y-140160000D03*
%TO.P,S4,4,Pin_4*%
%TO.N,unconnected-(S4-Pin_4-Pad4)*%
X202390000Y-142700000D03*
%TO.P,S4,5,Pin_5*%
%TO.N,unconnected-(S4-Pin_5-Pad5)*%
X202390000Y-145240000D03*
%TO.P,S4,6,Pin_6*%
%TO.N,unconnected-(S4-Pin_6-Pad6)*%
X202390000Y-147780000D03*
%TO.P,S4,7,Pin_7*%
%TO.N,unconnected-(S4-Pin_7-Pad7)*%
X202390000Y-150320000D03*
%TO.P,S4,8,Pin_8*%
%TO.N,unconnected-(S4-Pin_8-Pad8)*%
X202390000Y-152860000D03*
%TO.P,S4,9,Pin_9*%
%TO.N,unconnected-(S4-Pin_9-Pad9)*%
X202390000Y-155400000D03*
%TO.P,S4,10,Pin_10*%
%TO.N,GNDREF*%
X202390000Y-157940000D03*
%TO.P,S4,11,Pin_11*%
%TO.N,unconnected-(S4-Pin_11-Pad11)*%
X210010000Y-157940000D03*
%TO.P,S4,12,Pin_12*%
%TO.N,unconnected-(S4-Pin_12-Pad12)*%
X210010000Y-155400000D03*
%TO.P,S4,13,Pin_13*%
%TO.N,unconnected-(S4-Pin_13-Pad13)*%
X210010000Y-152860000D03*
%TO.P,S4,14,Pin_14*%
%TO.N,unconnected-(S4-Pin_14-Pad14)*%
X210010000Y-150320000D03*
%TO.P,S4,15,Pin_15*%
%TO.N,unconnected-(S4-Pin_15-Pad15)*%
X210010000Y-147780000D03*
%TO.P,S4,16,Pin_16*%
%TO.N,unconnected-(S4-Pin_16-Pad16)*%
X210010000Y-145240000D03*
%TO.P,S4,17,Pin_17*%
%TO.N,unconnected-(S4-Pin_17-Pad17)*%
X210010000Y-142700000D03*
%TO.P,S4,18,Pin_18*%
%TO.N,unconnected-(S4-Pin_18-Pad18)*%
X210010000Y-140160000D03*
%TO.P,S4,19,Pin_19*%
%TO.N,unconnected-(S4-Pin_19-Pad19)*%
X210010000Y-137620000D03*
%TO.P,S4,20,Pin_20*%
%TO.N,+5V*%
X210010000Y-135080000D03*
%TD*%
D11*
%TO.P,J8,1,GND*%
%TO.N,GNDREF*%
X174450000Y-43640000D03*
%TO.P,J8,2,RESET*%
%TO.N,/RESET*%
X174450000Y-46180000D03*
%TO.P,J8,3,VCC*%
%TO.N,+5V*%
X174450000Y-48720000D03*
%TO.P,J8,4,IRQ2*%
%TO.N,/IRQ2*%
X174450000Y-51260000D03*
%TO.P,J8,5,-5V*%
%TO.N,-5V*%
X174450000Y-53800000D03*
%TO.P,J8,6,DRQ2*%
%TO.N,/DRQ2*%
X174450000Y-56340000D03*
%TO.P,J8,7,-12V*%
%TO.N,-12V*%
X174450000Y-58880000D03*
%TO.P,J8,8,UNUSED*%
%TO.N,/~{CSEL}*%
X174450000Y-61420000D03*
%TO.P,J8,9,+12V*%
%TO.N,+12V*%
X174450000Y-63960000D03*
%TO.P,J8,10,GND*%
%TO.N,GNDREF*%
X174450000Y-66500000D03*
%TO.P,J8,11,~{SMEMW}*%
%TO.N,/~{SMEMW}*%
X174450000Y-69040000D03*
%TO.P,J8,12,~{SMEMR}*%
%TO.N,/~{SMEMR}*%
X174450000Y-71580000D03*
%TO.P,J8,13,~{IOW}*%
%TO.N,/~{IOW}*%
X174450000Y-74120000D03*
%TO.P,J8,14,~{IOR}*%
%TO.N,/~{IOR}*%
X174450000Y-76660000D03*
%TO.P,J8,15,~{DACK3}*%
%TO.N,/~{DACK3}*%
X174450000Y-79200000D03*
%TO.P,J8,16,DRQ3*%
%TO.N,/DRQ3*%
X174450000Y-81740000D03*
%TO.P,J8,17,~{DACK1}*%
%TO.N,/~{DACK1}*%
X174450000Y-84280000D03*
%TO.P,J8,18,DRQ1*%
%TO.N,/DRQ1*%
X174450000Y-86820000D03*
%TO.P,J8,19,~{DACK0}*%
%TO.N,/~{DACK0}*%
X174450000Y-89360000D03*
%TO.P,J8,20,CLK*%
%TO.N,/CLK*%
X174450000Y-91900000D03*
%TO.P,J8,21,IRQ7*%
%TO.N,/IRQ7*%
X174450000Y-94440000D03*
%TO.P,J8,22,IRQ6*%
%TO.N,/IRQ6*%
X174450000Y-96980000D03*
%TO.P,J8,23,IRQ5*%
%TO.N,/IRQ5*%
X174450000Y-99520000D03*
%TO.P,J8,24,IRQ4*%
%TO.N,/IRQ4*%
X174450000Y-102060000D03*
%TO.P,J8,25,IRQ3*%
%TO.N,/IRQ3*%
X174450000Y-104600000D03*
%TO.P,J8,26,~{DACK2}*%
%TO.N,/~{DACK2}*%
X174450000Y-107140000D03*
%TO.P,J8,27,TC*%
%TO.N,/TC*%
X174450000Y-109680000D03*
%TO.P,J8,28,ALE*%
%TO.N,/ALE*%
X174450000Y-112220000D03*
%TO.P,J8,29,VCC*%
%TO.N,+5V*%
X174450000Y-114760000D03*
%TO.P,J8,30,OSC*%
%TO.N,/OSC*%
X174450000Y-117300000D03*
%TO.P,J8,31,GND*%
%TO.N,GNDREF*%
X174450000Y-119840000D03*
%TO.P,J8,32,IO*%
%TO.N,/IO*%
X179530000Y-43640000D03*
%TO.P,J8,33,DB7*%
%TO.N,/DB7*%
X179530000Y-46180000D03*
%TO.P,J8,34,DB6*%
%TO.N,/DB6*%
X179530000Y-48720000D03*
%TO.P,J8,35,DB5*%
%TO.N,/DB5*%
X179530000Y-51260000D03*
%TO.P,J8,36,DB4*%
%TO.N,/DB4*%
X179530000Y-53800000D03*
%TO.P,J8,37,DB3*%
%TO.N,/DB3*%
X179530000Y-56340000D03*
%TO.P,J8,38,DB2*%
%TO.N,/DB2*%
X179530000Y-58880000D03*
%TO.P,J8,39,DB1*%
%TO.N,/DB1*%
X179530000Y-61420000D03*
%TO.P,J8,40,DB0*%
%TO.N,/DB0*%
X179530000Y-63960000D03*
%TO.P,J8,41,IO_READY*%
%TO.N,/IO_READY*%
X179530000Y-66500000D03*
%TO.P,J8,42,AEN*%
%TO.N,/AEN*%
X179530000Y-69040000D03*
%TO.P,J8,43,BA19*%
%TO.N,/BA19*%
X179530000Y-71580000D03*
%TO.P,J8,44,BA18*%
%TO.N,/BA18*%
X179530000Y-74120000D03*
%TO.P,J8,45,BA17*%
%TO.N,/BA17*%
X179530000Y-76660000D03*
%TO.P,J8,46,BA16*%
%TO.N,/BA16*%
X179530000Y-79200000D03*
%TO.P,J8,47,BA15*%
%TO.N,/BA15*%
X179530000Y-81740000D03*
%TO.P,J8,48,BA14*%
%TO.N,/BA14*%
X179530000Y-84280000D03*
%TO.P,J8,49,BA13*%
%TO.N,/BA13*%
X179530000Y-86820000D03*
%TO.P,J8,50,BA12*%
%TO.N,/BA12*%
X179530000Y-89360000D03*
%TO.P,J8,51,BA11*%
%TO.N,/BA11*%
X179530000Y-91900000D03*
%TO.P,J8,52,BA10*%
%TO.N,/BA10*%
X179530000Y-94440000D03*
%TO.P,J8,53,BA09*%
%TO.N,/BA09*%
X179530000Y-96980000D03*
%TO.P,J8,54,BA08*%
%TO.N,/BA08*%
X179530000Y-99520000D03*
%TO.P,J8,55,BA07*%
%TO.N,/BA07*%
X179530000Y-102060000D03*
%TO.P,J8,56,BA06*%
%TO.N,/BA06*%
X179530000Y-104600000D03*
%TO.P,J8,57,BA05*%
%TO.N,/BA05*%
X179530000Y-107140000D03*
%TO.P,J8,58,BA04*%
%TO.N,/BA04*%
X179530000Y-109680000D03*
%TO.P,J8,59,BA03*%
%TO.N,/BA03*%
X179530000Y-112220000D03*
%TO.P,J8,60,BA02*%
%TO.N,/BA02*%
X179530000Y-114760000D03*
%TO.P,J8,61,BA01*%
%TO.N,/BA01*%
X179530000Y-117300000D03*
%TO.P,J8,62,BA00*%
%TO.N,/BA00*%
X179530000Y-119840000D03*
%TD*%
D10*
%TO.P,S3,1,Pin_1*%
%TO.N,unconnected-(S3-Pin_1-Pad1)*%
X217630000Y-135080000D03*
%TO.P,S3,2,Pin_2*%
%TO.N,unconnected-(S3-Pin_2-Pad2)*%
X217630000Y-137620000D03*
%TO.P,S3,3,Pin_3*%
%TO.N,unconnected-(S3-Pin_3-Pad3)*%
X217630000Y-140160000D03*
%TO.P,S3,4,Pin_4*%
%TO.N,unconnected-(S3-Pin_4-Pad4)*%
X217630000Y-142700000D03*
%TO.P,S3,5,Pin_5*%
%TO.N,unconnected-(S3-Pin_5-Pad5)*%
X217630000Y-145240000D03*
%TO.P,S3,6,Pin_6*%
%TO.N,unconnected-(S3-Pin_6-Pad6)*%
X217630000Y-147780000D03*
%TO.P,S3,7,Pin_7*%
%TO.N,unconnected-(S3-Pin_7-Pad7)*%
X217630000Y-150320000D03*
%TO.P,S3,8,Pin_8*%
%TO.N,unconnected-(S3-Pin_8-Pad8)*%
X217630000Y-152860000D03*
%TO.P,S3,9,Pin_9*%
%TO.N,unconnected-(S3-Pin_9-Pad9)*%
X217630000Y-155400000D03*
%TO.P,S3,10,Pin_10*%
%TO.N,GNDREF*%
X217630000Y-157940000D03*
%TO.P,S3,11,Pin_11*%
%TO.N,unconnected-(S3-Pin_11-Pad11)*%
X225250000Y-157940000D03*
%TO.P,S3,12,Pin_12*%
%TO.N,unconnected-(S3-Pin_12-Pad12)*%
X225250000Y-155400000D03*
%TO.P,S3,13,Pin_13*%
%TO.N,unconnected-(S3-Pin_13-Pad13)*%
X225250000Y-152860000D03*
%TO.P,S3,14,Pin_14*%
%TO.N,unconnected-(S3-Pin_14-Pad14)*%
X225250000Y-150320000D03*
%TO.P,S3,15,Pin_15*%
%TO.N,unconnected-(S3-Pin_15-Pad15)*%
X225250000Y-147780000D03*
%TO.P,S3,16,Pin_16*%
%TO.N,unconnected-(S3-Pin_16-Pad16)*%
X225250000Y-145240000D03*
%TO.P,S3,17,Pin_17*%
%TO.N,unconnected-(S3-Pin_17-Pad17)*%
X225250000Y-142700000D03*
%TO.P,S3,18,Pin_18*%
%TO.N,unconnected-(S3-Pin_18-Pad18)*%
X225250000Y-140160000D03*
%TO.P,S3,19,Pin_19*%
%TO.N,unconnected-(S3-Pin_19-Pad19)*%
X225250000Y-137620000D03*
%TO.P,S3,20,Pin_20*%
%TO.N,+5V*%
X225250000Y-135080000D03*
%TD*%
%TO.P,C15,1*%
%TO.N,GNDREF*%
X146608000Y-129398000D03*
%TO.P,C15,2*%
%TO.N,+5V*%
X146608000Y-124398000D03*
%TO.P,C15,3*%
%TO.N,GNDREF*%
X146608000Y-126858000D03*
%TD*%
D11*
%TO.P,J6,1,GND*%
%TO.N,GNDREF*%
X133810000Y-43640000D03*
%TO.P,J6,2,RESET*%
%TO.N,/RESET*%
X133810000Y-46180000D03*
%TO.P,J6,3,VCC*%
%TO.N,+5V*%
X133810000Y-48720000D03*
%TO.P,J6,4,IRQ2*%
%TO.N,/IRQ2*%
X133810000Y-51260000D03*
%TO.P,J6,5,-5V*%
%TO.N,-5V*%
X133810000Y-53800000D03*
%TO.P,J6,6,DRQ2*%
%TO.N,/DRQ2*%
X133810000Y-56340000D03*
%TO.P,J6,7,-12V*%
%TO.N,-12V*%
X133810000Y-58880000D03*
%TO.P,J6,8,UNUSED*%
%TO.N,/~{CSEL}*%
X133810000Y-61420000D03*
%TO.P,J6,9,+12V*%
%TO.N,+12V*%
X133810000Y-63960000D03*
%TO.P,J6,10,GND*%
%TO.N,GNDREF*%
X133810000Y-66500000D03*
%TO.P,J6,11,~{SMEMW}*%
%TO.N,/~{SMEMW}*%
X133810000Y-69040000D03*
%TO.P,J6,12,~{SMEMR}*%
%TO.N,/~{SMEMR}*%
X133810000Y-71580000D03*
%TO.P,J6,13,~{IOW}*%
%TO.N,/~{IOW}*%
X133810000Y-74120000D03*
%TO.P,J6,14,~{IOR}*%
%TO.N,/~{IOR}*%
X133810000Y-76660000D03*
%TO.P,J6,15,~{DACK3}*%
%TO.N,/~{DACK3}*%
X133810000Y-79200000D03*
%TO.P,J6,16,DRQ3*%
%TO.N,/DRQ3*%
X133810000Y-81740000D03*
%TO.P,J6,17,~{DACK1}*%
%TO.N,/~{DACK1}*%
X133810000Y-84280000D03*
%TO.P,J6,18,DRQ1*%
%TO.N,/DRQ1*%
X133810000Y-86820000D03*
%TO.P,J6,19,~{DACK0}*%
%TO.N,/~{DACK0}*%
X133810000Y-89360000D03*
%TO.P,J6,20,CLK*%
%TO.N,/CLK*%
X133810000Y-91900000D03*
%TO.P,J6,21,IRQ7*%
%TO.N,/IRQ7*%
X133810000Y-94440000D03*
%TO.P,J6,22,IRQ6*%
%TO.N,/IRQ6*%
X133810000Y-96980000D03*
%TO.P,J6,23,IRQ5*%
%TO.N,/IRQ5*%
X133810000Y-99520000D03*
%TO.P,J6,24,IRQ4*%
%TO.N,/IRQ4*%
X133810000Y-102060000D03*
%TO.P,J6,25,IRQ3*%
%TO.N,/IRQ3*%
X133810000Y-104600000D03*
%TO.P,J6,26,~{DACK2}*%
%TO.N,/~{DACK2}*%
X133810000Y-107140000D03*
%TO.P,J6,27,TC*%
%TO.N,/TC*%
X133810000Y-109680000D03*
%TO.P,J6,28,ALE*%
%TO.N,/ALE*%
X133810000Y-112220000D03*
%TO.P,J6,29,VCC*%
%TO.N,+5V*%
X133810000Y-114760000D03*
%TO.P,J6,30,OSC*%
%TO.N,/OSC*%
X133810000Y-117300000D03*
%TO.P,J6,31,GND*%
%TO.N,GNDREF*%
X133810000Y-119840000D03*
%TO.P,J6,32,IO*%
%TO.N,/IO*%
X138890000Y-43640000D03*
%TO.P,J6,33,DB7*%
%TO.N,/DB7*%
X138890000Y-46180000D03*
%TO.P,J6,34,DB6*%
%TO.N,/DB6*%
X138890000Y-48720000D03*
%TO.P,J6,35,DB5*%
%TO.N,/DB5*%
X138890000Y-51260000D03*
%TO.P,J6,36,DB4*%
%TO.N,/DB4*%
X138890000Y-53800000D03*
%TO.P,J6,37,DB3*%
%TO.N,/DB3*%
X138890000Y-56340000D03*
%TO.P,J6,38,DB2*%
%TO.N,/DB2*%
X138890000Y-58880000D03*
%TO.P,J6,39,DB1*%
%TO.N,/DB1*%
X138890000Y-61420000D03*
%TO.P,J6,40,DB0*%
%TO.N,/DB0*%
X138890000Y-63960000D03*
%TO.P,J6,41,IO_READY*%
%TO.N,/IO_READY*%
X138890000Y-66500000D03*
%TO.P,J6,42,AEN*%
%TO.N,/AEN*%
X138890000Y-69040000D03*
%TO.P,J6,43,BA19*%
%TO.N,/BA19*%
X138890000Y-71580000D03*
%TO.P,J6,44,BA18*%
%TO.N,/BA18*%
X138890000Y-74120000D03*
%TO.P,J6,45,BA17*%
%TO.N,/BA17*%
X138890000Y-76660000D03*
%TO.P,J6,46,BA16*%
%TO.N,/BA16*%
X138890000Y-79200000D03*
%TO.P,J6,47,BA15*%
%TO.N,/BA15*%
X138890000Y-81740000D03*
%TO.P,J6,48,BA14*%
%TO.N,/BA14*%
X138890000Y-84280000D03*
%TO.P,J6,49,BA13*%
%TO.N,/BA13*%
X138890000Y-86820000D03*
%TO.P,J6,50,BA12*%
%TO.N,/BA12*%
X138890000Y-89360000D03*
%TO.P,J6,51,BA11*%
%TO.N,/BA11*%
X138890000Y-91900000D03*
%TO.P,J6,52,BA10*%
%TO.N,/BA10*%
X138890000Y-94440000D03*
%TO.P,J6,53,BA09*%
%TO.N,/BA09*%
X138890000Y-96980000D03*
%TO.P,J6,54,BA08*%
%TO.N,/BA08*%
X138890000Y-99520000D03*
%TO.P,J6,55,BA07*%
%TO.N,/BA07*%
X138890000Y-102060000D03*
%TO.P,J6,56,BA06*%
%TO.N,/BA06*%
X138890000Y-104600000D03*
%TO.P,J6,57,BA05*%
%TO.N,/BA05*%
X138890000Y-107140000D03*
%TO.P,J6,58,BA04*%
%TO.N,/BA04*%
X138890000Y-109680000D03*
%TO.P,J6,59,BA03*%
%TO.N,/BA03*%
X138890000Y-112220000D03*
%TO.P,J6,60,BA02*%
%TO.N,/BA02*%
X138890000Y-114760000D03*
%TO.P,J6,61,BA01*%
%TO.N,/BA01*%
X138890000Y-117300000D03*
%TO.P,J6,62,BA00*%
%TO.N,/BA00*%
X138890000Y-119840000D03*
%TD*%
D13*
%TO.P,C1,1*%
%TO.N,Net-(C1-Pad1)*%
X208740000Y-116030000D03*
%TO.P,C1,2*%
%TO.N,Net-(U1-X1)*%
X202390000Y-119840000D03*
X202390000Y-112220000D03*
%TD*%
D10*
%TO.P,C11,1*%
%TO.N,+12V*%
X65230000Y-41100000D03*
%TO.P,C11,2*%
%TO.N,GNDREF*%
X65230000Y-46100000D03*
%TO.P,C11,3*%
X65230000Y-43640000D03*
%TD*%
%TO.P,C6,1*%
%TO.N,GNDREF*%
X230431600Y-69090800D03*
%TO.P,C6,2*%
%TO.N,-5V*%
X230431600Y-74090800D03*
%TO.P,C6,3*%
X230431600Y-71630800D03*
%TD*%
%TO.P,C3,1*%
%TO.N,+12V*%
X230330000Y-33400000D03*
%TO.P,C3,2*%
%TO.N,GNDREF*%
X230330000Y-28400000D03*
%TO.P,C3,3*%
X230330000Y-30860000D03*
%TD*%
D11*
%TO.P,J2,1,GND*%
%TO.N,GNDREF*%
X52530000Y-43640000D03*
%TO.P,J2,2,RESET*%
%TO.N,/RESET*%
X52530000Y-46180000D03*
%TO.P,J2,3,VCC*%
%TO.N,+5V*%
X52530000Y-48720000D03*
%TO.P,J2,4,IRQ2*%
%TO.N,/IRQ2*%
X52530000Y-51260000D03*
%TO.P,J2,5,-5V*%
%TO.N,-5V*%
X52530000Y-53800000D03*
%TO.P,J2,6,DRQ2*%
%TO.N,/DRQ2*%
X52530000Y-56340000D03*
%TO.P,J2,7,-12V*%
%TO.N,-12V*%
X52530000Y-58880000D03*
%TO.P,J2,8,UNUSED*%
%TO.N,/~{CSEL}*%
X52530000Y-61420000D03*
%TO.P,J2,9,+12V*%
%TO.N,+12V*%
X52530000Y-63960000D03*
%TO.P,J2,10,GND*%
%TO.N,GNDREF*%
X52530000Y-66500000D03*
%TO.P,J2,11,~{SMEMW}*%
%TO.N,/~{SMEMW}*%
X52530000Y-69040000D03*
%TO.P,J2,12,~{SMEMR}*%
%TO.N,/~{SMEMR}*%
X52530000Y-71580000D03*
%TO.P,J2,13,~{IOW}*%
%TO.N,/~{IOW}*%
X52530000Y-74120000D03*
%TO.P,J2,14,~{IOR}*%
%TO.N,/~{IOR}*%
X52530000Y-76660000D03*
%TO.P,J2,15,~{DACK3}*%
%TO.N,/~{DACK3}*%
X52530000Y-79200000D03*
%TO.P,J2,16,DRQ3*%
%TO.N,/DRQ3*%
X52530000Y-81740000D03*
%TO.P,J2,17,~{DACK1}*%
%TO.N,/~{DACK1}*%
X52530000Y-84280000D03*
%TO.P,J2,18,DRQ1*%
%TO.N,/DRQ1*%
X52530000Y-86820000D03*
%TO.P,J2,19,~{DACK0}*%
%TO.N,/~{DACK0}*%
X52530000Y-89360000D03*
%TO.P,J2,20,CLK*%
%TO.N,/CLK*%
X52530000Y-91900000D03*
%TO.P,J2,21,IRQ7*%
%TO.N,/IRQ7*%
X52530000Y-94440000D03*
%TO.P,J2,22,IRQ6*%
%TO.N,/IRQ6*%
X52530000Y-96980000D03*
%TO.P,J2,23,IRQ5*%
%TO.N,/IRQ5*%
X52530000Y-99520000D03*
%TO.P,J2,24,IRQ4*%
%TO.N,/IRQ4*%
X52530000Y-102060000D03*
%TO.P,J2,25,IRQ3*%
%TO.N,/IRQ3*%
X52530000Y-104600000D03*
%TO.P,J2,26,~{DACK2}*%
%TO.N,/~{DACK2}*%
X52530000Y-107140000D03*
%TO.P,J2,27,TC*%
%TO.N,/TC*%
X52530000Y-109680000D03*
%TO.P,J2,28,ALE*%
%TO.N,/ALE*%
X52530000Y-112220000D03*
%TO.P,J2,29,VCC*%
%TO.N,+5V*%
X52530000Y-114760000D03*
%TO.P,J2,30,OSC*%
%TO.N,/OSC*%
X52530000Y-117300000D03*
%TO.P,J2,31,GND*%
%TO.N,GNDREF*%
X52530000Y-119840000D03*
%TO.P,J2,32,IO*%
%TO.N,/IO*%
X57610000Y-43640000D03*
%TO.P,J2,33,DB7*%
%TO.N,/DB7*%
X57610000Y-46180000D03*
%TO.P,J2,34,DB6*%
%TO.N,/DB6*%
X57610000Y-48720000D03*
%TO.P,J2,35,DB5*%
%TO.N,/DB5*%
X57610000Y-51260000D03*
%TO.P,J2,36,DB4*%
%TO.N,/DB4*%
X57610000Y-53800000D03*
%TO.P,J2,37,DB3*%
%TO.N,/DB3*%
X57610000Y-56340000D03*
%TO.P,J2,38,DB2*%
%TO.N,/DB2*%
X57610000Y-58880000D03*
%TO.P,J2,39,DB1*%
%TO.N,/DB1*%
X57610000Y-61420000D03*
%TO.P,J2,40,DB0*%
%TO.N,/DB0*%
X57610000Y-63960000D03*
%TO.P,J2,41,IO_READY*%
%TO.N,/IO_READY*%
X57610000Y-66500000D03*
%TO.P,J2,42,AEN*%
%TO.N,/AEN*%
X57610000Y-69040000D03*
%TO.P,J2,43,BA19*%
%TO.N,/BA19*%
X57610000Y-71580000D03*
%TO.P,J2,44,BA18*%
%TO.N,/BA18*%
X57610000Y-74120000D03*
%TO.P,J2,45,BA17*%
%TO.N,/BA17*%
X57610000Y-76660000D03*
%TO.P,J2,46,BA16*%
%TO.N,/BA16*%
X57610000Y-79200000D03*
%TO.P,J2,47,BA15*%
%TO.N,/BA15*%
X57610000Y-81740000D03*
%TO.P,J2,48,BA14*%
%TO.N,/BA14*%
X57610000Y-84280000D03*
%TO.P,J2,49,BA13*%
%TO.N,/BA13*%
X57610000Y-86820000D03*
%TO.P,J2,50,BA12*%
%TO.N,/BA12*%
X57610000Y-89360000D03*
%TO.P,J2,51,BA11*%
%TO.N,/BA11*%
X57610000Y-91900000D03*
%TO.P,J2,52,BA10*%
%TO.N,/BA10*%
X57610000Y-94440000D03*
%TO.P,J2,53,BA09*%
%TO.N,/BA09*%
X57610000Y-96980000D03*
%TO.P,J2,54,BA08*%
%TO.N,/BA08*%
X57610000Y-99520000D03*
%TO.P,J2,55,BA07*%
%TO.N,/BA07*%
X57610000Y-102060000D03*
%TO.P,J2,56,BA06*%
%TO.N,/BA06*%
X57610000Y-104600000D03*
%TO.P,J2,57,BA05*%
%TO.N,/BA05*%
X57610000Y-107140000D03*
%TO.P,J2,58,BA04*%
%TO.N,/BA04*%
X57610000Y-109680000D03*
%TO.P,J2,59,BA03*%
%TO.N,/BA03*%
X57610000Y-112220000D03*
%TO.P,J2,60,BA02*%
%TO.N,/BA02*%
X57610000Y-114760000D03*
%TO.P,J2,61,BA01*%
%TO.N,/BA01*%
X57610000Y-117300000D03*
%TO.P,J2,62,BA00*%
%TO.N,/BA00*%
X57610000Y-119840000D03*
%TD*%
D14*
%TO.P,P1,1,Pin_1*%
%TO.N,/PWRGOOD*%
X240744000Y-44206000D03*
%TO.P,P1,2,Pin_2*%
%TO.N,/NC*%
X240744000Y-48166000D03*
%TO.P,P1,3,Pin_3*%
%TO.N,+12V*%
X240744000Y-52126000D03*
%TO.P,P1,4,Pin_4*%
%TO.N,-12V*%
X240744000Y-56086000D03*
%TO.P,P1,5,Pin_5*%
%TO.N,GNDREF*%
X240744000Y-60046000D03*
D15*
%TO.P,P1,6,Pin_6*%
X240744000Y-64006000D03*
%TD*%
D10*
%TO.P,C14,1*%
%TO.N,GNDREF*%
X47450000Y-129920000D03*
%TO.P,C14,2*%
%TO.N,+5V*%
X47450000Y-124920000D03*
%TO.P,C14,3*%
%TO.N,GNDREF*%
X47450000Y-127380000D03*
%TD*%
D14*
%TO.P,P2,1,Pin_1*%
%TO.N,GNDREF*%
X240744000Y-68128000D03*
%TO.P,P2,2,Pin_2*%
X240744000Y-72088000D03*
%TO.P,P2,3,Pin_3*%
%TO.N,-5V*%
X240744000Y-76048000D03*
%TO.P,P2,4,Pin_4*%
%TO.N,+5V*%
X240744000Y-80008000D03*
%TO.P,P2,5,Pin_5*%
X240744000Y-83968000D03*
D15*
%TO.P,P2,6,Pin_6*%
X240744000Y-87928000D03*
%TD*%
D10*
%TO.P,U1,1,CSYNC*%
%TO.N,GNDREF*%
X187150000Y-99520000D03*
%TO.P,U1,2,PCLK*%
%TO.N,unconnected-(U1-PCLK-Pad2)*%
X187150000Y-102060000D03*
%TO.P,U1,3,~{AEN1}*%
%TO.N,+5V*%
X187150000Y-104600000D03*
%TO.P,U1,4,RDY1*%
%TO.N,GNDREF*%
X187150000Y-107140000D03*
%TO.P,U1,5,READY*%
%TO.N,unconnected-(U1-READY-Pad5)*%
X187150000Y-109680000D03*
%TO.P,U1,6,RDY2*%
%TO.N,GNDREF*%
X187150000Y-112220000D03*
%TO.P,U1,7,~{AEN2}*%
%TO.N,+5V*%
X187150000Y-114760000D03*
%TO.P,U1,8,CLK*%
%TO.N,unconnected-(U1-CLK-Pad8)*%
X187150000Y-117300000D03*
%TO.P,U1,9,GND*%
%TO.N,GNDREF*%
X187150000Y-119840000D03*
%TO.P,U1,10,RESET*%
%TO.N,unconnected-(U1-RESET-Pad10)*%
X194770000Y-119840000D03*
%TO.P,U1,11,~{RES}*%
%TO.N,unconnected-(U1-~{RES}-Pad11)*%
X194770000Y-117300000D03*
%TO.P,U1,12,OSC*%
%TO.N,/OSC*%
X194770000Y-114760000D03*
%TO.P,U1,13,F/~{C}*%
%TO.N,GNDREF*%
X194770000Y-112220000D03*
%TO.P,U1,14,EFI*%
%TO.N,unconnected-(U1-EFI-Pad14)*%
X194770000Y-109680000D03*
%TO.P,U1,15,~{ASYNC}*%
%TO.N,GNDREF*%
X194770000Y-107140000D03*
%TO.P,U1,16,X2*%
%TO.N,Net-(U1-X2)*%
X194770000Y-104600000D03*
%TO.P,U1,17,X1*%
%TO.N,Net-(U1-X1)*%
X194770000Y-102060000D03*
%TO.P,U1,18,VCC*%
%TO.N,+5V*%
X194770000Y-99520000D03*
%TD*%
%TO.P,C10,1*%
%TO.N,GNDREF*%
X65230000Y-28400000D03*
%TO.P,C10,2*%
%TO.N,-5V*%
X65230000Y-33400000D03*
%TO.P,C10,3*%
%TO.N,GNDREF*%
X65230000Y-30940000D03*
%TD*%
%TO.P,R1,1*%
%TO.N,Net-(U1-X1)*%
X197945000Y-102060000D03*
%TO.P,R1,2*%
%TO.N,GNDREF*%
X197945000Y-89360000D03*
%TD*%
%TO.P,C2,1*%
%TO.N,+12V*%
X222710000Y-33400000D03*
%TO.P,C2,2*%
%TO.N,GNDREF*%
X222710000Y-28400000D03*
%TO.P,C2,3*%
X222710000Y-30860000D03*
%TD*%
%TO.P,C4,1*%
%TO.N,-12V*%
X222710000Y-38560000D03*
%TO.P,C4,2*%
%TO.N,GNDREF*%
X222710000Y-43560000D03*
%TO.P,C4,3*%
%TO.N,-12V*%
X222710000Y-41100000D03*
%TD*%
%TO.P,S2,1,Pin_1*%
%TO.N,unconnected-(S2-Pin_1-Pad1)*%
X232870000Y-135080000D03*
%TO.P,S2,2,Pin_2*%
%TO.N,unconnected-(S2-Pin_2-Pad2)*%
X232870000Y-137620000D03*
%TO.P,S2,3,Pin_3*%
%TO.N,unconnected-(S2-Pin_3-Pad3)*%
X232870000Y-140160000D03*
%TO.P,S2,4,Pin_4*%
%TO.N,unconnected-(S2-Pin_4-Pad4)*%
X232870000Y-142700000D03*
%TO.P,S2,5,Pin_5*%
%TO.N,unconnected-(S2-Pin_5-Pad5)*%
X232870000Y-145240000D03*
%TO.P,S2,6,Pin_6*%
%TO.N,unconnected-(S2-Pin_6-Pad6)*%
X232870000Y-147780000D03*
%TO.P,S2,7,Pin_7*%
%TO.N,unconnected-(S2-Pin_7-Pad7)*%
X232870000Y-150320000D03*
%TO.P,S2,8,Pin_8*%
%TO.N,unconnected-(S2-Pin_8-Pad8)*%
X232870000Y-152860000D03*
%TO.P,S2,9,Pin_9*%
%TO.N,unconnected-(S2-Pin_9-Pad9)*%
X232870000Y-155400000D03*
%TO.P,S2,10,Pin_10*%
%TO.N,GNDREF*%
X232870000Y-157940000D03*
%TO.P,S2,11,Pin_11*%
%TO.N,unconnected-(S2-Pin_11-Pad11)*%
X240490000Y-157940000D03*
%TO.P,S2,12,Pin_12*%
%TO.N,unconnected-(S2-Pin_12-Pad12)*%
X240490000Y-155400000D03*
%TO.P,S2,13,Pin_13*%
%TO.N,unconnected-(S2-Pin_13-Pad13)*%
X240490000Y-152860000D03*
%TO.P,S2,14,Pin_14*%
%TO.N,unconnected-(S2-Pin_14-Pad14)*%
X240490000Y-150320000D03*
%TO.P,S2,15,Pin_15*%
%TO.N,unconnected-(S2-Pin_15-Pad15)*%
X240490000Y-147780000D03*
%TO.P,S2,16,Pin_16*%
%TO.N,unconnected-(S2-Pin_16-Pad16)*%
X240490000Y-145240000D03*
%TO.P,S2,17,Pin_17*%
%TO.N,unconnected-(S2-Pin_17-Pad17)*%
X240490000Y-142700000D03*
%TO.P,S2,18,Pin_18*%
%TO.N,unconnected-(S2-Pin_18-Pad18)*%
X240490000Y-140160000D03*
%TO.P,S2,19,Pin_19*%
%TO.N,unconnected-(S2-Pin_19-Pad19)*%
X240490000Y-137620000D03*
%TO.P,S2,20,Pin_20*%
%TO.N,+5V*%
X240490000Y-135080000D03*
%TD*%
D16*
%TO.P,X1,1,1*%
%TO.N,Net-(C1-Pad1)*%
X211280000Y-104600000D03*
%TO.P,X1,2,2*%
%TO.N,Net-(U1-X2)*%
X211280000Y-99700000D03*
%TD*%
D10*
%TO.P,R2,1*%
%TO.N,Net-(U1-X2)*%
X202390000Y-102060000D03*
%TO.P,R2,2*%
%TO.N,GNDREF*%
X202390000Y-89360000D03*
%TD*%
D17*
%TO.N,GNDREF*%
X217731600Y-102110800D03*
D18*
X217610000Y-60290000D03*
D17*
X34800795Y-114659102D03*
D19*
%TO.N,+5V*%
X111077000Y-24421200D03*
D18*
X34750000Y-124158000D03*
D19*
X131397000Y-24421200D03*
D18*
X213790000Y-79830000D03*
D20*
X156670000Y-124158000D03*
D18*
X213870000Y-24610000D03*
D20*
X55070000Y-124158000D03*
X95710000Y-124158000D03*
D19*
X90503000Y-24421200D03*
X172037000Y-24421200D03*
D20*
X136096000Y-124158000D03*
X176990000Y-124412000D03*
X116284000Y-124158000D03*
D19*
X192230000Y-24610000D03*
X152352000Y-24421200D03*
D20*
X75136000Y-124158000D03*
D19*
X70691000Y-24421200D03*
D18*
X34369000Y-24463000D03*
D20*
%TO.N,-5V*%
X48085000Y-34115000D03*
X68856500Y-34115000D03*
X150320000Y-34115000D03*
D18*
X207470000Y-34115000D03*
D20*
X36020000Y-34115000D03*
X128700000Y-34115000D03*
D18*
X207450000Y-76180000D03*
D20*
X109045000Y-34115000D03*
X169370000Y-34115000D03*
X88090000Y-34115000D03*
%TO.N,-12V*%
X85550000Y-37290000D03*
X106505000Y-37290000D03*
X67135000Y-37290000D03*
X39195000Y-37290000D03*
X166830000Y-37290000D03*
D18*
X204260000Y-53960000D03*
D20*
X46180000Y-37290000D03*
D18*
X204295000Y-37290000D03*
D20*
X126190000Y-37290000D03*
X148415000Y-37290000D03*
%TO.N,+12V*%
X123650000Y-40465000D03*
X142065000Y-40465000D03*
X41100000Y-40465000D03*
X164925000Y-40465000D03*
X103965000Y-40465000D03*
X83010000Y-40465000D03*
D17*
%TO.N,/DB6*%
X131270000Y-49482000D03*
X110950000Y-49228000D03*
X172164000Y-49228000D03*
X90630000Y-48974000D03*
X151590000Y-49482000D03*
X49736000Y-48974000D03*
X70226297Y-49143590D03*
%TD*%
D21*
%TO.N,GNDREF*%
X47450000Y-129920000D02*
X47450000Y-130127000D01*
D22*
X174450000Y-43640000D02*
X174450000Y-21530000D01*
D23*
X34800795Y-114751795D02*
X36049500Y-116000500D01*
D22*
X32210000Y-129873000D02*
X32464000Y-130127000D01*
D23*
X182490500Y-65200500D02*
X182578000Y-65288000D01*
D22*
X230330000Y-28400000D02*
X222710000Y-28400000D01*
X236172000Y-157940000D02*
X236172000Y-130254000D01*
X146510000Y-28400000D02*
X146510000Y-21530000D01*
D23*
X114748500Y-67758000D02*
X132550500Y-67758000D01*
D21*
X236680000Y-72342000D02*
X237084000Y-71938000D01*
X236299000Y-130127000D02*
X236680000Y-129746000D01*
D22*
X187150000Y-119840000D02*
X187150000Y-130000000D01*
X230330000Y-84280000D02*
X222710000Y-84280000D01*
D21*
X240744000Y-70056000D02*
X240744000Y-68128000D01*
D22*
X182578000Y-112258000D02*
X182616000Y-112220000D01*
D21*
X236680000Y-84280000D02*
X236680000Y-72342000D01*
X32718000Y-21530000D02*
X31910000Y-21530000D01*
D22*
X52530000Y-43640000D02*
X52530000Y-21657000D01*
X134118000Y-130200000D02*
X134191000Y-130127000D01*
D21*
X72469000Y-130127000D02*
X93424000Y-130127000D01*
D22*
X32210000Y-43332400D02*
X32210000Y-22038000D01*
X230330000Y-84280000D02*
X236680000Y-84280000D01*
D23*
X140129000Y-67740500D02*
X140130500Y-67739000D01*
X72839500Y-66460000D02*
X74237500Y-67858000D01*
D22*
X154003000Y-130000000D02*
X154130000Y-130127000D01*
X154130000Y-43640000D02*
X154130000Y-21530000D01*
D23*
X113489500Y-66499000D02*
X114748500Y-67758000D01*
D22*
X146510000Y-28400000D02*
X146510000Y-30940000D01*
X217690000Y-30860000D02*
X217610000Y-30940000D01*
D21*
X65230000Y-21530000D02*
X52657000Y-21530000D01*
D22*
X236172000Y-130254000D02*
X236299000Y-130127000D01*
D23*
X112227500Y-67758000D02*
X113488000Y-66497500D01*
D22*
X182616000Y-112220000D02*
X187150000Y-112220000D01*
X113490000Y-43640000D02*
X113490000Y-21530000D01*
D21*
X52657000Y-21530000D02*
X32718000Y-21530000D01*
D22*
X232918000Y-119840000D02*
X236680000Y-119840000D01*
D23*
X33498000Y-67758000D02*
X51220000Y-67758000D01*
D22*
X217690000Y-43560000D02*
X217610000Y-43640000D01*
D23*
X132550500Y-67758000D02*
X133809500Y-66499000D01*
X173209500Y-67740500D02*
X174450000Y-66500000D01*
X71538500Y-67758000D02*
X72838000Y-66458500D01*
D22*
X52530000Y-119840000D02*
X52530000Y-130000000D01*
X32210000Y-22038000D02*
X32718000Y-21530000D01*
D21*
X217610000Y-30940000D02*
X217610000Y-28360000D01*
X217610000Y-43640000D02*
X217610000Y-60290000D01*
D22*
X47450000Y-129920000D02*
X47450000Y-127380000D01*
D21*
X47450000Y-130127000D02*
X52657000Y-130127000D01*
D23*
X32199000Y-66459000D02*
X33498000Y-67758000D01*
X154130000Y-66500000D02*
X155370500Y-67740500D01*
D22*
X146510000Y-43640000D02*
X146510000Y-46100000D01*
X114306000Y-130200000D02*
X114379000Y-130127000D01*
D21*
X217610000Y-43640000D02*
X217610000Y-30940000D01*
X240744000Y-71938000D02*
X240744000Y-70056000D01*
X146608000Y-130127000D02*
X154130000Y-130127000D01*
X93297000Y-21530000D02*
X72723000Y-21530000D01*
D23*
X51220000Y-67758000D02*
X52519000Y-66459000D01*
D21*
X113490000Y-21530000D02*
X93297000Y-21530000D01*
D23*
X178348500Y-65200500D02*
X182490500Y-65200500D01*
D22*
X146608000Y-129398000D02*
X146608000Y-130127000D01*
D21*
X154130000Y-21530000D02*
X146510000Y-21530000D01*
X32464000Y-130127000D02*
X38814000Y-130127000D01*
X134191000Y-130127000D02*
X146608000Y-130127000D01*
D22*
X146608000Y-126858000D02*
X146608000Y-129398000D01*
D23*
X74237500Y-67858000D02*
X74296000Y-67799500D01*
D22*
X113490000Y-129238000D02*
X114379000Y-130127000D01*
X52530000Y-130000000D02*
X52657000Y-130127000D01*
D21*
X174450000Y-21530000D02*
X154130000Y-21530000D01*
D22*
X182578000Y-112258000D02*
X182578000Y-67770000D01*
X72850000Y-43640000D02*
X72850000Y-21657000D01*
D23*
X137649500Y-67739000D02*
X137651000Y-67740500D01*
D22*
X72850000Y-21657000D02*
X72723000Y-21530000D01*
X93170000Y-43640000D02*
X93170000Y-21657000D01*
D23*
X133808500Y-66498500D02*
X135049000Y-67739000D01*
X155370500Y-67740500D02*
X173209500Y-67740500D01*
D22*
X230330000Y-30860000D02*
X230330000Y-28400000D01*
X134064000Y-130200000D02*
X134118000Y-130200000D01*
X133810000Y-43640000D02*
X133810000Y-21530000D01*
X222710000Y-43560000D02*
X217690000Y-43560000D01*
X52530000Y-21657000D02*
X52657000Y-21530000D01*
X93170000Y-21657000D02*
X93297000Y-21530000D01*
X93551000Y-130254000D02*
X93424000Y-130127000D01*
D23*
X38814000Y-116030000D02*
X38814000Y-130127000D01*
D22*
X174196000Y-129819000D02*
X174196000Y-130127000D01*
D23*
X94428500Y-67758000D02*
X112227500Y-67758000D01*
X152888000Y-67739000D02*
X154128500Y-66498500D01*
D22*
X222710000Y-30860000D02*
X217690000Y-30860000D01*
D21*
X174196000Y-130127000D02*
X187277000Y-130127000D01*
D23*
X137651000Y-67740500D02*
X140129000Y-67740500D01*
D21*
X38814000Y-130127000D02*
X47450000Y-130127000D01*
D23*
X34800795Y-114659102D02*
X34800795Y-114751795D01*
D22*
X113490000Y-119840000D02*
X113490000Y-129238000D01*
X217650000Y-28400000D02*
X217610000Y-28360000D01*
D21*
X93424000Y-130127000D02*
X114379000Y-130127000D01*
D23*
X38784500Y-116000500D02*
X38814000Y-116030000D01*
D21*
X236680000Y-129746000D02*
X236680000Y-119840000D01*
D23*
X182548500Y-67799500D02*
X182578000Y-67770000D01*
D21*
X240744000Y-70056000D02*
X240744000Y-72088000D01*
X217610000Y-28360000D02*
X217610000Y-21690000D01*
D23*
X36049500Y-116000500D02*
X38784500Y-116000500D01*
D22*
X187150000Y-130000000D02*
X187277000Y-130127000D01*
D21*
X72723000Y-21530000D02*
X65230000Y-21530000D01*
D22*
X65230000Y-28400000D02*
X65230000Y-21530000D01*
D21*
X133810000Y-21530000D02*
X113490000Y-21530000D01*
X217610000Y-21690000D02*
X217470000Y-21550000D01*
D22*
X232870000Y-157940000D02*
X236172000Y-157940000D01*
X182578000Y-67770000D02*
X182578000Y-65288000D01*
X182578000Y-119840000D02*
X182578000Y-112258000D01*
X93170000Y-119840000D02*
X93170000Y-129873000D01*
D23*
X174450000Y-66500000D02*
X177049000Y-66500000D01*
D22*
X174450000Y-129873000D02*
X174196000Y-130127000D01*
X174450000Y-119840000D02*
X174450000Y-129873000D01*
D21*
X52657000Y-130127000D02*
X72469000Y-130127000D01*
X236680000Y-119840000D02*
X236680000Y-84280000D01*
D23*
X91820000Y-67799500D02*
X93159500Y-66460000D01*
X74296000Y-67799500D02*
X91820000Y-67799500D01*
X177049000Y-66500000D02*
X178348500Y-65200500D01*
D21*
X240744000Y-70056000D02*
X240744000Y-67978000D01*
X146510000Y-21530000D02*
X133810000Y-21530000D01*
D22*
X113998000Y-130200000D02*
X114306000Y-130200000D01*
D21*
X114379000Y-130127000D02*
X134191000Y-130127000D01*
D23*
X140130500Y-67739000D02*
X152888000Y-67739000D01*
D22*
X32210000Y-119840000D02*
X32210000Y-129873000D01*
D23*
X53817500Y-67758000D02*
X71538500Y-67758000D01*
D21*
X237084000Y-71938000D02*
X240744000Y-71938000D01*
X240744000Y-71938000D02*
X239474000Y-71938000D01*
D23*
X135049000Y-67739000D02*
X137649500Y-67739000D01*
D22*
X72850000Y-119840000D02*
X72850000Y-129746000D01*
D21*
X217470000Y-21530000D02*
X174450000Y-21530000D01*
X187277000Y-130127000D02*
X236299000Y-130127000D01*
D22*
X230330000Y-86820000D02*
X230330000Y-84280000D01*
X187150000Y-119840000D02*
X182578000Y-119840000D01*
X65230000Y-28400000D02*
X65230000Y-30940000D01*
D21*
X154130000Y-130127000D02*
X174196000Y-130127000D01*
D22*
X133810000Y-129746000D02*
X134191000Y-130127000D01*
X222710000Y-28400000D02*
X217650000Y-28400000D01*
D23*
X93168000Y-66497500D02*
X94428500Y-67758000D01*
X52518000Y-66458500D02*
X53817500Y-67758000D01*
D22*
X154130000Y-119840000D02*
X154130000Y-130127000D01*
X65230000Y-43640000D02*
X65230000Y-46100000D01*
X133810000Y-119840000D02*
X133810000Y-129746000D01*
%TO.N,+5V*%
X90630000Y-46732471D02*
X90630000Y-24548200D01*
X55070000Y-124158000D02*
X55070000Y-114760000D01*
X176990000Y-124031000D02*
X176990000Y-114633000D01*
X192484000Y-99520000D02*
X194770000Y-99520000D01*
X153300000Y-48720000D02*
X154130000Y-48720000D01*
X192230000Y-89360000D02*
X192230000Y-99774000D01*
X116284000Y-124285000D02*
X116284000Y-114887000D01*
X136350000Y-114887000D02*
X133810000Y-114887000D01*
X51895000Y-48720000D02*
X49920000Y-46745000D01*
X49863000Y-31702000D02*
X33861000Y-31702000D01*
X95710000Y-124285000D02*
X95710000Y-114887000D01*
X192230000Y-89360000D02*
X192230000Y-24610000D01*
X192103000Y-114853000D02*
X192010000Y-114760000D01*
X33861000Y-24971000D02*
X34369000Y-24463000D01*
X33895000Y-31736000D02*
X33861000Y-31702000D01*
X131397000Y-24421200D02*
X131397000Y-47137000D01*
X33895000Y-48940000D02*
X33895000Y-31736000D01*
X32210000Y-114760000D02*
X32660871Y-114760000D01*
X32660871Y-114760000D02*
X34750000Y-116849129D01*
D21*
X213870000Y-79750000D02*
X213790000Y-79830000D01*
D22*
X174450000Y-48720000D02*
X173897529Y-48720000D01*
X192103000Y-104600000D02*
X192103000Y-114853000D01*
X75136000Y-114887000D02*
X72596000Y-114887000D01*
X52530000Y-48720000D02*
X51895000Y-48720000D01*
X33861000Y-31702000D02*
X33861000Y-24971000D01*
X32210000Y-48720000D02*
X33675000Y-48720000D01*
X110950000Y-24548200D02*
X110950000Y-46595000D01*
X55070000Y-114760000D02*
X52530000Y-114760000D01*
D21*
X213870000Y-24610000D02*
X213870000Y-79750000D01*
D22*
X92617529Y-48720000D02*
X90630000Y-46732471D01*
X173897529Y-48720000D02*
X172037000Y-46859471D01*
X136350000Y-124285000D02*
X136350000Y-114887000D01*
X93170000Y-48720000D02*
X92617529Y-48720000D01*
X156670000Y-114633000D02*
X154130000Y-114633000D01*
X131397000Y-47137000D02*
X132980000Y-48720000D01*
X110950000Y-46595000D02*
X113075000Y-48720000D01*
X152352000Y-24421200D02*
X152352000Y-47772000D01*
X116284000Y-114887000D02*
X113744000Y-114887000D01*
X152352000Y-47772000D02*
X153300000Y-48720000D01*
X90630000Y-24548200D02*
X90503000Y-24421200D01*
X192230000Y-99774000D02*
X192230000Y-104473000D01*
X132980000Y-48720000D02*
X133810000Y-48720000D01*
X49920000Y-46745000D02*
X49920000Y-31759000D01*
X176990000Y-114633000D02*
X174450000Y-114633000D01*
X70691000Y-47141000D02*
X70691000Y-24421200D01*
X72270000Y-48720000D02*
X70691000Y-47141000D01*
X192230000Y-99774000D02*
X192484000Y-99520000D01*
X49920000Y-31759000D02*
X49863000Y-31702000D01*
X113075000Y-48720000D02*
X113490000Y-48720000D01*
X75136000Y-124285000D02*
X75136000Y-114887000D01*
X72850000Y-48720000D02*
X72270000Y-48720000D01*
X95710000Y-114887000D02*
X93170000Y-114887000D01*
X172037000Y-46859471D02*
X172037000Y-24421200D01*
X192230000Y-104473000D02*
X192103000Y-104600000D01*
X156670000Y-124031000D02*
X156670000Y-114633000D01*
X192103000Y-104600000D02*
X187150000Y-104600000D01*
X33675000Y-48720000D02*
X33895000Y-48940000D01*
X111077000Y-24421200D02*
X110950000Y-24548200D01*
X192010000Y-114760000D02*
X187150000Y-114760000D01*
X34750000Y-116849129D02*
X34750000Y-124158000D01*
D21*
%TO.N,-5V*%
X207470000Y-34115000D02*
X207470000Y-76160000D01*
D22*
X128730000Y-34145000D02*
X128700000Y-34115000D01*
D21*
X207470000Y-76160000D02*
X207450000Y-76180000D01*
D22*
X150320000Y-48510471D02*
X150320000Y-34115000D01*
X128730000Y-53800000D02*
X128730000Y-34145000D01*
D24*
X68808000Y-34163500D02*
X68808000Y-53800000D01*
D22*
X169370000Y-53800000D02*
X169370000Y-34115000D01*
X52530000Y-53800000D02*
X48085000Y-53800000D01*
D23*
X35512000Y-34623000D02*
X36020000Y-34115000D01*
D22*
X149050000Y-49990000D02*
X149050000Y-49780471D01*
X174450000Y-53800000D02*
X169370000Y-53800000D01*
D23*
X32210000Y-53800000D02*
X35512000Y-53800000D01*
D22*
X48085000Y-53800000D02*
X48085000Y-34115000D01*
X149050000Y-53800000D02*
X149050000Y-49990000D01*
X113490000Y-53800000D02*
X109045000Y-53800000D01*
D24*
X68808000Y-53800000D02*
X72850000Y-53800000D01*
D22*
X149050000Y-49780471D02*
X150215236Y-48615235D01*
X150215236Y-48615235D02*
X150320000Y-48510471D01*
X109045000Y-53800000D02*
X109045000Y-34115000D01*
X93170000Y-53800000D02*
X88090000Y-53800000D01*
X88090000Y-53800000D02*
X88090000Y-34115000D01*
D23*
X35512000Y-53800000D02*
X35512000Y-34623000D01*
D22*
X154130000Y-53800000D02*
X149050000Y-53800000D01*
X133810000Y-53800000D02*
X128730000Y-53800000D01*
D24*
X68856500Y-34115000D02*
X68808000Y-34163500D01*
D22*
%TO.N,-12V*%
X133810000Y-58880000D02*
X126190000Y-58880000D01*
X65108000Y-58858000D02*
X65108000Y-49604000D01*
X67008000Y-49058000D02*
X67135000Y-48931000D01*
D23*
X33450500Y-60120500D02*
X39097500Y-60120500D01*
D22*
X146510000Y-49990000D02*
X148415000Y-48085000D01*
X146510000Y-58880000D02*
X146510000Y-49990000D01*
X65654000Y-49058000D02*
X67008000Y-49058000D01*
X154130000Y-58880000D02*
X146510000Y-58880000D01*
D23*
X32210000Y-58880000D02*
X33450500Y-60120500D01*
X39097500Y-60120500D02*
X39195000Y-60023000D01*
D22*
X113490000Y-58880000D02*
X106505000Y-58880000D01*
X65130000Y-58880000D02*
X65108000Y-58858000D01*
X174450000Y-58880000D02*
X166830000Y-58880000D01*
X106505000Y-58880000D02*
X106505000Y-37290000D01*
X65108000Y-49604000D02*
X65654000Y-49058000D01*
X126190000Y-58880000D02*
X126190000Y-37290000D01*
X148415000Y-48085000D02*
X148415000Y-37290000D01*
D21*
X204260000Y-53960000D02*
X204260000Y-37325000D01*
D22*
X72850000Y-58880000D02*
X65130000Y-58880000D01*
X166830000Y-58880000D02*
X166830000Y-37290000D01*
X46180000Y-58880000D02*
X46180000Y-37290000D01*
X85550000Y-37290000D02*
X85550000Y-58880000D01*
X39195000Y-60023000D02*
X39195000Y-37290000D01*
D21*
X204260000Y-37325000D02*
X204295000Y-37290000D01*
D22*
X67135000Y-48931000D02*
X67135000Y-37290000D01*
X85550000Y-58880000D02*
X93170000Y-58880000D01*
X52530000Y-58880000D02*
X46180000Y-58880000D01*
D23*
%TO.N,+12V*%
X41070500Y-62719500D02*
X41100000Y-62690000D01*
D22*
X60150000Y-41100000D02*
X65230000Y-41100000D01*
X113490000Y-63960000D02*
X103965000Y-63960000D01*
X83010000Y-63960000D02*
X83010000Y-40465000D01*
X174450000Y-63960000D02*
X164290000Y-63960000D01*
X60150000Y-63960000D02*
X60150000Y-41100000D01*
X52530000Y-63960000D02*
X41100000Y-63960000D01*
X142065000Y-63960000D02*
X142065000Y-40465000D01*
X123650000Y-63960000D02*
X133810000Y-63960000D01*
D23*
X33450500Y-62719500D02*
X41070500Y-62719500D01*
D22*
X164290000Y-41100000D02*
X164925000Y-40465000D01*
X72850000Y-63960000D02*
X60150000Y-63960000D01*
X103965000Y-63960000D02*
X103965000Y-40465000D01*
X154130000Y-63960000D02*
X142065000Y-63960000D01*
X41100000Y-62690000D02*
X41100000Y-63960000D01*
X123650000Y-40465000D02*
X123650000Y-63960000D01*
X93170000Y-63960000D02*
X83010000Y-63960000D01*
D23*
X32210000Y-63960000D02*
X33450500Y-62719500D01*
D22*
X164290000Y-63960000D02*
X164290000Y-41100000D01*
X41100000Y-40465000D02*
X41100000Y-62690000D01*
D23*
%TO.N,/~{SMEMW}*%
X52518000Y-68998500D02*
X53817500Y-70298000D01*
X53817500Y-70298000D02*
X71538500Y-70298000D01*
X114789000Y-70338500D02*
X132510000Y-70338500D01*
X32199000Y-68999000D02*
X33498500Y-70298500D01*
X94467500Y-70337000D02*
X112188500Y-70337000D01*
X152829000Y-70338000D02*
X154128500Y-69038500D01*
X113489500Y-69039000D02*
X114789000Y-70338500D01*
X154130000Y-69040000D02*
X155429500Y-70339500D01*
X72839500Y-69000000D02*
X74139000Y-70299500D01*
X133808500Y-69038500D02*
X135108000Y-70338000D01*
X112188500Y-70337000D02*
X113488000Y-69037500D01*
X132510000Y-70338500D02*
X133809500Y-69039000D01*
X155429500Y-70339500D02*
X173150500Y-70339500D01*
X135108000Y-70338000D02*
X152829000Y-70338000D01*
X93168000Y-69037500D02*
X94467500Y-70337000D01*
X51219500Y-70298500D02*
X52519000Y-68999000D01*
X91860000Y-70299500D02*
X93159500Y-69000000D01*
X71538500Y-70298000D02*
X72838000Y-68998500D01*
X74139000Y-70299500D02*
X91860000Y-70299500D01*
X173150500Y-70339500D02*
X174450000Y-69040000D01*
X33498500Y-70298500D02*
X51219500Y-70298500D01*
%TO.N,/~{SMEMR}*%
X51219500Y-72838500D02*
X52519000Y-71539000D01*
X133808500Y-71578500D02*
X135108000Y-72878000D01*
X74139000Y-72839500D02*
X91860000Y-72839500D01*
X135108000Y-72878000D02*
X152829000Y-72878000D01*
X152829000Y-72878000D02*
X154128500Y-71578500D01*
X52518000Y-71538500D02*
X53817500Y-72838000D01*
X72839500Y-71540000D02*
X74139000Y-72839500D01*
X71538500Y-72838000D02*
X72838000Y-71538500D01*
X91860000Y-72839500D02*
X93159500Y-71540000D01*
X93168000Y-71577500D02*
X94467500Y-72877000D01*
X33498500Y-72838500D02*
X51219500Y-72838500D01*
X112188500Y-72877000D02*
X113488000Y-71577500D01*
X53817500Y-72838000D02*
X71538500Y-72838000D01*
X113489500Y-71579000D02*
X114789000Y-72878500D01*
X114789000Y-72878500D02*
X132510000Y-72878500D01*
X154130000Y-71580000D02*
X155429500Y-72879500D01*
X32199000Y-71539000D02*
X33498500Y-72838500D01*
X173150500Y-72879500D02*
X174450000Y-71580000D01*
X94467500Y-72877000D02*
X112188500Y-72877000D01*
X132510000Y-72878500D02*
X133809500Y-71579000D01*
X155429500Y-72879500D02*
X173150500Y-72879500D01*
%TO.N,/~{IOW}*%
X38528000Y-75360500D02*
X38530500Y-75358000D01*
X58848000Y-75360500D02*
X58850500Y-75358000D01*
X135049000Y-75359000D02*
X137649500Y-75359000D01*
X132570500Y-75358000D02*
X133809500Y-74119000D01*
X99490500Y-75458000D02*
X112147500Y-75458000D01*
X94547000Y-75419500D02*
X99452000Y-75419500D01*
X71558500Y-75358000D02*
X72838000Y-74078500D01*
X133808500Y-74118500D02*
X135049000Y-75359000D01*
X52518000Y-74078500D02*
X53800000Y-75360500D01*
X74256000Y-75419500D02*
X91820000Y-75419500D01*
X94508500Y-75458000D02*
X94547000Y-75419500D01*
X119810500Y-75358000D02*
X132570500Y-75358000D01*
X152888000Y-75359000D02*
X154128500Y-74118500D01*
X72839500Y-74080000D02*
X74217500Y-75458000D01*
X137651000Y-75360500D02*
X140129000Y-75360500D01*
X51240000Y-75358000D02*
X52519000Y-74079000D01*
X74217500Y-75458000D02*
X74256000Y-75419500D01*
X173209500Y-75360500D02*
X174450000Y-74120000D01*
X32199000Y-74079000D02*
X33480500Y-75360500D01*
X140129000Y-75360500D02*
X140130500Y-75359000D01*
X53800000Y-75360500D02*
X58848000Y-75360500D01*
X119808000Y-75360500D02*
X119810500Y-75358000D01*
X154130000Y-74120000D02*
X155370500Y-75360500D01*
X38530500Y-75358000D02*
X51240000Y-75358000D01*
X155370500Y-75360500D02*
X173209500Y-75360500D01*
X137649500Y-75359000D02*
X137651000Y-75360500D01*
X33480500Y-75360500D02*
X38528000Y-75360500D01*
X112147500Y-75458000D02*
X113488000Y-74117500D01*
X93168000Y-74117500D02*
X94508500Y-75458000D01*
X114731000Y-75360500D02*
X119808000Y-75360500D01*
X99452000Y-75419500D02*
X99490500Y-75458000D01*
X58850500Y-75358000D02*
X71558500Y-75358000D01*
X113489500Y-74119000D02*
X114731000Y-75360500D01*
X140130500Y-75359000D02*
X152888000Y-75359000D01*
X91820000Y-75419500D02*
X93159500Y-74080000D01*
%TO.N,/~{IOR}*%
X135108000Y-77958000D02*
X152829000Y-77958000D01*
X94468500Y-77958000D02*
X112187500Y-77958000D01*
X114788500Y-77958000D02*
X132510500Y-77958000D01*
X72839500Y-76620000D02*
X74177500Y-77958000D01*
X52518000Y-76618500D02*
X53857500Y-77958000D01*
X91821500Y-77958000D02*
X93159500Y-76620000D01*
X132510500Y-77958000D02*
X133809500Y-76659000D01*
X74177500Y-77958000D02*
X91821500Y-77958000D01*
X133808500Y-76658500D02*
X135108000Y-77958000D01*
X71498500Y-77958000D02*
X72838000Y-76618500D01*
X33538000Y-77958000D02*
X51180000Y-77958000D01*
X113489500Y-76659000D02*
X114788500Y-77958000D01*
X32199000Y-76619000D02*
X33538000Y-77958000D01*
X93168000Y-76657500D02*
X94468500Y-77958000D01*
X51180000Y-77958000D02*
X52519000Y-76619000D01*
X155370500Y-77900500D02*
X173209500Y-77900500D01*
X152829000Y-77958000D02*
X154128500Y-76658500D01*
X154130000Y-76660000D02*
X155370500Y-77900500D01*
X112187500Y-77958000D02*
X113488000Y-76657500D01*
X173209500Y-77900500D02*
X174450000Y-76660000D01*
X53857500Y-77958000D02*
X71498500Y-77958000D01*
%TO.N,/~{DACK3}*%
X133808500Y-79198500D02*
X135068000Y-80458000D01*
X32199000Y-79159000D02*
X33498000Y-80458000D01*
X135068000Y-80458000D02*
X152869000Y-80458000D01*
X154130000Y-79200000D02*
X155370500Y-80440500D01*
X71538500Y-80458000D02*
X72838000Y-79158500D01*
X72839500Y-79160000D02*
X74137500Y-80458000D01*
X93168000Y-79197500D02*
X94428500Y-80458000D01*
X94428500Y-80458000D02*
X112227500Y-80458000D01*
X155370500Y-80440500D02*
X173209500Y-80440500D01*
X52518000Y-79158500D02*
X53817500Y-80458000D01*
X152869000Y-80458000D02*
X154128500Y-79198500D01*
X114748500Y-80458000D02*
X132550500Y-80458000D01*
X112227500Y-80458000D02*
X113488000Y-79197500D01*
X173209500Y-80440500D02*
X174450000Y-79200000D01*
X33498000Y-80458000D02*
X51220000Y-80458000D01*
X51220000Y-80458000D02*
X52519000Y-79159000D01*
X113489500Y-79199000D02*
X114748500Y-80458000D01*
X53817500Y-80458000D02*
X71538500Y-80458000D01*
X74137500Y-80458000D02*
X91861500Y-80458000D01*
X132550500Y-80458000D02*
X133809500Y-79199000D01*
X91861500Y-80458000D02*
X93159500Y-79160000D01*
%TO.N,/DRQ3*%
X74197500Y-83058000D02*
X74216000Y-83039500D01*
X71478500Y-83058000D02*
X72838000Y-81698500D01*
X58850500Y-83058000D02*
X71478500Y-83058000D01*
X119810500Y-83058000D02*
X132490500Y-83058000D01*
X113489500Y-81739000D02*
X114808500Y-83058000D01*
X132490500Y-83058000D02*
X133809500Y-81739000D01*
X58832000Y-83039500D02*
X58850500Y-83058000D01*
X33576500Y-83039500D02*
X51178500Y-83039500D01*
X51178500Y-83039500D02*
X52519000Y-81699000D01*
X99490500Y-83058000D02*
X112167500Y-83058000D01*
X53877500Y-83058000D02*
X53896000Y-83039500D01*
X119792000Y-83039500D02*
X119810500Y-83058000D01*
X32199000Y-81699000D02*
X33558000Y-83058000D01*
X93168000Y-81737500D02*
X94488500Y-83058000D01*
X33558000Y-83058000D02*
X33576500Y-83039500D01*
X135128000Y-83058000D02*
X135146500Y-83039500D01*
X114808500Y-83058000D02*
X114827000Y-83039500D01*
X53896000Y-83039500D02*
X58832000Y-83039500D01*
X173209500Y-82980500D02*
X174450000Y-81740000D01*
X135146500Y-83039500D02*
X152827500Y-83039500D01*
X94488500Y-83058000D02*
X94507000Y-83039500D01*
X91820000Y-83039500D02*
X93159500Y-81700000D01*
X52518000Y-81698500D02*
X53877500Y-83058000D01*
X133808500Y-81738500D02*
X135128000Y-83058000D01*
X94507000Y-83039500D02*
X99472000Y-83039500D01*
X74216000Y-83039500D02*
X91820000Y-83039500D01*
X114827000Y-83039500D02*
X119792000Y-83039500D01*
X154130000Y-81740000D02*
X155370500Y-82980500D01*
X152827500Y-83039500D02*
X154128500Y-81738500D01*
X155370500Y-82980500D02*
X173209500Y-82980500D01*
X112167500Y-83058000D02*
X113488000Y-81737500D01*
X72839500Y-81700000D02*
X74197500Y-83058000D01*
X99472000Y-83039500D02*
X99490500Y-83058000D01*
%TO.N,/~{DACK1}*%
X51200000Y-85558000D02*
X52519000Y-84239000D01*
X33518000Y-85558000D02*
X51200000Y-85558000D01*
X152849000Y-85558000D02*
X154128500Y-84278500D01*
X133808500Y-84278500D02*
X135088000Y-85558000D01*
X112207500Y-85558000D02*
X113488000Y-84277500D01*
X132530500Y-85558000D02*
X133809500Y-84279000D01*
X113489500Y-84279000D02*
X114768500Y-85558000D01*
X71518500Y-85558000D02*
X72838000Y-84238500D01*
X155370500Y-85520500D02*
X173209500Y-85520500D01*
X93168000Y-84277500D02*
X94448500Y-85558000D01*
X91841500Y-85558000D02*
X93159500Y-84240000D01*
X52518000Y-84238500D02*
X53837500Y-85558000D01*
X53837500Y-85558000D02*
X71518500Y-85558000D01*
X173209500Y-85520500D02*
X174450000Y-84280000D01*
X114768500Y-85558000D02*
X132530500Y-85558000D01*
X74157500Y-85558000D02*
X91841500Y-85558000D01*
X154130000Y-84280000D02*
X155370500Y-85520500D01*
X94448500Y-85558000D02*
X112207500Y-85558000D01*
X32199000Y-84239000D02*
X33518000Y-85558000D01*
X135088000Y-85558000D02*
X152849000Y-85558000D01*
X72839500Y-84240000D02*
X74157500Y-85558000D01*
%TO.N,/DRQ1*%
X155370500Y-88060500D02*
X173209500Y-88060500D01*
X94408500Y-88058000D02*
X97009500Y-88058000D01*
X33616500Y-88119500D02*
X51178500Y-88119500D01*
X135049000Y-88059000D02*
X137649500Y-88059000D01*
X140130500Y-88059000D02*
X152888000Y-88059000D01*
X71558500Y-88058000D02*
X72838000Y-86778500D01*
X137649500Y-88059000D02*
X137651000Y-88060500D01*
X97012000Y-88060500D02*
X99488000Y-88060500D01*
X97009500Y-88058000D02*
X97012000Y-88060500D01*
X113489500Y-86819000D02*
X114728500Y-88058000D01*
X140129000Y-88060500D02*
X140130500Y-88059000D01*
X99490500Y-88058000D02*
X112247500Y-88058000D01*
X52518000Y-86778500D02*
X53800000Y-88060500D01*
X137651000Y-88060500D02*
X140129000Y-88060500D01*
X112247500Y-88058000D02*
X113488000Y-86817500D01*
X173209500Y-88060500D02*
X174450000Y-86820000D01*
X117327000Y-88058000D02*
X117329500Y-88060500D01*
X91881500Y-88058000D02*
X93159500Y-86780000D01*
X132568000Y-88060500D02*
X133809500Y-86819000D01*
X114728500Y-88058000D02*
X117327000Y-88058000D01*
X154130000Y-86820000D02*
X155370500Y-88060500D01*
X58848000Y-88060500D02*
X58850500Y-88058000D01*
X117329500Y-88060500D02*
X132568000Y-88060500D01*
X51178500Y-88119500D02*
X52519000Y-86779000D01*
X93168000Y-86817500D02*
X94408500Y-88058000D01*
X58850500Y-88058000D02*
X71558500Y-88058000D01*
X74120000Y-88060500D02*
X79168000Y-88060500D01*
X133808500Y-86818500D02*
X135049000Y-88059000D01*
X33578000Y-88158000D02*
X33616500Y-88119500D01*
X99488000Y-88060500D02*
X99490500Y-88058000D01*
X79170500Y-88058000D02*
X91881500Y-88058000D01*
X72839500Y-86780000D02*
X74120000Y-88060500D01*
X32199000Y-86779000D02*
X33578000Y-88158000D01*
X152888000Y-88059000D02*
X154128500Y-86818500D01*
X53800000Y-88060500D02*
X58848000Y-88060500D01*
X79168000Y-88060500D02*
X79170500Y-88058000D01*
%TO.N,/~{DACK0}*%
X72839500Y-89320000D02*
X74177500Y-90658000D01*
X135108000Y-90658000D02*
X152829000Y-90658000D01*
X93168000Y-89357500D02*
X94468500Y-90658000D01*
X94468500Y-90658000D02*
X112187500Y-90658000D01*
X33538000Y-90658000D02*
X51180000Y-90658000D01*
X133808500Y-89358500D02*
X135108000Y-90658000D01*
X91821500Y-90658000D02*
X93159500Y-89320000D01*
X152829000Y-90658000D02*
X154128500Y-89358500D01*
X173209500Y-90600500D02*
X174450000Y-89360000D01*
X71498500Y-90658000D02*
X72838000Y-89318500D01*
X114788500Y-90658000D02*
X132510500Y-90658000D01*
X32199000Y-89319000D02*
X33538000Y-90658000D01*
X132510500Y-90658000D02*
X133809500Y-89359000D01*
X154130000Y-89360000D02*
X155370500Y-90600500D01*
X52518000Y-89318500D02*
X53857500Y-90658000D01*
X51180000Y-90658000D02*
X52519000Y-89319000D01*
X74177500Y-90658000D02*
X91821500Y-90658000D01*
X113489500Y-89359000D02*
X114788500Y-90658000D01*
X53857500Y-90658000D02*
X71498500Y-90658000D01*
X112187500Y-90658000D02*
X113488000Y-89357500D01*
X155370500Y-90600500D02*
X173209500Y-90600500D01*
%TO.N,/CLK*%
X74137500Y-93158000D02*
X91861500Y-93158000D01*
X112227500Y-93158000D02*
X113488000Y-91897500D01*
X71538500Y-93158000D02*
X72838000Y-91858500D01*
X72839500Y-91860000D02*
X74137500Y-93158000D01*
X135068000Y-93158000D02*
X152869000Y-93158000D01*
X154130000Y-91900000D02*
X155370500Y-93140500D01*
X132550500Y-93158000D02*
X133809500Y-91899000D01*
X155370500Y-93140500D02*
X173209500Y-93140500D01*
X133808500Y-91898500D02*
X135068000Y-93158000D01*
X152869000Y-93158000D02*
X154128500Y-91898500D01*
X53817500Y-93158000D02*
X71538500Y-93158000D01*
X93168000Y-91897500D02*
X94428500Y-93158000D01*
X91861500Y-93158000D02*
X93159500Y-91860000D01*
X51220000Y-93158000D02*
X52519000Y-91859000D01*
X94428500Y-93158000D02*
X112227500Y-93158000D01*
X33498000Y-93158000D02*
X51220000Y-93158000D01*
X113489500Y-91899000D02*
X114748500Y-93158000D01*
X114748500Y-93158000D02*
X132550500Y-93158000D01*
X173209500Y-93140500D02*
X174450000Y-91900000D01*
X52518000Y-91858500D02*
X53817500Y-93158000D01*
X32199000Y-91859000D02*
X33498000Y-93158000D01*
%TO.N,/IRQ7*%
X38530500Y-95758000D02*
X51160000Y-95758000D01*
X152809000Y-95758000D02*
X154128500Y-94438500D01*
X114731000Y-95680500D02*
X132568000Y-95680500D01*
X38512000Y-95739500D02*
X38530500Y-95758000D01*
X99472000Y-95739500D02*
X99490500Y-95758000D01*
X154130000Y-94440000D02*
X155370500Y-95680500D01*
X132568000Y-95680500D02*
X133809500Y-94439000D01*
X155370500Y-95680500D02*
X173209500Y-95680500D01*
X58828000Y-95680500D02*
X58850500Y-95658000D01*
X113489500Y-94439000D02*
X114731000Y-95680500D01*
X112167500Y-95758000D02*
X113488000Y-94437500D01*
X58850500Y-95658000D02*
X71578500Y-95658000D01*
X79170500Y-95758000D02*
X91801500Y-95758000D01*
X94507000Y-95739500D02*
X99472000Y-95739500D01*
X140130500Y-95758000D02*
X152809000Y-95758000D01*
X135128000Y-95758000D02*
X135146500Y-95739500D01*
X99490500Y-95758000D02*
X112167500Y-95758000D01*
X72839500Y-94400000D02*
X74197500Y-95758000D01*
X52518000Y-94398500D02*
X53800000Y-95680500D01*
X71578500Y-95658000D02*
X72838000Y-94398500D01*
X33558000Y-95758000D02*
X33576500Y-95739500D01*
X74197500Y-95758000D02*
X74216000Y-95739500D01*
X93168000Y-94437500D02*
X94488500Y-95758000D01*
X135146500Y-95739500D02*
X140112000Y-95739500D01*
X91801500Y-95758000D02*
X93159500Y-94400000D01*
X51160000Y-95758000D02*
X52519000Y-94399000D01*
X94488500Y-95758000D02*
X94507000Y-95739500D01*
X74216000Y-95739500D02*
X79152000Y-95739500D01*
X140112000Y-95739500D02*
X140130500Y-95758000D01*
X173209500Y-95680500D02*
X174450000Y-94440000D01*
X33576500Y-95739500D02*
X38512000Y-95739500D01*
X79152000Y-95739500D02*
X79170500Y-95758000D01*
X32199000Y-94399000D02*
X33558000Y-95758000D01*
X53800000Y-95680500D02*
X58828000Y-95680500D01*
X133808500Y-94438500D02*
X135128000Y-95758000D01*
%TO.N,/IRQ6*%
X52518000Y-96938500D02*
X53837500Y-98258000D01*
X32199000Y-96939000D02*
X33518000Y-98258000D01*
X93168000Y-96977500D02*
X94448500Y-98258000D01*
X71518500Y-98258000D02*
X72838000Y-96938500D01*
X132530500Y-98258000D02*
X133809500Y-96979000D01*
X133808500Y-96978500D02*
X135088000Y-98258000D01*
X94448500Y-98258000D02*
X112207500Y-98258000D01*
X74157500Y-98258000D02*
X91841500Y-98258000D01*
X72839500Y-96940000D02*
X74157500Y-98258000D01*
X33518000Y-98258000D02*
X51200000Y-98258000D01*
X114768500Y-98258000D02*
X132530500Y-98258000D01*
X53837500Y-98258000D02*
X71518500Y-98258000D01*
X112207500Y-98258000D02*
X113488000Y-96977500D01*
X173209500Y-98220500D02*
X174450000Y-96980000D01*
X152849000Y-98258000D02*
X154128500Y-96978500D01*
X155370500Y-98220500D02*
X173209500Y-98220500D01*
X113489500Y-96979000D02*
X114768500Y-98258000D01*
X154130000Y-96980000D02*
X155370500Y-98220500D01*
X91841500Y-98258000D02*
X93159500Y-96940000D01*
X51200000Y-98258000D02*
X52519000Y-96939000D01*
X135088000Y-98258000D02*
X152849000Y-98258000D01*
%TO.N,/IRQ5*%
X173150500Y-100819500D02*
X174450000Y-99520000D01*
X52518000Y-99478500D02*
X53817500Y-100778000D01*
X132570500Y-100758000D02*
X133809500Y-99519000D01*
X32199000Y-99479000D02*
X33480500Y-100760500D01*
X71538500Y-100778000D02*
X72838000Y-99478500D01*
X74139000Y-100779500D02*
X91860000Y-100779500D01*
X51240000Y-100758000D02*
X52519000Y-99479000D01*
X154130000Y-99520000D02*
X155429500Y-100819500D01*
X94467500Y-100817000D02*
X112188500Y-100817000D01*
X114731000Y-100760500D02*
X119808000Y-100760500D01*
X155429500Y-100819500D02*
X173150500Y-100819500D01*
X119808000Y-100760500D02*
X119810500Y-100758000D01*
X112188500Y-100817000D02*
X113488000Y-99517500D01*
X152829000Y-100818000D02*
X154128500Y-99518500D01*
X33480500Y-100760500D02*
X38528000Y-100760500D01*
X113489500Y-99519000D02*
X114731000Y-100760500D01*
X119810500Y-100758000D02*
X132570500Y-100758000D01*
X53817500Y-100778000D02*
X71538500Y-100778000D01*
X133808500Y-99518500D02*
X135108000Y-100818000D01*
X91860000Y-100779500D02*
X93159500Y-99480000D01*
X38530500Y-100758000D02*
X51240000Y-100758000D01*
X135108000Y-100818000D02*
X152829000Y-100818000D01*
X93168000Y-99517500D02*
X94467500Y-100817000D01*
X72839500Y-99480000D02*
X74139000Y-100779500D01*
X38528000Y-100760500D02*
X38530500Y-100758000D01*
%TO.N,/IRQ4*%
X154130000Y-102060000D02*
X155370500Y-103300500D01*
X132510500Y-103358000D02*
X133809500Y-102059000D01*
X74177500Y-103358000D02*
X91821500Y-103358000D01*
X113489500Y-102059000D02*
X114788500Y-103358000D01*
X135108000Y-103358000D02*
X152829000Y-103358000D01*
X91821500Y-103358000D02*
X93159500Y-102020000D01*
X173209500Y-103300500D02*
X174450000Y-102060000D01*
X155370500Y-103300500D02*
X173209500Y-103300500D01*
X114788500Y-103358000D02*
X132510500Y-103358000D01*
X94468500Y-103358000D02*
X112187500Y-103358000D01*
X33538000Y-103358000D02*
X51180000Y-103358000D01*
X112187500Y-103358000D02*
X113488000Y-102057500D01*
X52518000Y-102018500D02*
X53857500Y-103358000D01*
X53857500Y-103358000D02*
X71498500Y-103358000D01*
X51180000Y-103358000D02*
X52519000Y-102019000D01*
X152829000Y-103358000D02*
X154128500Y-102058500D01*
X133808500Y-102058500D02*
X135108000Y-103358000D01*
X32199000Y-102019000D02*
X33538000Y-103358000D01*
X72839500Y-102020000D02*
X74177500Y-103358000D01*
X71498500Y-103358000D02*
X72838000Y-102018500D01*
X93168000Y-102057500D02*
X94468500Y-103358000D01*
%TO.N,/IRQ3*%
X53788000Y-105858000D02*
X71592000Y-105858000D01*
X113489500Y-104599000D02*
X114789000Y-105898500D01*
X152829000Y-105898000D02*
X154128500Y-104598500D01*
X94467500Y-105897000D02*
X112188500Y-105897000D01*
X154130000Y-104600000D02*
X155429500Y-105899500D01*
X91860000Y-105859500D02*
X74109500Y-105859500D01*
X33498500Y-105858500D02*
X51271500Y-105858500D01*
X173150500Y-105899500D02*
X174450000Y-104600000D01*
X52530000Y-104600000D02*
X53788000Y-105858000D01*
X93159500Y-104560000D02*
X91860000Y-105859500D01*
X74109500Y-105859500D02*
X72850000Y-104600000D01*
X133808500Y-104598500D02*
X135108000Y-105898000D01*
X93168000Y-104597500D02*
X94467500Y-105897000D01*
X71592000Y-105858000D02*
X72850000Y-104600000D01*
X132510000Y-105898500D02*
X133809500Y-104599000D01*
X135108000Y-105898000D02*
X152829000Y-105898000D01*
X155429500Y-105899500D02*
X173150500Y-105899500D01*
X32199000Y-104559000D02*
X33498500Y-105858500D01*
X51271500Y-105858500D02*
X52530000Y-104600000D01*
X114789000Y-105898500D02*
X132510000Y-105898500D01*
X112188500Y-105897000D02*
X113488000Y-104597500D01*
%TO.N,/~{DACK2}*%
X79152000Y-108439500D02*
X79170500Y-108458000D01*
X94488500Y-108458000D02*
X94507000Y-108439500D01*
X135049000Y-108379000D02*
X137649500Y-108379000D01*
X99472000Y-108439500D02*
X99490500Y-108458000D01*
X140129000Y-108380500D02*
X140130500Y-108379000D01*
X117311000Y-108458000D02*
X117329500Y-108439500D01*
X137649500Y-108379000D02*
X137651000Y-108380500D01*
X93168000Y-107137500D02*
X94488500Y-108458000D01*
X72839500Y-107100000D02*
X74197500Y-108458000D01*
X155370500Y-108380500D02*
X173209500Y-108380500D01*
X133808500Y-107138500D02*
X135049000Y-108379000D01*
X33480500Y-108380500D02*
X38508000Y-108380500D01*
X117329500Y-108439500D02*
X132509000Y-108439500D01*
X154130000Y-107140000D02*
X155370500Y-108380500D01*
X38530500Y-108358000D02*
X51260000Y-108358000D01*
X71578500Y-108358000D02*
X72838000Y-107098500D01*
X58850500Y-108358000D02*
X71578500Y-108358000D01*
X79170500Y-108458000D02*
X91801500Y-108458000D01*
X113489500Y-107139000D02*
X114808500Y-108458000D01*
X173209500Y-108380500D02*
X174450000Y-107140000D01*
X91801500Y-108458000D02*
X93159500Y-107100000D01*
X112167500Y-108458000D02*
X113488000Y-107137500D01*
X137651000Y-108380500D02*
X140129000Y-108380500D01*
X140130500Y-108379000D02*
X152888000Y-108379000D01*
X53800000Y-108380500D02*
X58828000Y-108380500D01*
X74216000Y-108439500D02*
X79152000Y-108439500D01*
X32199000Y-107099000D02*
X33480500Y-108380500D01*
X74197500Y-108458000D02*
X74216000Y-108439500D01*
X114808500Y-108458000D02*
X117311000Y-108458000D01*
X99490500Y-108458000D02*
X112167500Y-108458000D01*
X132509000Y-108439500D02*
X133809500Y-107139000D01*
X51260000Y-108358000D02*
X52519000Y-107099000D01*
X58828000Y-108380500D02*
X58850500Y-108358000D01*
X94507000Y-108439500D02*
X99472000Y-108439500D01*
X38508000Y-108380500D02*
X38530500Y-108358000D01*
X152888000Y-108379000D02*
X154128500Y-107138500D01*
X52518000Y-107098500D02*
X53800000Y-108380500D01*
%TO.N,/TC*%
X155429500Y-110979500D02*
X173150500Y-110979500D01*
X173150500Y-110979500D02*
X174450000Y-109680000D01*
X154130000Y-109680000D02*
X155429500Y-110979500D01*
X33518000Y-110958000D02*
X51200000Y-110958000D01*
X135108000Y-110978000D02*
X152829000Y-110978000D01*
X113489500Y-109679000D02*
X114789000Y-110978500D01*
X112188500Y-110977000D02*
X113488000Y-109677500D01*
X72839500Y-109640000D02*
X74139000Y-110939500D01*
X94467500Y-110977000D02*
X112188500Y-110977000D01*
X152829000Y-110978000D02*
X154128500Y-109678500D01*
X114789000Y-110978500D02*
X132510000Y-110978500D01*
X32199000Y-109639000D02*
X33518000Y-110958000D01*
X71538500Y-110938000D02*
X72838000Y-109638500D01*
X133808500Y-109678500D02*
X135108000Y-110978000D01*
X52518000Y-109638500D02*
X53817500Y-110938000D01*
X74139000Y-110939500D02*
X91860000Y-110939500D01*
X51200000Y-110958000D02*
X52519000Y-109639000D01*
X53817500Y-110938000D02*
X71538500Y-110938000D01*
X93168000Y-109677500D02*
X94467500Y-110977000D01*
X91860000Y-110939500D02*
X93159500Y-109640000D01*
X132510000Y-110978500D02*
X133809500Y-109679000D01*
%TO.N,/ALE*%
X114789000Y-113518500D02*
X132510000Y-113518500D01*
X33498500Y-113478500D02*
X51219500Y-113478500D01*
X51219500Y-113478500D02*
X52519000Y-112179000D01*
X91860000Y-113479500D02*
X93159500Y-112180000D01*
X135108000Y-113518000D02*
X152829000Y-113518000D01*
X72839500Y-112180000D02*
X74139000Y-113479500D01*
X154130000Y-112220000D02*
X155429500Y-113519500D01*
X94467500Y-113517000D02*
X112188500Y-113517000D01*
X112188500Y-113517000D02*
X113488000Y-112217500D01*
X173150500Y-113519500D02*
X174450000Y-112220000D01*
X71538500Y-113478000D02*
X72838000Y-112178500D01*
X52518000Y-112178500D02*
X53817500Y-113478000D01*
X53817500Y-113478000D02*
X71538500Y-113478000D01*
X155429500Y-113519500D02*
X173150500Y-113519500D01*
X32199000Y-112179000D02*
X33498500Y-113478500D01*
X113489500Y-112219000D02*
X114789000Y-113518500D01*
X74139000Y-113479500D02*
X91860000Y-113479500D01*
X152829000Y-113518000D02*
X154128500Y-112218500D01*
X133808500Y-112218500D02*
X135108000Y-113518000D01*
X93168000Y-112217500D02*
X94467500Y-113517000D01*
X132510000Y-113518500D02*
X133809500Y-112219000D01*
%TO.N,/DB6*%
X111682500Y-49960500D02*
X117329500Y-49960500D01*
X137649500Y-49960500D02*
X138890000Y-48720000D01*
X151590000Y-49482000D02*
X152068500Y-49960500D01*
X50722500Y-49960500D02*
X56369500Y-49960500D01*
X117329500Y-49960500D02*
X118570000Y-48720000D01*
X71072707Y-49990000D02*
X76660000Y-49990000D01*
X97009500Y-49960500D02*
X98250000Y-48720000D01*
X70226297Y-49143590D02*
X71072707Y-49990000D01*
X131748500Y-49960500D02*
X137649500Y-49960500D01*
X178289500Y-49960500D02*
X179530000Y-48720000D01*
X157969500Y-49960500D02*
X159210000Y-48720000D01*
X172896500Y-49960500D02*
X178289500Y-49960500D01*
X131270000Y-49482000D02*
X131748500Y-49960500D01*
X91616500Y-49960500D02*
X97009500Y-49960500D01*
X172164000Y-49228000D02*
X172896500Y-49960500D01*
X56369500Y-49960500D02*
X57610000Y-48720000D01*
X90630000Y-48974000D02*
X91616500Y-49960500D01*
X110950000Y-49228000D02*
X111682500Y-49960500D01*
X76660000Y-49990000D02*
X77930000Y-48720000D01*
X152068500Y-49960500D02*
X157969500Y-49960500D01*
X49736000Y-48974000D02*
X50722500Y-49960500D01*
%TO.N,/DB0*%
X176308000Y-65258000D02*
X177708000Y-63858000D01*
X177708000Y-63858000D02*
X179428000Y-63858000D01*
X79228000Y-65258000D02*
X96952000Y-65258000D01*
X37290000Y-63960000D02*
X38530500Y-65200500D01*
X138890000Y-63960000D02*
X140188000Y-65258000D01*
X140188000Y-65258000D02*
X157912000Y-65258000D01*
X38530500Y-65200500D02*
X56369500Y-65200500D01*
X58908000Y-65258000D02*
X76632000Y-65258000D01*
X112249500Y-65200500D02*
X117329500Y-65200500D01*
X157912000Y-65258000D02*
X159210000Y-63960000D01*
X96952000Y-65258000D02*
X98250000Y-63960000D01*
X112207000Y-65158000D02*
X112249500Y-65200500D01*
X99448000Y-65158000D02*
X112207000Y-65158000D01*
X57610000Y-63960000D02*
X58908000Y-65258000D01*
X137592000Y-65258000D02*
X138890000Y-63960000D01*
X117329500Y-65200500D02*
X118570000Y-63960000D01*
X76632000Y-65258000D02*
X77930000Y-63960000D01*
X77930000Y-63960000D02*
X79228000Y-65258000D01*
X98250000Y-63960000D02*
X99448000Y-65158000D01*
X159210000Y-63960000D02*
X160508000Y-65258000D01*
X56369500Y-65200500D02*
X57610000Y-63960000D01*
X160508000Y-65258000D02*
X176308000Y-65258000D01*
X118570000Y-63960000D02*
X119868000Y-65258000D01*
X119868000Y-65258000D02*
X137592000Y-65258000D01*
%TO.N,Net-(C1-Pad1)*%
X210645000Y-106124000D02*
X210644999Y-114125001D01*
X211280000Y-105489000D02*
X210645000Y-106124000D01*
X210644999Y-114125001D02*
X208740000Y-116030000D01*
%TO.N,Net-(U1-X2)*%
X211280000Y-99700000D02*
X202591000Y-99700000D01*
X202591000Y-99700000D02*
X202390000Y-99901000D01*
X202390000Y-102060000D02*
X202390000Y-104600000D01*
X202390000Y-104600000D02*
X194770000Y-104600000D01*
X202390000Y-99901000D02*
X202390000Y-102060000D01*
%TD*%
M02*
