M48
; DRILL file {KiCad 7.0.5} date Sun Dec 17 19:06:12 2023
; FORMAT={-:-/ absolute / metric / decimal}
; #@! TF.CreationDate,2023-12-17T19:06:12-06:00
; #@! TF.GenerationSoftware,Kicad,Pcbnew,7.0.5
; #@! TF.FileFunction,Plated,1,2,PTH
FMAT,2
METRIC
; #@! TA.AperFunction,Plated,PTH,ViaDrill
T1C0.500
; #@! TA.AperFunction,Plated,PTH,ViaDrill
T2C0.750
; #@! TA.AperFunction,Plated,PTH,ComponentDrill
T3C0.800
; #@! TA.AperFunction,Plated,PTH,ViaDrill
T4C1.000
; #@! TA.AperFunction,Plated,PTH,ComponentDrill
T5C1.000
; #@! TA.AperFunction,Plated,PTH,ViaDrill
T6C1.250
; #@! TA.AperFunction,Plated,PTH,ComponentDrill
T7C1.500
; #@! TA.AperFunction,Plated,PTH,ComponentDrill
T8C1.850
; #@! TA.AperFunction,Plated,PTH,ComponentDrill
T9C2.540
; #@! TA.AperFunction,Plated,PTH,ComponentDrill
T10C4.000
%
G90
G05
T1
X34.801Y-114.659
X70.691Y-24.421
X90.503Y-24.421
X111.077Y-24.421
X131.397Y-24.421
X152.352Y-24.421
X172.037Y-24.421
X192.23Y-24.61
X217.732Y-102.111
T2
X49.736Y-48.974
X70.226Y-49.144
X90.63Y-48.974
X110.95Y-49.228
X131.27Y-49.482
X151.59Y-49.482
X172.164Y-49.228
T3
X47.45Y-124.92
X47.45Y-127.38
X47.45Y-129.92
X65.23Y-28.4
X65.23Y-30.94
X65.23Y-33.4
X65.23Y-41.1
X65.23Y-43.64
X65.23Y-46.1
X146.51Y-28.4
X146.51Y-30.94
X146.51Y-33.4
X146.51Y-41.1
X146.51Y-43.64
X146.51Y-46.1
X146.608Y-124.398
X146.608Y-126.858
X146.608Y-129.398
X187.15Y-99.52
X187.15Y-102.06
X187.15Y-104.6
X187.15Y-107.14
X187.15Y-109.68
X187.15Y-112.22
X187.15Y-114.76
X187.15Y-117.3
X187.15Y-119.84
X187.23Y-89.36
X189.69Y-89.36
X192.23Y-89.36
X194.77Y-99.52
X194.77Y-102.06
X194.77Y-104.6
X194.77Y-107.14
X194.77Y-109.68
X194.77Y-112.22
X194.77Y-114.76
X194.77Y-117.3
X194.77Y-119.84
X197.945Y-89.36
X197.945Y-102.06
X202.39Y-89.36
X202.39Y-102.06
X202.39Y-135.08
X202.39Y-137.62
X202.39Y-140.16
X202.39Y-142.7
X202.39Y-145.24
X202.39Y-147.78
X202.39Y-150.32
X202.39Y-152.86
X202.39Y-155.4
X202.39Y-157.94
X210.01Y-135.08
X210.01Y-137.62
X210.01Y-140.16
X210.01Y-142.7
X210.01Y-145.24
X210.01Y-147.78
X210.01Y-150.32
X210.01Y-152.86
X210.01Y-155.4
X210.01Y-157.94
X217.63Y-135.08
X217.63Y-137.62
X217.63Y-140.16
X217.63Y-142.7
X217.63Y-145.24
X217.63Y-147.78
X217.63Y-150.32
X217.63Y-152.86
X217.63Y-155.4
X217.63Y-157.94
X222.71Y-28.4
X222.71Y-30.86
X222.71Y-33.4
X222.71Y-38.56
X222.71Y-41.1
X222.71Y-43.56
X222.71Y-84.28
X222.71Y-86.82
X222.71Y-89.28
X222.862Y-69.12
X222.862Y-71.66
X222.862Y-74.12
X225.25Y-135.08
X225.25Y-137.62
X225.25Y-140.16
X225.25Y-142.7
X225.25Y-145.24
X225.25Y-147.78
X225.25Y-150.32
X225.25Y-152.86
X225.25Y-155.4
X225.25Y-157.94
X230.33Y-28.4
X230.33Y-30.86
X230.33Y-33.4
X230.33Y-84.28
X230.33Y-86.82
X230.33Y-89.28
X230.432Y-69.091
X230.432Y-71.631
X230.432Y-74.091
X232.87Y-135.08
X232.87Y-137.62
X232.87Y-140.16
X232.87Y-142.7
X232.87Y-145.24
X232.87Y-147.78
X232.87Y-150.32
X232.87Y-152.86
X232.87Y-155.4
X232.87Y-157.94
X232.918Y-96.98
X232.918Y-99.52
X232.918Y-102.06
X232.918Y-104.6
X232.918Y-107.14
X232.918Y-109.68
X232.918Y-112.22
X232.918Y-114.76
X232.918Y-117.3
X232.918Y-119.84
X240.49Y-135.08
X240.49Y-137.62
X240.49Y-140.16
X240.49Y-142.7
X240.49Y-145.24
X240.49Y-147.78
X240.49Y-150.32
X240.49Y-152.86
X240.49Y-155.4
X240.49Y-157.94
X240.538Y-96.98
X240.538Y-99.52
X240.538Y-102.06
X240.538Y-104.6
X240.538Y-107.14
X240.538Y-109.68
X240.538Y-112.22
X240.538Y-114.76
X240.538Y-117.3
X240.538Y-119.84
T4
X36.02Y-34.115
X39.195Y-37.29
X41.1Y-40.465
X46.18Y-37.29
X48.085Y-34.115
X55.07Y-124.158
X67.135Y-37.29
X68.856Y-34.115
X75.136Y-124.158
X83.01Y-40.465
X85.55Y-37.29
X88.09Y-34.115
X95.71Y-124.158
X103.965Y-40.465
X106.505Y-37.29
X109.045Y-34.115
X116.284Y-124.158
X123.65Y-40.465
X126.19Y-37.29
X128.7Y-34.115
X136.096Y-124.158
X142.065Y-40.465
X148.415Y-37.29
X150.32Y-34.115
X156.67Y-124.158
X164.925Y-40.465
X166.83Y-37.29
X169.37Y-34.115
X176.99Y-124.412
T5
X32.21Y-43.64
X32.21Y-46.18
X32.21Y-48.72
X32.21Y-51.26
X32.21Y-53.8
X32.21Y-56.34
X32.21Y-58.88
X32.21Y-61.42
X32.21Y-63.96
X32.21Y-66.5
X32.21Y-69.04
X32.21Y-71.58
X32.21Y-74.12
X32.21Y-76.66
X32.21Y-79.2
X32.21Y-81.74
X32.21Y-84.28
X32.21Y-86.82
X32.21Y-89.36
X32.21Y-91.9
X32.21Y-94.44
X32.21Y-96.98
X32.21Y-99.52
X32.21Y-102.06
X32.21Y-104.6
X32.21Y-107.14
X32.21Y-109.68
X32.21Y-112.22
X32.21Y-114.76
X32.21Y-117.3
X32.21Y-119.84
X37.29Y-43.64
X37.29Y-46.18
X37.29Y-48.72
X37.29Y-51.26
X37.29Y-53.8
X37.29Y-56.34
X37.29Y-58.88
X37.29Y-61.42
X37.29Y-63.96
X37.29Y-66.5
X37.29Y-69.04
X37.29Y-71.58
X37.29Y-74.12
X37.29Y-76.66
X37.29Y-79.2
X37.29Y-81.74
X37.29Y-84.28
X37.29Y-86.82
X37.29Y-89.36
X37.29Y-91.9
X37.29Y-94.44
X37.29Y-96.98
X37.29Y-99.52
X37.29Y-102.06
X37.29Y-104.6
X37.29Y-107.14
X37.29Y-109.68
X37.29Y-112.22
X37.29Y-114.76
X37.29Y-117.3
X37.29Y-119.84
X52.53Y-43.64
X52.53Y-46.18
X52.53Y-48.72
X52.53Y-51.26
X52.53Y-53.8
X52.53Y-56.34
X52.53Y-58.88
X52.53Y-61.42
X52.53Y-63.96
X52.53Y-66.5
X52.53Y-69.04
X52.53Y-71.58
X52.53Y-74.12
X52.53Y-76.66
X52.53Y-79.2
X52.53Y-81.74
X52.53Y-84.28
X52.53Y-86.82
X52.53Y-89.36
X52.53Y-91.9
X52.53Y-94.44
X52.53Y-96.98
X52.53Y-99.52
X52.53Y-102.06
X52.53Y-104.6
X52.53Y-107.14
X52.53Y-109.68
X52.53Y-112.22
X52.53Y-114.76
X52.53Y-117.3
X52.53Y-119.84
X57.61Y-43.64
X57.61Y-46.18
X57.61Y-48.72
X57.61Y-51.26
X57.61Y-53.8
X57.61Y-56.34
X57.61Y-58.88
X57.61Y-61.42
X57.61Y-63.96
X57.61Y-66.5
X57.61Y-69.04
X57.61Y-71.58
X57.61Y-74.12
X57.61Y-76.66
X57.61Y-79.2
X57.61Y-81.74
X57.61Y-84.28
X57.61Y-86.82
X57.61Y-89.36
X57.61Y-91.9
X57.61Y-94.44
X57.61Y-96.98
X57.61Y-99.52
X57.61Y-102.06
X57.61Y-104.6
X57.61Y-107.14
X57.61Y-109.68
X57.61Y-112.22
X57.61Y-114.76
X57.61Y-117.3
X57.61Y-119.84
X72.85Y-43.64
X72.85Y-46.18
X72.85Y-48.72
X72.85Y-51.26
X72.85Y-53.8
X72.85Y-56.34
X72.85Y-58.88
X72.85Y-61.42
X72.85Y-63.96
X72.85Y-66.5
X72.85Y-69.04
X72.85Y-71.58
X72.85Y-74.12
X72.85Y-76.66
X72.85Y-79.2
X72.85Y-81.74
X72.85Y-84.28
X72.85Y-86.82
X72.85Y-89.36
X72.85Y-91.9
X72.85Y-94.44
X72.85Y-96.98
X72.85Y-99.52
X72.85Y-102.06
X72.85Y-104.6
X72.85Y-107.14
X72.85Y-109.68
X72.85Y-112.22
X72.85Y-114.76
X72.85Y-117.3
X72.85Y-119.84
X77.93Y-43.64
X77.93Y-46.18
X77.93Y-48.72
X77.93Y-51.26
X77.93Y-53.8
X77.93Y-56.34
X77.93Y-58.88
X77.93Y-61.42
X77.93Y-63.96
X77.93Y-66.5
X77.93Y-69.04
X77.93Y-71.58
X77.93Y-74.12
X77.93Y-76.66
X77.93Y-79.2
X77.93Y-81.74
X77.93Y-84.28
X77.93Y-86.82
X77.93Y-89.36
X77.93Y-91.9
X77.93Y-94.44
X77.93Y-96.98
X77.93Y-99.52
X77.93Y-102.06
X77.93Y-104.6
X77.93Y-107.14
X77.93Y-109.68
X77.93Y-112.22
X77.93Y-114.76
X77.93Y-117.3
X77.93Y-119.84
X93.17Y-43.64
X93.17Y-46.18
X93.17Y-48.72
X93.17Y-51.26
X93.17Y-53.8
X93.17Y-56.34
X93.17Y-58.88
X93.17Y-61.42
X93.17Y-63.96
X93.17Y-66.5
X93.17Y-69.04
X93.17Y-71.58
X93.17Y-74.12
X93.17Y-76.66
X93.17Y-79.2
X93.17Y-81.74
X93.17Y-84.28
X93.17Y-86.82
X93.17Y-89.36
X93.17Y-91.9
X93.17Y-94.44
X93.17Y-96.98
X93.17Y-99.52
X93.17Y-102.06
X93.17Y-104.6
X93.17Y-107.14
X93.17Y-109.68
X93.17Y-112.22
X93.17Y-114.76
X93.17Y-117.3
X93.17Y-119.84
X98.25Y-43.64
X98.25Y-46.18
X98.25Y-48.72
X98.25Y-51.26
X98.25Y-53.8
X98.25Y-56.34
X98.25Y-58.88
X98.25Y-61.42
X98.25Y-63.96
X98.25Y-66.5
X98.25Y-69.04
X98.25Y-71.58
X98.25Y-74.12
X98.25Y-76.66
X98.25Y-79.2
X98.25Y-81.74
X98.25Y-84.28
X98.25Y-86.82
X98.25Y-89.36
X98.25Y-91.9
X98.25Y-94.44
X98.25Y-96.98
X98.25Y-99.52
X98.25Y-102.06
X98.25Y-104.6
X98.25Y-107.14
X98.25Y-109.68
X98.25Y-112.22
X98.25Y-114.76
X98.25Y-117.3
X98.25Y-119.84
X113.49Y-43.64
X113.49Y-46.18
X113.49Y-48.72
X113.49Y-51.26
X113.49Y-53.8
X113.49Y-56.34
X113.49Y-58.88
X113.49Y-61.42
X113.49Y-63.96
X113.49Y-66.5
X113.49Y-69.04
X113.49Y-71.58
X113.49Y-74.12
X113.49Y-76.66
X113.49Y-79.2
X113.49Y-81.74
X113.49Y-84.28
X113.49Y-86.82
X113.49Y-89.36
X113.49Y-91.9
X113.49Y-94.44
X113.49Y-96.98
X113.49Y-99.52
X113.49Y-102.06
X113.49Y-104.6
X113.49Y-107.14
X113.49Y-109.68
X113.49Y-112.22
X113.49Y-114.76
X113.49Y-117.3
X113.49Y-119.84
X118.57Y-43.64
X118.57Y-46.18
X118.57Y-48.72
X118.57Y-51.26
X118.57Y-53.8
X118.57Y-56.34
X118.57Y-58.88
X118.57Y-61.42
X118.57Y-63.96
X118.57Y-66.5
X118.57Y-69.04
X118.57Y-71.58
X118.57Y-74.12
X118.57Y-76.66
X118.57Y-79.2
X118.57Y-81.74
X118.57Y-84.28
X118.57Y-86.82
X118.57Y-89.36
X118.57Y-91.9
X118.57Y-94.44
X118.57Y-96.98
X118.57Y-99.52
X118.57Y-102.06
X118.57Y-104.6
X118.57Y-107.14
X118.57Y-109.68
X118.57Y-112.22
X118.57Y-114.76
X118.57Y-117.3
X118.57Y-119.84
X133.81Y-43.64
X133.81Y-46.18
X133.81Y-48.72
X133.81Y-51.26
X133.81Y-53.8
X133.81Y-56.34
X133.81Y-58.88
X133.81Y-61.42
X133.81Y-63.96
X133.81Y-66.5
X133.81Y-69.04
X133.81Y-71.58
X133.81Y-74.12
X133.81Y-76.66
X133.81Y-79.2
X133.81Y-81.74
X133.81Y-84.28
X133.81Y-86.82
X133.81Y-89.36
X133.81Y-91.9
X133.81Y-94.44
X133.81Y-96.98
X133.81Y-99.52
X133.81Y-102.06
X133.81Y-104.6
X133.81Y-107.14
X133.81Y-109.68
X133.81Y-112.22
X133.81Y-114.76
X133.81Y-117.3
X133.81Y-119.84
X138.89Y-43.64
X138.89Y-46.18
X138.89Y-48.72
X138.89Y-51.26
X138.89Y-53.8
X138.89Y-56.34
X138.89Y-58.88
X138.89Y-61.42
X138.89Y-63.96
X138.89Y-66.5
X138.89Y-69.04
X138.89Y-71.58
X138.89Y-74.12
X138.89Y-76.66
X138.89Y-79.2
X138.89Y-81.74
X138.89Y-84.28
X138.89Y-86.82
X138.89Y-89.36
X138.89Y-91.9
X138.89Y-94.44
X138.89Y-96.98
X138.89Y-99.52
X138.89Y-102.06
X138.89Y-104.6
X138.89Y-107.14
X138.89Y-109.68
X138.89Y-112.22
X138.89Y-114.76
X138.89Y-117.3
X138.89Y-119.84
X154.13Y-43.64
X154.13Y-46.18
X154.13Y-48.72
X154.13Y-51.26
X154.13Y-53.8
X154.13Y-56.34
X154.13Y-58.88
X154.13Y-61.42
X154.13Y-63.96
X154.13Y-66.5
X154.13Y-69.04
X154.13Y-71.58
X154.13Y-74.12
X154.13Y-76.66
X154.13Y-79.2
X154.13Y-81.74
X154.13Y-84.28
X154.13Y-86.82
X154.13Y-89.36
X154.13Y-91.9
X154.13Y-94.44
X154.13Y-96.98
X154.13Y-99.52
X154.13Y-102.06
X154.13Y-104.6
X154.13Y-107.14
X154.13Y-109.68
X154.13Y-112.22
X154.13Y-114.76
X154.13Y-117.3
X154.13Y-119.84
X159.21Y-43.64
X159.21Y-46.18
X159.21Y-48.72
X159.21Y-51.26
X159.21Y-53.8
X159.21Y-56.34
X159.21Y-58.88
X159.21Y-61.42
X159.21Y-63.96
X159.21Y-66.5
X159.21Y-69.04
X159.21Y-71.58
X159.21Y-74.12
X159.21Y-76.66
X159.21Y-79.2
X159.21Y-81.74
X159.21Y-84.28
X159.21Y-86.82
X159.21Y-89.36
X159.21Y-91.9
X159.21Y-94.44
X159.21Y-96.98
X159.21Y-99.52
X159.21Y-102.06
X159.21Y-104.6
X159.21Y-107.14
X159.21Y-109.68
X159.21Y-112.22
X159.21Y-114.76
X159.21Y-117.3
X159.21Y-119.84
X174.45Y-43.64
X174.45Y-46.18
X174.45Y-48.72
X174.45Y-51.26
X174.45Y-53.8
X174.45Y-56.34
X174.45Y-58.88
X174.45Y-61.42
X174.45Y-63.96
X174.45Y-66.5
X174.45Y-69.04
X174.45Y-71.58
X174.45Y-74.12
X174.45Y-76.66
X174.45Y-79.2
X174.45Y-81.74
X174.45Y-84.28
X174.45Y-86.82
X174.45Y-89.36
X174.45Y-91.9
X174.45Y-94.44
X174.45Y-96.98
X174.45Y-99.52
X174.45Y-102.06
X174.45Y-104.6
X174.45Y-107.14
X174.45Y-109.68
X174.45Y-112.22
X174.45Y-114.76
X174.45Y-117.3
X174.45Y-119.84
X179.53Y-43.64
X179.53Y-46.18
X179.53Y-48.72
X179.53Y-51.26
X179.53Y-53.8
X179.53Y-56.34
X179.53Y-58.88
X179.53Y-61.42
X179.53Y-63.96
X179.53Y-66.5
X179.53Y-69.04
X179.53Y-71.58
X179.53Y-74.12
X179.53Y-76.66
X179.53Y-79.2
X179.53Y-81.74
X179.53Y-84.28
X179.53Y-86.82
X179.53Y-89.36
X179.53Y-91.9
X179.53Y-94.44
X179.53Y-96.98
X179.53Y-99.52
X179.53Y-102.06
X179.53Y-104.6
X179.53Y-107.14
X179.53Y-109.68
X179.53Y-112.22
X179.53Y-114.76
X179.53Y-117.3
X179.53Y-119.84
T6
X34.369Y-24.463
X34.75Y-124.158
X204.26Y-53.96
X204.295Y-37.29
X207.45Y-76.18
X207.47Y-34.115
X213.79Y-79.83
X213.87Y-24.61
X217.61Y-60.29
T7
X211.28Y-99.7
X211.28Y-104.6
T8
X240.744Y-44.206
X240.744Y-48.166
X240.744Y-52.126
X240.744Y-56.086
X240.744Y-60.046
X240.744Y-64.006
X240.744Y-68.128
X240.744Y-72.088
X240.744Y-76.048
X240.744Y-80.008
X240.744Y-83.968
X240.744Y-87.928
T9
X202.39Y-112.22
X202.39Y-119.84
X208.74Y-116.03
T10
X240.5Y-28.65
T0
M30
